<?xml version="1.0" standalone="no"?>
<!DOCTYPE svg PUBLIC "-//W3C//DTD SVG 1.1//EN" "http://www.w3.org/Graphics/SVG/1.1/DTD/svg11.dtd" >
<svg xmlns="http://www.w3.org/2000/svg">
<metadata>
Created by FontPrep 20130207 at Mon Mar 27 12:11:30 2017
 By Jan Steinbach
</metadata>
<defs>
<font id="ca282df53f124b304d63260cc72391b5" horiz-adv-x='1024' >
  <font-face 
    font-family="CCMaterial-Regular"
    font-weight="400"
    font-stretch="normal"
    units-per-em="2048"
    panose-1="2 11 6 0 0 0 0 0 0 0"
    ascent="1761"
    descent="-287"
    x-height="1059"
    cap-height="1462"
    bbox="-920 -434.009 2353 1950"
    underline-thickness="159"
    underline-position="-148"
    unicode-range="U+0020-FFE5"
  />
<missing-glyph 
 />
    <glyph glyph-name=".notdef" 
 />
    <glyph glyph-name=".null" horiz-adv-x="0" vert-adv-y="0" 
 />
    <glyph glyph-name="nonmarkingreturn" horiz-adv-x="681" 
 />
    <glyph glyph-name="cid00003" unicode=" " horiz-adv-x="681" 
 />
    <glyph glyph-name="cid00004" unicode="!" horiz-adv-x="681" 
d="M342 293q66 0 108 -40q42 -41 42 -105t-43 -107q-47 -41 -109 -41t-105 43q-45 43 -45 107t46 102q40 41 106 41zM469 1462l-47 -1048h-162l-47 1048h256z" />
    <glyph glyph-name="cid00005" unicode="&#x22;" horiz-adv-x="970" 
d="M807 1462l-31 -520h-172l-29 520h232zM393 1462l-26 -520h-172l-31 520h229z" />
    <glyph glyph-name="cid00006" unicode="#" horiz-adv-x="1228" 
d="M711 483l80 496h-273l-80 -496h273zM365 1137l53 325h176l-51 -325h272l53 325h176l-51 -325h185l-27 -158h-182l-80 -496h211l-27 -157h-209l-51 -326h-178l51 326h-272l-52 -326h-178l52 326h-185l27 157h182l80 496h-211l27 158h209z" />
    <glyph glyph-name="cid00007" unicode="$" horiz-adv-x="1228" 
d="M926 385q0 143 -215 217l-37 14v-454q96 12 164 55q88 63 88 168zM324 1087q0 -125 215 -204l8 -2v424q-84 -6 -139 -45q-84 -53 -84 -173zM547 1657h127v-168q180 -12 293 -103q125 -96 155 -321h-217q-18 133 -96 188q-51 39 -135 50v-469q170 -66 260 -101
q213 -121 213 -338t-162 -329q-123 -80 -311 -93v-180h-127v180q-207 12 -327 127t-138 367h221q12 -170 84 -238q55 -55 160 -67v500l-232 86q-215 116 -215 328t154 319q115 86 293 94v168z" />
    <glyph glyph-name="cid00008" unicode="%" horiz-adv-x="2027" 
d="M1542 659q-145 2 -144 -258t142 -260q78 0 115 84q27 70 26 174q0 262 -139 260zM1884 402q0 -172 -82 -283q-94 -119 -262 -119t-262 119q-82 109 -82 283t82 278q90 121 262 121t262 -121q82 -106 82 -278zM346 1062q0 -259 142 -259q142 -1 141 261q0 108 -29 175
q-33 82 -111 82q-143 0 -143 -259zM143 1064q0 175 82 277q91 121 263 121t262 -121q82 -106 82 -278t-82 -283q-94 -118 -262 -118t-263 118q-82 109 -82 284zM1507 1491l-821 -1520h-166l819 1520h168z" />
    <glyph glyph-name="cid00009" unicode="&#x26;" horiz-adv-x="1525" 
d="M305 398q0 -102 84 -166t211 -64q199 0 326 143l-377 404l-25 -15q-96 -59 -151 -127q-68 -74 -68 -175zM473 1184q0 -63 44 -126t91 -116l4 2q186 106 187 221q0 72 -43 111q-43 45 -124 45t-118 -39q-41 -35 -41 -98zM252 1167q0 154 117 240q102 84 267 84
q164 0 274 -81q110 -80 110 -240t-172 -283l-121 -72l305 -323q57 158 72 364h221q-12 -319 -133 -534l303 -322h-281l-145 156q-180 -184 -461 -185q-229 0 -368 103q-158 115 -158 326t186 348q8 8 162 94q-88 94 -125 157q-53 82 -53 168z" />
    <glyph glyph-name="cid00010" unicode="'" horiz-adv-x="557" 
d="M393 1462l-26 -520h-172l-31 520h229z" />
    <glyph glyph-name="cid00011" unicode="(" horiz-adv-x="681" 
d="M92 735q0 283 94 539q76 219 222 420h182q-129 -209 -197 -424q-90 -258 -90 -530t90 -535q68 -213 197 -424h-182q-316 442 -316 954z" />
    <glyph glyph-name="cid00012" unicode=")" horiz-adv-x="681" 
d="M590 738q0 -505 -316 -957h-182q287 481 287 961t-287 952h182q316 -451 316 -956z" />
    <glyph glyph-name="cid00013" unicode="*" horiz-adv-x="1052" 
d="M621 1462l-23 -377l344 140l59 -176l-362 -99l248 -280l-146 -115l-215 313l-217 -313l-145 115l248 280l-361 99l60 176l344 -140l-23 377h189z" />
    <glyph glyph-name="cid00014" unicode="+" horiz-adv-x="1239" 
d="M711 1047v-426h426v-181h-426v-428h-181v428h-428v181h428v426h181z" />
    <glyph glyph-name="cid00015" unicode="," horiz-adv-x="557" 
d="M463 59q0 -154 -90 -272q-92 -117 -246 -160v127q86 33 137 96q53 72 53 144q-18 -6 -66 -6t-91 43t-43 111t47 110q41 40 118 40t132 -63q49 -68 49 -170z" />
    <glyph glyph-name="cid00016" unicode="-" horiz-adv-x="1239" 
d="M1137 621v-181h-1035v181h1035z" />
    <glyph glyph-name="cid00017" unicode="." horiz-adv-x="557" 
d="M432 142q0 -62 -45 -111q-47 -41 -111 -41t-106 43q-43 43 -43 109t43 108q42 43 106 43t111 -43q45 -46 45 -108z" />
    <glyph glyph-name="cid00018" unicode="/" horiz-adv-x="1024" 
d="M965 1679l-715 -1884h-191l717 1884h189z" />
    <glyph glyph-name="cid00019" unicode="0" horiz-adv-x="1228" 
d="M614 1303q-307 0 -307 -572t307 -571q306 0 308 571q0 236 -54 373q-74 199 -254 199zM1143 731q0 -340 -129 -543q-144 -217 -400 -217t-399 217q-129 203 -129 545t135 550t393 208t394 -210q135 -210 135 -550z" />
    <glyph glyph-name="cid00020" unicode="1" horiz-adv-x="835" 
d="M643 1462v-1462h-223v1194q-131 -125 -336 -184v221q94 25 207 86q115 70 184 145h168z" />
    <glyph glyph-name="cid00021" unicode="2" horiz-adv-x="1228" 
d="M895 1057q0 244 -266 246q-139 0 -209 -95q-72 -90 -78 -268h-223q2 246 141 393q138 158 364 158t359 -122t133 -311t-143 -349q-86 -88 -303 -236q-236 -156 -283 -276h731v-197h-1007q0 219 145 383q76 90 330 266q150 106 209 168q100 113 100 240z" />
    <glyph glyph-name="cid00022" unicode="3" horiz-adv-x="1228" 
d="M872 768q271 -83 271 -334q0 -203 -139 -332q-150 -131 -378 -131t-374 122t-164 368h225q6 -150 97 -228q80 -73 214 -73t222 82q76 76 76 194t-80 178q-74 61 -219 62h-107v168h105q133 0 203 59t69 170q0 227 -262 227q-133 0 -208 -68t-87 -202h-219q18 217 162 340
q133 120 352 120t352 -106q131 -109 131 -294q0 -242 -242 -322z" />
    <glyph glyph-name="cid00023" unicode="4" horiz-adv-x="1228" 
d="M754 496v684h-6l-525 -684h531zM967 1462v-966h221v-179h-221v-317h-213v317h-713v211l721 934h205z" />
    <glyph glyph-name="cid00024" unicode="5" horiz-adv-x="1228" 
d="M307 401q23 -241 298 -241q128 0 222 84q93 86 93 232t-80 233q-80 86 -226 86q-212 0 -290 -152h-209l80 819h880v-196h-700l-43 -422h6q68 70 156 100q78 33 180 33q207 0 337 -136q130 -135 130 -365t-168 -376q-156 -129 -363 -129q-206 0 -356 113t-166 317h219z
" />
    <glyph glyph-name="cid00025" unicode="6" horiz-adv-x="1228" 
d="M330 469q0 -143 81 -228t215 -85t216 92t82 231t-80 219q-80 86 -217 86t-217 -86t-80 -229zM659 965q228 0 357 -136q127 -139 127 -356t-148 -359t-362 -143q-269 1 -407 193t-138 539t146 567t401 221q426 0 481 -397h-217q-45 213 -266 213q-154 0 -242 -150
q-88 -139 -88 -354q0 -14 2 -27h8q118 189 346 189z" />
    <glyph glyph-name="cid00026" unicode="7" horiz-adv-x="1128" 
d="M1047 1462v-180l-519 -1282h-237l530 1260h-758v202h984z" />
    <glyph glyph-name="cid00027" unicode="8" horiz-adv-x="1228" 
d="M291 410q0 -118 84 -188q85 -70 239 -70t244 71q80 72 80 190t-80 187q-86 80 -246 80t-239 -78q-82 -74 -82 -192zM614 846q154 0 228 74q57 63 57 160t-74 165t-211 68q-137 -1 -211 -67t-73 -161q0 -239 284 -239zM121 1094q0 164 129 280q130 116 364 117
q234 0 364 -117t130 -280q0 -233 -215 -316v-6q106 -25 180 -123q86 -104 86 -241q0 -193 -141 -316q-144 -121 -404 -121t-403 121q-141 123 -141 316q0 137 86 241q74 98 180 123v6q-215 83 -215 316z" />
    <glyph glyph-name="cid00028" unicode="9" horiz-adv-x="1228" 
d="M307 988q0 -142 82 -224q76 -86 214 -86t218 86t80 228t-82 228t-217 87q-135 0 -213 -90q-82 -87 -82 -229zM88 989q0 219 145 361t365 141q269 -1 407 -193t138 -536t-146 -567q-152 -223 -401 -224q-426 0 -481 398h217q43 -213 266 -213q147 0 242 149q88 145 88 354
l-2 27h-8q-121 -188 -348 -188q-228 0 -355 136t-127 355z" />
    <glyph glyph-name="cid00029" unicode=":" horiz-adv-x="557" 
d="M432 150q0 -62 -45 -111q-45 -43 -109 -43t-108 44q-43 44 -43 108t45 108q38 45 104 45t111 -45q45 -44 45 -106zM432 900q0 -62 -45 -112q-45 -43 -109 -43t-108 44q-43 44 -43 109t45 108q38 45 104 45t111 -45q45 -44 45 -106z" />
    <glyph glyph-name="cid00030" unicode=";" horiz-adv-x="557" 
d="M463 59q0 -154 -90 -272q-92 -117 -246 -160v127q86 33 137 96q53 72 53 144q-18 -6 -66 -6t-91 43t-43 111t47 110q41 40 118 40t132 -63q49 -68 49 -170zM432 900q0 -62 -45 -112q-45 -43 -109 -43t-108 45q-43 45 -43 109t43 108q44 44 108 44t109 -45q45 -44 45 -106
z" />
    <glyph glyph-name="cid00031" unicode="&#x3c;" horiz-adv-x="1239" 
d="M1137 862l-779 -334l779 -333v-197l-1035 451v161l1035 449v-197z" />
    <glyph glyph-name="cid00032" unicode="=" horiz-adv-x="1239" 
d="M1137 408v-181h-1035v181h1035zM1137 831v-180h-1035v180h1035z" />
    <glyph glyph-name="cid00033" unicode="&#x3e;" horiz-adv-x="1239" 
d="M1137 610v-161l-1035 -451v197l779 333l-779 334v197z" />
    <glyph glyph-name="cid00034" unicode="?" horiz-adv-x="1132" 
d="M554 293q66 0 109 -40q42 -41 42 -105t-43 -107q-47 -41 -111 -41t-102 43q-45 43 -45 107t45 102q39 41 105 41zM102 1008q0 223 130 353t343 130t334 -109q121 -110 121 -276t-76 -266q-31 -37 -174 -160q-57 -52 -87 -108t-29 -134v-35h-220v35q0 117 41 198t232 251
l35 39q55 72 55 162t-59 155q-61 61 -173 62q-254 0 -256 -297h-217z" />
    <glyph glyph-name="cid00035" unicode="@" horiz-adv-x="1769" 
d="M730 871q-89 -117 -89 -275t129 -158q65 0 129 50t88 130l41 152q25 86 25 119t-33 67t-80 33q-121 0 -210 -118zM1149 289q-129 0 -148 129q-92 -133 -234 -133t-227 91t-85 230q0 215 135 381q131 168 317 168q137 0 189 -143l28 104h172l-141 -508q-29 -98 -29 -135
q0 -43 48 -43q90 0 184 124t94 316t-146 334t-414 142q-267 0 -436 -176t-169 -468q0 -290 170 -442t469 -151q201 0 348 65q129 63 211 176h182q-109 -195 -309 -287t-432 -92q-387 0 -607 203q-217 203 -217 538t213 548q225 231 596 231q331 0 521 -197
q166 -172 165 -428q0 -213 -137 -399q-137 -178 -311 -178z" />
    <glyph glyph-name="cid00036" unicode="A" horiz-adv-x="1380" 
d="M936 561l-242 662h-8l-244 -662h494zM817 1462l563 -1462h-239l-137 377h-629l-137 -377h-238l563 1462h254z" />
    <glyph glyph-name="cid00037" unicode="B" horiz-adv-x="1406" 
d="M780 184q320 0 322 230q0 129 -77 187t-239 58h-419v-475h413zM367 842h385q152 0 221 53q67 55 67 169t-66 164t-218 50h-389v-436zM1325 410q0 -410 -514 -410h-668v1462h668q215 0 334 -100t119 -268q0 -123 -62 -209q-63 -82 -170 -121q293 -59 293 -354z" />
    <glyph glyph-name="cid00038" unicode="C" horiz-adv-x="1497" 
d="M305 728q0 -260 114 -410t359 -150q336 0 420 338h217q-49 -256 -223 -396t-412 -139q-358 0 -540 230q-158 195 -158 525t164 534q182 231 532 231q258 0 420 -131t197 -354h-217q-72 290 -404 288q-238 0 -356 -161q-113 -145 -113 -405z" />
    <glyph glyph-name="cid00039" unicode="D" horiz-adv-x="1468" 
d="M367 190h264q279 0 407 134t127 410q0 276 -125 407q-129 131 -405 131h-268v-1082zM676 1462q352 0 530 -191t178 -537t-180 -540t-532 -194h-529v1462h533z" />
    <glyph glyph-name="cid00040" unicode="E" horiz-adv-x="1312" 
d="M1194 1462v-190h-827v-426h778v-191h-778v-465h862v-190h-1086v1462h1051z" />
    <glyph glyph-name="cid00041" unicode="F" horiz-adv-x="1189" 
d="M1137 1462v-190h-770v-426h727v-191h-727v-655h-224v1462h994z" />
    <glyph glyph-name="cid00042" unicode="G" horiz-adv-x="1544" 
d="M305 728q0 -564 524 -562q208 0 367 98v318h-403v190h626v-614q-236 -187 -599 -187q-362 -1 -550 213t-188 542t180 540q188 225 514 225q562 0 639 -494h-225q-63 299 -414 297q-213 0 -342 -148t-129 -418z" />
    <glyph glyph-name="cid00043" unicode="H" horiz-adv-x="1499" 
d="M367 1462v-616h766v616h223v-1462h-223v655h-766v-655h-224v1462h224z" />
    <glyph glyph-name="cid00044" unicode="I" horiz-adv-x="516" 
d="M369 1462v-1462h-222v1462h222z" />
    <glyph glyph-name="cid00045" unicode="J" horiz-adv-x="1091" 
d="M948 1462v-991q0 -244 -102 -369q-120 -131 -354 -131t-345 121q-117 123 -116 336v49h223v-47q0 -262 227 -262q127 0 187 76q57 76 57 235v983h223z" />
    <glyph glyph-name="cid00046" unicode="K" horiz-adv-x="1449" 
d="M367 0h-224v1462h224v-706l706 706h283l-647 -628l741 -834h-299l-594 688l-190 -182v-506z" />
    <glyph glyph-name="cid00047" unicode="L" horiz-adv-x="1210" 
d="M365 1462v-1272h804v-190h-1026v1462h222z" />
    <glyph glyph-name="cid00048" unicode="M" horiz-adv-x="1839" 
d="M1696 1462v-1462h-223v1044h-9l-448 -1044h-193l-448 1044h-8v-1044h-224v1462h265l510 -1171h6l508 1171h264z" />
    <glyph glyph-name="cid00049" unicode="N" horiz-adv-x="1492" 
d="M1124 375v1087h224v-1462h-218l-755 1100h-8v-1100h-224v1462h226l747 -1087h8z" />
    <glyph glyph-name="cid00050" unicode="O" horiz-adv-x="1583" 
d="M1276 729q0 260 -125 413t-361 153t-360 -154q-125 -154 -125 -410q0 -255 127 -409q128 -154 360 -154t358 150t126 411zM788 1491q336 0 524 -211t189 -548q-1 -337 -189 -549t-522 -212t-520 212q-188 212 -188 547t182 542q188 219 524 219z" />
    <glyph glyph-name="cid00051" unicode="P" horiz-adv-x="1335" 
d="M367 760h364q166 0 242 62t76 198t-78 190q-76 61 -240 62h-364v-512zM750 1462q522 0 522 -444q0 -449 -527 -449h-378v-569h-224v1462h607z" />
    <glyph glyph-name="cid00052" unicode="Q" horiz-adv-x="1583" 
d="M1276 748q0 242 -125 394q-125 153 -361 153t-360 -154q-125 -154 -125 -410q0 -255 127 -409t359 -154q154 0 262 65q-104 131 -219 252l129 127q92 -96 221 -247q92 141 92 383zM788 1491q336 0 524 -211t189 -545q0 -334 -178 -542q115 -154 162 -224l-144 -127
q-96 139 -161 228q-162 -98 -389 -99q-333 0 -521 212t-188 547t182 542q188 219 524 219z" />
    <glyph glyph-name="cid00053" unicode="R" horiz-adv-x="1417" 
d="M762 795q293 0 293 241q0 121 -70 178q-72 57 -225 58h-393v-477h395zM791 1462q225 0 352 -100q135 -111 135 -318q0 -114 -66 -208t-186 -125v-4q195 -43 219 -258l25 -234q12 -135 86 -215h-242q-51 66 -63 193l-19 182q-12 119 -78 174t-192 55h-395v-604h-224v1462
h648z" />
    <glyph glyph-name="cid00054" unicode="S" horiz-adv-x="1325" 
d="M643 1298q-315 0 -315 -202q0 -98 108 -156q53 -32 305 -108t332 -125q189 -115 189 -313t-154 -310t-424 -113q-270 0 -424 107q-180 129 -199 405h222q25 -175 119 -245t266 -70t272 56t100 155q0 121 -139 192q-51 25 -308 106t-319 114q-168 101 -168 293t158 299
t404 107t387 -108q154 -113 174 -352h-221q-31 144 -115 206t-250 62z" />
    <glyph glyph-name="cid00055" unicode="T" horiz-adv-x="1261" 
d="M1229 1462v-190h-488v-1272h-221v1272h-489v190h1198z" />
    <glyph glyph-name="cid00056" unicode="U" horiz-adv-x="1492" 
d="M367 1462v-909q0 -199 91 -293t289 -94t289 96q90 96 90 291v909h224v-905q0 -285 -158 -436q-160 -150 -448 -150t-444 151q-157 151 -157 435v905h224z" />
    <glyph glyph-name="cid00057" unicode="V" horiz-adv-x="1339" 
d="M252 1462l416 -1212h6l413 1212h242l-524 -1462h-270l-525 1462h242z" />
    <glyph glyph-name="cid00058" unicode="W" horiz-adv-x="1941" 
d="M262 1462l285 -1138h8l299 1138h233l299 -1138h9l284 1138h252l-422 -1462h-237l-297 1128h-8l-297 -1128h-240l-420 1462h252z" />
    <glyph glyph-name="cid00059" unicode="X" horiz-adv-x="1347" 
d="M317 1462l357 -528l356 528h273l-496 -706l530 -756h-272l-391 580l-391 -580h-273l527 756l-492 706h272z" />
    <glyph glyph-name="cid00060" unicode="Y" horiz-adv-x="1400" 
d="M811 0h-221v584l-580 878h269l421 -669l422 669h269l-580 -878v-584z" />
    <glyph glyph-name="cid00061" unicode="Z" horiz-adv-x="1300" 
d="M1200 1462v-178l-858 -1094h907v-190h-1198v176l860 1096h-798v190h1087z" />
    <glyph glyph-name="cid00062" unicode="[" horiz-adv-x="681" 
d="M606 1694v-178h-332v-1557h332v-178h-530v1913h530z" />
    <glyph glyph-name="cid00063" unicode="\" horiz-adv-x="1024" 
d="M248 1679l717 -1884h-191l-715 1884h189z" />
    <glyph glyph-name="cid00064" unicode="]" horiz-adv-x="681" 
d="M606 1694v-1913h-530v178h332v1557h-332v178h530z" />
    <glyph glyph-name="cid00065" unicode="^" horiz-adv-x="1103" 
d="M651 1462l330 -704h-176l-252 522l-256 -522h-174l330 704h198z" />
    <glyph glyph-name="cid00066" unicode="_" horiz-adv-x="1024" 
d="M1024 -106v-181h-1024v181h1024z" />
    <glyph glyph-name="cid00067" unicode="`" horiz-adv-x="681" 
d="M365 1479l194 -299h-143l-291 299h240z" />
    <glyph glyph-name="cid00068" unicode="a" horiz-adv-x="1165" 
d="M305 279q0 -61 51 -101t133 -41q135 0 236 84q100 84 100 207v61l-223 -6q-297 -6 -297 -204zM1040 676v-676h-200v150q-136 -177 -400 -179q-164 0 -258 84q-100 82 -100 215q0 180 141 275q127 90 365 96l237 6v43q0 221 -230 221t-265 -168l-215 19q66 327 485 325
q440 2 440 -411z" />
    <glyph glyph-name="cid00069" unicode="b" horiz-adv-x="1224" 
d="M621 147q297 0 299 388q0 176 -68 268q-76 109 -238 108q-124 0 -196 -96q-84 -102 -84 -276v-19q0 -158 72 -266t215 -107zM340 1491v-590q129 186 324 186q225 0 358 -165q121 -156 121 -394t-129 -397q-128 -160 -352 -160t-336 156v-127h-203v1491h217z" />
    <glyph glyph-name="cid00070" unicode="c" horiz-adv-x="1142" 
d="M82 526q0 242 134 402t378 159q203 0 326 -92q125 -100 155 -295h-215q-23 111 -88 158q-66 51 -190 51t-199 -100q-78 -95 -78 -277t74 -282t213 -100q242 0 272 241h215q-73 -418 -489 -420q-242 0 -375 156q-133 157 -133 399z" />
    <glyph glyph-name="cid00071" unicode="d" horiz-adv-x="1224" 
d="M305 535q0 -388 299 -388q137 0 219 113q68 102 68 260v19q0 170 -82 276q-78 96 -199 96q-161 1 -237 -108q-68 -92 -68 -268zM1102 1491v-1491h-203v127q-113 -156 -339 -156t-352 160t-126 400t121 391q129 166 358 165q195 0 324 -186v590h217z" />
    <glyph glyph-name="cid00072" unicode="e" horiz-adv-x="1155" 
d="M383 838q-70 -74 -88 -205h571q-31 276 -288 276q-123 1 -195 -71zM568 -29q-224 0 -359 146q-147 155 -147 403t139 406q135 162 384 162t382 -177q125 -162 127 -442h-803q12 -158 86 -239q74 -80 194 -80t181 46t106 144h217q-39 -152 -145 -248q-138 -121 -362 -121z
" />
    <glyph glyph-name="cid00073" unicode="f" horiz-adv-x="772" 
d="M571 1278q-102 0 -102 -111v-108h279v-178h-279v-881h-215v881h-244v178h244v115q0 137 74 210q72 78 213 78h221v-184h-191z" />
    <glyph glyph-name="cid00074" unicode="g" horiz-adv-x="1226" 
d="M305 562q0 -359 291 -359q137 0 217 92q76 98 76 260t-76 260q-78 96 -218 96t-212 -96q-78 -90 -78 -253zM887 1059h217v-989q0 -504 -494 -504q-219 0 -338 84q-115 84 -145 260h217q18 -94 78 -133t188 -39q276 0 277 299v164q-117 -176 -328 -176t-344 143t-133 384
t133 386q131 150 344 150t328 -170v141z" />
    <glyph glyph-name="cid00075" unicode="h" horiz-adv-x="1171" 
d="M831 621q0 290 -243 288q-112 0 -180 -88t-68 -227v-594h-217v1491h217v-582q113 180 328 178q379 0 381 -430v-657h-218v621z" />
    <glyph glyph-name="cid00076" unicode="i" horiz-adv-x="555" 
d="M385 1059v-1059h-217v1059h217zM127 1338q0 64 42 105q43 40 109 40t108 -40q42 -39 42 -103t-45 -107t-107 -43t-106 41q-43 43 -43 107z" />
    <glyph glyph-name="cid00077" unicode="j" horiz-adv-x="561" 
d="M391 1059v-1161q0 -303 -321 -304h-101v179h82q123 0 123 133v1153h217zM284 1483q66 0 108 -40q42 -41 42 -105t-43 -107q-47 -41 -107 -41t-106 41q-45 43 -45 107t45 104q40 41 106 41z" />
    <glyph glyph-name="cid00078" unicode="k" horiz-adv-x="1120" 
d="M340 1491v-868l459 436h280l-469 -436l510 -623h-278l-381 483l-121 -112v-371h-217v1491h217z" />
    <glyph glyph-name="cid00079" unicode="l" horiz-adv-x="512" 
d="M365 1491v-1491h-218v1491h218z" />
    <glyph glyph-name="cid00080" unicode="m" horiz-adv-x="1796" 
d="M1673 694v-694h-217v657q0 131 -54 189t-181 59q-90 0 -152 -67q-61 -68 -61 -187v-651h-217v655q0 250 -218 250q-106 0 -167 -80q-66 -74 -66 -188v-637h-217v1059h217v-117q127 145 291 145q236 0 334 -178q71 99 147 139t184 39q164 0 271 -108q106 -111 106 -285z
" />
    <glyph glyph-name="cid00081" unicode="n" horiz-adv-x="1179" 
d="M1055 653v-653h-217v635q0 270 -248 270q-96 -1 -167 -71t-83 -197v-637h-217v1059h217v-131q122 161 319 159q396 0 396 -434z" />
    <glyph glyph-name="cid00082" unicode="o" horiz-adv-x="1222" 
d="M305 530q0 -164 72 -262q84 -118 232 -118t237 118q74 104 74 263t-74 260q-86 119 -236 119t-233 -119q-72 -97 -72 -261zM610 -29q-238 0 -383 158q-145 159 -145 401t143 400t384 158t385 -160t144 -401t-145 -399t-383 -157z" />
    <glyph glyph-name="cid00083" unicode="p" horiz-adv-x="1224" 
d="M334 518q0 -172 84 -274q74 -96 196 -97q160 1 233 103t73 273t-64 274q-76 115 -228 115t-227 -113q-68 -98 -67 -262v-19zM661 1088q224 0 353 -160t129 -398t-125 -398q-125 -161 -354 -161q-195 0 -324 185v-562h-217v1465h203v-127q111 156 335 156z" />
    <glyph glyph-name="cid00084" unicode="q" horiz-adv-x="1224" 
d="M891 518v19q0 163 -74 269t-213 105q-297 2 -298 -380t304 -384q119 0 199 97q82 106 82 274zM899 1059h203v-1465h-217v562q-129 -184 -324 -185q-229 0 -358 166q-121 151 -121 391t127 400t353 160t337 -156v127z" />
    <glyph glyph-name="cid00085" unicode="r" horiz-adv-x="761" 
d="M340 561v-561h-217v1059h217v-160q39 84 102 129q72 60 164 60t146 -27v-217q-74 22 -163 22t-169 -82t-80 -223z" />
    <glyph glyph-name="cid00086" unicode="s" horiz-adv-x="1064" 
d="M514 909q-203 0 -205 -123q0 -53 86 -94q53 -22 222 -64t260 -100q127 -80 127 -221q0 -336 -472 -336q-434 0 -471 371h213q18 -106 76 -152q57 -41 176 -40q254 0 254 143q0 78 -94 121q-49 24 -225 64t-250 89q-123 78 -123 218q0 139 119 221t311 81q414 1 451 -333
h-211q-25 86 -78 120t-166 35z" />
    <glyph glyph-name="cid00087" unicode="t" horiz-adv-x="737" 
d="M485 0q-256 0 -258 264v615h-196v180h196v252l217 90v-342h242v-180h-242v-615q0 -82 76 -84h139v-180h-174z" />
    <glyph glyph-name="cid00088" unicode="u" horiz-adv-x="1181" 
d="M340 1059v-645q0 -136 57 -198t183 -62q82 0 157 69q74 72 103 189v647h217v-1059h-217v143q-135 -172 -334 -172q-383 0 -383 428v660h217z" />
    <glyph glyph-name="cid00089" unicode="v" horiz-adv-x="1024" 
d="M246 1059l266 -789l266 789h236l-393 -1059h-218l-393 1059h236z" />
    <glyph glyph-name="cid00090" unicode="w" horiz-adv-x="1581" 
d="M250 1059l223 -801l217 801h201l217 -801l223 801h240l-359 -1059h-200l-221 793l-222 -793h-200l-359 1059h240z" />
    <glyph glyph-name="cid00091" unicode="x" horiz-adv-x="1085" 
d="M311 1059l234 -336l231 336h254l-366 -496l411 -563h-254l-276 403l-279 -403h-256l414 563l-367 496h254z" />
    <glyph glyph-name="cid00092" unicode="y" horiz-adv-x="1062" 
d="M246 1059l291 -772l278 772h238l-576 -1465h-231l184 431l-420 1034h236z" />
    <glyph glyph-name="cid00093" unicode="z" horiz-adv-x="1028" 
d="M944 1059v-141l-608 -740h641v-178h-926v150l600 731h-579v178h872z" />
    <glyph glyph-name="cid00094" unicode="{" horiz-adv-x="681" 
d="M653 1694v-166h-121q-115 0 -114 -133v-402q0 -190 -176 -256q176 -74 176 -256v-403q0 -131 114 -131h121v-166h-157q-133 0 -205 84t-72 221v385q0 90 -39 133t-151 49v168q111 6 151 51t39 132v382q0 140 71 224t206 84h157z" />
    <glyph glyph-name="cid00095" unicode="|" horiz-adv-x="430" 
d="M305 1761v-2048h-180v2048h180z" />
    <glyph glyph-name="cid00096" unicode="}" horiz-adv-x="681" 
d="M186 1694q135 0 206 -84t71 -224v-382q0 -90 40 -134t150 -49v-168q-113 -6 -153 -53q-37 -39 -37 -129v-385q0 -137 -72 -221t-205 -84h-157v166h121q115 0 114 131v403q0 182 176 256q-176 63 -176 256v402q0 133 -114 133h-121v166h157z" />
    <glyph glyph-name="cid00097" unicode="~" horiz-adv-x="1024" 
d="M719 735q61 0 143 137l133 -92q-135 -213 -276 -213q-96 0 -230 82q-129 84 -188 84t-139 -135l-133 92q135 211 276 211q105 0 232 -84q133 -82 182 -82z" />
    <glyph glyph-name="cid00098" horiz-adv-x="0" 
 />
    <glyph glyph-name="uni00A0" unicode="&#xa0;" horiz-adv-x="681" 
 />
    <glyph glyph-name="cid00100" unicode="&#xa1;" horiz-adv-x="681" 
d="M422 657l47 -1063h-256l47 1063h162zM342 766q-62 0 -106 42q-46 42 -46 104t44 104t108 43q64 0 107 -40q43 -41 43 -105t-43 -107q-45 -41 -107 -41z" />
    <glyph glyph-name="cid00101" unicode="&#xa2;" horiz-adv-x="1228" 
d="M629 1112q-137 0 -213 -98t-76 -280t72 -279q16 -20 26 -31l250 684q-20 4 -59 4zM627 352q242 0 272 242h215q-37 -211 -160 -318q-125 -102 -329 -102q-63 0 -140 14l-86 -237l-118 43l88 239q-72 41 -123 101q-129 154 -129 396t129 394q135 166 383 166q74 0 123 -10
l75 211l119 -41l-76 -205q53 -23 82 -47q127 -96 158 -295h-215q-23 111 -88 158q-2 0 -2 1l-256 -700q41 -10 78 -10z" />
    <glyph glyph-name="cid00102" unicode="&#xa3;" horiz-adv-x="1228" 
d="M1147 1032h-223q-12 139 -62 201q-61 67 -184 67q-122 0 -186 -70t-64 -171q0 -102 35 -271v-2h391v-127h-369q12 -86 13 -139q0 -188 -125 -330h735v-190h-997v186q182 104 182 314q0 61 -19 159h-194v127h166q-39 180 -39 275q0 180 125 305q126 125 362 125t361 -168
q92 -123 92 -291z" />
    <glyph glyph-name="cid00103" unicode="&#xa4;" horiz-adv-x="1228" 
d="M616 1018q-118 0 -199 -81t-81 -199t82 -200t196 -81q114 0 201 82q82 85 82 199t-82 200q-81 80 -199 80zM614 1229q162 0 291 -96l142 139l100 -101l-137 -139q96 -131 96 -293t-96 -295l137 -139l-100 -100l-140 137q-131 -94 -292 -94t-291 96l-142 -139l-100 100
l139 141q-96 127 -96 292t96 292l-139 141l100 101l142 -139q128 96 290 96z" />
    <glyph glyph-name="cid00104" unicode="&#xa5;" horiz-adv-x="1228" 
d="M1079 743v-127h-344l-2 -2v-176h346v-127h-346v-311h-237v311h-344v127h344v176l-2 2h-342v127h270l-399 719h270l321 -628l322 628h270l-399 -719h272z" />
    <glyph glyph-name="cid00105" unicode="&#xa6;" horiz-adv-x="430" 
d="M305 631v-631h-180v631h180zM305 1462v-631h-180v631h180z" />
    <glyph glyph-name="cid00106" unicode="&#xa7;" horiz-adv-x="1228" 
d="M377 755q0 -54 108 -118q14 -8 152 -76q203 133 203 203q0 43 -99 104q-37 25 -166 93q-55 -33 -108 -80q-90 -72 -90 -126zM653 1518q-225 0 -225 -154q0 -68 68 -127q40 -35 200 -115t232 -139q123 -93 123 -203t-80 -202q-47 -53 -135 -117q66 -35 112 -80
q115 -102 115 -225q0 -184 -150 -293q-135 -92 -333 -92t-369 77v195q193 -82 340 -82t225 39q76 45 76 127t-104 145q-44 33 -226 114t-252 138q-104 92 -104 204t106 220q55 61 127 109q-66 45 -104 90q-78 86 -78 207q0 176 129 268q117 86 287 86t342 -63v-195
q-164 68 -322 68z" />
    <glyph glyph-name="cid00107" unicode="&#xa8;" horiz-adv-x="1024" 
d="M817 1692q0 -44 -32 -75q-33 -32 -77 -32t-76 31t-32 77q0 47 32 77t76 30t77 -32q32 -32 32 -76zM315 1585q-45 0 -77 31t-31 77q0 47 32 77q33 30 77 30t76 -32t32 -76t-32 -75q-32 -32 -77 -32z" />
    <glyph glyph-name="cid00108" unicode="&#xa9;" horiz-adv-x="1642" 
d="M840 422q185 0 237 188h183q-71 -350 -420 -350q-231 0 -353 143q-102 121 -102 325t104 329q121 145 349 145q170 0 276 -78t133 -241h-182q-50 157 -229 157q-265 0 -267 -311q0 -147 67 -227t204 -80zM1462 734q0 262 -188 450t-454 188t-452 -187
q-188 -187 -188 -453t188 -453q188 -189 451 -189q262 0 455 189q188 193 188 455zM820 1491q316 0 539 -221q222 -220 222 -536t-221 -541q-224 -221 -540 -221t-537 222q-221 224 -221 539t220 537q222 222 538 221z" />
    <glyph glyph-name="cid00109" unicode="&#xaa;" horiz-adv-x="739" 
d="M215 981q0 -80 109 -82q84 0 145 43q59 43 59 121v35h-131q-182 0 -182 -117zM688 1225v-430h-149v90q-92 -109 -246 -109q-109 0 -174 55q-68 53 -68 140q0 121 94 182q90 63 242 64h141v18q0 127 -137 127t-162 -105l-155 15q43 219 323 219q155 0 223 -73t68 -193z
" />
    <glyph glyph-name="guillemotleft" unicode="&#xab;" horiz-adv-x="1157" 
d="M1096 1038l-432 -297l432 -297v-188l-584 406v161l584 404v-189zM645 1038l-432 -297l432 -297v-188l-584 406v161l584 404v-189z" />
    <glyph glyph-name="cid00111" unicode="&#xac;" horiz-adv-x="1239" 
d="M1137 621v-482h-181v301h-854v181h1035z" />
    <glyph glyph-name="uni00AD" unicode="&#xad;" horiz-adv-x="681" 
d="M598 621v-181h-512v181h512z" />
    <glyph glyph-name="cid00113" unicode="&#xae;" horiz-adv-x="1642" 
d="M829 793q158 1 158 117t-158 116h-186v-233h186zM850 1184q147 0 235 -67q89 -67 89 -211t-140 -195q119 -39 129 -224q6 -141 74 -208h-213q-33 53 -45 163t-44 151q-32 40 -124 40h-168v-354h-188v905h395zM1462 734q0 262 -188 450t-454 188t-452 -187
q-188 -187 -188 -453t188 -453q188 -189 451 -189q262 0 455 189q188 193 188 455zM820 1491q316 0 539 -221q222 -220 222 -536t-221 -541q-224 -221 -540 -221t-537 222q-221 224 -221 539t220 537q222 222 538 221z" />
    <glyph glyph-name="cid00114" unicode="&#xaf;" horiz-adv-x="1417" 
d="M1417 1761v-180h-1417v180h1417z" />
    <glyph glyph-name="cid00115" unicode="&#xb0;" horiz-adv-x="686" 
d="M199 1446q0 -60 42 -102t100 -42t103 41q43 43 43 103t-42 101q-42 42 -103 42t-102 -42t-41 -101zM602 1446q0 -106 -77 -183t-185 -77t-180 78q-78 72 -78 182t78 182q72 78 181 78t185 -77t76 -183z" />
    <glyph glyph-name="cid00116" unicode="&#xb1;" horiz-adv-x="1239" 
d="M1137 180v-180h-1035v180h1035zM711 1059v-287h426v-180h-426v-289h-181v289h-428v180h428v287h181z" />
    <glyph glyph-name="uni00B2" unicode="&#xb2;" horiz-adv-x="1024" 
d="M829 1428q0 -122 -88 -216q-47 -47 -188 -141q-129 -80 -160 -141h438v-142h-638q0 145 90 244q49 57 204 162q109 80 125 96q60 63 60 135t-41 103q-35 35 -111 35t-117 -56q-45 -53 -47 -159h-159q2 158 90 254t232 96t226 -76q84 -72 84 -194z" />
    <glyph glyph-name="uni00B3" unicode="&#xb3;" horiz-adv-x="1024" 
d="M516 1313q154 0 154 124t-151 124t-167 -160h-157q12 143 99 220t226 77t224 -67t85 -191t-127 -183q144 -59 144 -192t-91 -213t-229 -80t-221 53q-115 80 -127 260h162q4 -102 55 -140t124 -38t121 43t48 106t-45 101q-45 33 -127 33h-76v123h76z" />
    <glyph glyph-name="cid00119" unicode="&#xb4;" horiz-adv-x="681" 
d="M559 1845l-291 -299h-143l194 299h240z" />
    <glyph glyph-name="uni00B5" unicode="&#xb5;" horiz-adv-x="1181" 
d="M340 1059v-662q0 -244 240 -243q92 0 166 68t94 190v647h217v-1059h-217v143q-76 -88 -135 -127q-79 -45 -181 -45t-184 72v-449h-217v1465h217z" />
    <glyph glyph-name="cid00121" unicode="&#xb6;" horiz-adv-x="1187" 
d="M43 1294q0 180 115 274t313 93h573v-1851h-163v1714h-273v-1714h-164v1122q-401 13 -401 362z" />
    <glyph glyph-name="cid00122" unicode="&#xb7;" horiz-adv-x="1024" 
d="M668 740q0 -64 -45 -111t-111 -47t-109 47q-47 45 -47 111t47 106q41 47 109 47t109 -47q47 -42 47 -106z" />
    <glyph glyph-name="cid00123" unicode="&#xb8;" horiz-adv-x="610" 
d="M532 -267q0 -87 -86 -136q-66 -31 -168 -31t-200 49l35 78q82 -39 143 -39t98 20q31 25 31 68q0 80 -127 80q-23 0 -90 -6l72 190h106l-41 -108l49 2q74 0 127 -39q51 -41 51 -128z" />
    <glyph glyph-name="uni00B9" unicode="&#xb9;" horiz-adv-x="1024" 
d="M608 1681v-893h-157v697q-80 -61 -207 -101v158q145 37 245 139h119z" />
    <glyph glyph-name="cid00125" unicode="&#xba;" horiz-adv-x="800" 
d="M215 1133q0 -107 50 -167t135 -60t137 61q51 63 51 165t-51 165q-51 62 -137 62t-135 -60q-50 -60 -50 -166zM51 1134q0 157 96 255q90 101 251 101t256 -101q96 -101 96 -253t-95 -257q-96 -103 -256 -103t-252 103q-96 98 -96 255z" />
    <glyph glyph-name="guillemotright" unicode="&#xbb;" horiz-adv-x="1157" 
d="M1096 823v-161l-584 -406v188l432 297l-432 297v189zM645 823v-161l-584 -406v188l433 297l-433 297v189z" />
    <glyph glyph-name="cid00127" unicode="&#xbc;" 
d="M1614 113v387h-8l-285 -387h293zM1765 688v-575h138v-129h-138v-189h-151v189h-440v141l425 563h166zM1819 1679l-1409 -1884h-181l1411 1884h179zM541 1681v-893h-158v697q-80 -61 -207 -101v158q145 37 246 139h119z" />
    <glyph glyph-name="cid00128" unicode="&#xbd;" 
d="M1901 -63v-142h-639q0 145 90 244q45 53 204 162q109 80 125 96q59 63 59 134t-37 105q-38 34 -114 34t-116 -56q-45 -55 -46 -160h-161q4 160 94 254q84 96 228 96t229 -73q81 -76 81 -197t-88 -215q-53 -53 -188 -141q-129 -80 -160 -141h439zM1819 1679l-1409 -1884
h-181l1411 1884h179zM541 1681v-893h-158v697q-80 -61 -207 -101v158q145 37 246 139h119z" />
    <glyph glyph-name="cid00129" unicode="&#xbe;" 
d="M1614 113v387h-8l-285 -387h293zM1765 688v-575h138v-129h-138v-189h-151v189h-440v141l425 563h166zM1819 1679l-1409 -1884h-181l1411 1884h179zM462 1561q-150 0 -167 -160h-158q12 143 101 219q86 78 225 78t224 -67t85 -191t-127 -183q143 -59 143 -192t-91 -213
t-229 -80t-220 53q-115 80 -127 260h162q4 -102 55 -140t124 -38t121 43t48 106t-45 101q-45 33 -127 33h-76v123h76q154 0 153 125q0 123 -150 123z" />
    <glyph glyph-name="cid00130" unicode="&#xbf;" horiz-adv-x="1132" 
d="M813 51h217q0 -221 -133 -352t-343 -131t-331 108t-121 278q0 169 76 265q29 39 174 160q119 106 119 239v37h217v-34q0 -109 -41 -197q-43 -82 -142 -171t-124 -120q-55 -67 -55 -161t61 -156t170 -62q256 0 256 297zM428 914q0 64 42 105q42 40 108 40t109 -42
q42 -43 42 -105t-43 -105q-45 -41 -107 -41t-108 41q-43 43 -43 107z" />
    <glyph glyph-name="cid00131" unicode="&#xc0;" horiz-adv-x="1380" 
d="M936 561l-242 662h-8l-244 -662h494zM817 1462l563 -1462h-239l-137 377h-629l-137 -377h-238l563 1462h254zM639 1845l195 -299h-144l-291 299h240z" />
    <glyph glyph-name="cid00132" unicode="&#xc1;" horiz-adv-x="1380" 
d="M936 561l-242 662h-8l-244 -662h494zM817 1462l563 -1462h-239l-137 377h-629l-137 -377h-238l563 1462h254zM981 1845l-293 -299h-141l194 299h240z" />
    <glyph glyph-name="cid00133" unicode="&#xc2;" horiz-adv-x="1380" 
d="M936 561l-242 662h-8l-244 -662h494zM817 1462l563 -1462h-239l-137 377h-629l-137 -377h-238l563 1462h254zM784 1829l213 -260h-137l-170 166l-170 -166h-137l211 260h190z" />
    <glyph glyph-name="cid00134" unicode="&#xc3;" horiz-adv-x="1380" 
d="M936 561l-242 662h-8l-244 -662h494zM817 1462l563 -1462h-239l-137 377h-629l-137 -377h-238l563 1462h254zM831 1599q-59 0 -146 38t-129 38t-97 -69l-90 75q86 127 180 127q53 0 143 -39t128 -39t98 70l94 -78q-86 -123 -181 -123z" />
    <glyph glyph-name="cid00135" unicode="&#xc4;" horiz-adv-x="1380" 
d="M936 561l-242 662h-8l-244 -662h494zM817 1462l563 -1462h-239l-137 377h-629l-137 -377h-238l563 1462h254zM886 1585q-46 0 -77 31t-31 77q0 47 31 77t77 30t77 -31t31 -77t-32 -76q-30 -31 -76 -31zM387 1693q0 47 31 77q30 30 74 30t77 -31t33 -77t-31 -76
q-31 -31 -77 -31t-76 31q-31 31 -31 77z" />
    <glyph glyph-name="cid00136" unicode="&#xc5;" horiz-adv-x="1380" 
d="M936 561l-242 662h-8l-244 -662h494zM817 1462l563 -1462h-239l-137 377h-629l-137 -377h-238l563 1462h254zM690 1784q-36 0 -65 -26t-29 -68t28 -69q28 -28 66 -28t68 29q28 29 28 70q0 40 -30 66t-66 26zM870 1690q0 -70 -53 -127q-57 -51 -127 -51t-125 51
q-53 53 -53 127t53 127q55 51 125 51t127 -51q53 -57 53 -127z" />
    <glyph glyph-name="cid00137" unicode="&#xc6;" horiz-adv-x="1961" 
d="M899 561v662h-16l-348 -662h364zM1866 1462v-190h-744v-426h697v-191h-697v-465h779v-190h-1002v377h-463l-198 -377h-238l760 1462h1106z" />
    <glyph glyph-name="cid00138" unicode="&#xc7;" horiz-adv-x="1497" 
d="M305 728q0 -260 114 -410t359 -150q336 0 420 338h217q-49 -256 -229 -400q-152 -121 -363 -133l-26 -75q23 2 47 2q78 0 125 -39q55 -41 55 -128t-86 -136q-62 -31 -166 -31t-203 49l35 78q78 -39 146 -39q127 0 127 88q0 80 -129 80q-23 0 -91 -6l60 157
q-311 18 -477 228q-158 195 -158 525t164 534q182 231 532 231q258 0 420 -131t197 -354h-217q-72 290 -404 288q-238 0 -356 -161q-113 -145 -113 -405z" />
    <glyph glyph-name="cid00139" unicode="&#xc8;" horiz-adv-x="1312" 
d="M1194 1462v-190h-827v-426h778v-191h-778v-465h862v-190h-1086v1462h1051zM629 1845l194 -299h-141l-293 299h240z" />
    <glyph glyph-name="cid00140" unicode="&#xc9;" horiz-adv-x="1312" 
d="M1194 1462v-190h-827v-426h778v-191h-778v-465h862v-190h-1086v1462h1051zM940 1845l-291 -299h-141l192 299h240z" />
    <glyph glyph-name="cid00141" unicode="&#xca;" horiz-adv-x="1312" 
d="M1194 1462v-190h-827v-426h778v-191h-778v-465h862v-190h-1086v1462h1051zM752 1829l213 -260h-138l-172 166l-168 -166h-137l211 260h191z" />
    <glyph glyph-name="cid00142" unicode="&#xcb;" horiz-adv-x="1312" 
d="M1194 1462v-190h-827v-426h778v-191h-778v-465h862v-190h-1086v1462h1051zM961 1692q0 -46 -31 -76q-31 -31 -77 -31t-77 31t-31 77q0 47 31 77t77 30t77 -31t31 -77zM460 1585q-46 0 -77 31t-31 77q0 47 31 77t77 30t77 -31t31 -77t-32 -76q-30 -31 -76 -31z" />
    <glyph glyph-name="cid00143" unicode="&#xcc;" horiz-adv-x="516" 
d="M369 1462v-1462h-222v1462h222zM193 1845l194 -299h-141l-293 299h240z" />
    <glyph glyph-name="cid00144" unicode="&#xcd;" horiz-adv-x="516" 
d="M369 1462v-1462h-222v1462h222zM563 1845l-291 -299h-143l195 299h239z" />
    <glyph glyph-name="cid00145" unicode="&#xce;" horiz-adv-x="516" 
d="M369 1462v-1462h-222v1462h222zM354 1829l211 -260h-137l-170 166l-170 -166h-137l213 260h190z" />
    <glyph glyph-name="cid00146" unicode="&#xcf;" horiz-adv-x="516" 
d="M369 1462v-1462h-222v1462h222zM561 1692q0 -46 -31 -76q-30 -31 -76 -31t-77 31t-31 77q0 47 31 77t77 30t76 -31q31 -31 31 -77zM170 1692q0 -46 -31 -76q-31 -31 -77 -31t-76 31t-31 77q0 47 31 77q30 30 76 30t77 -31t31 -77z" />
    <glyph glyph-name="cid00147" unicode="&#xd0;" horiz-adv-x="1472" 
d="M371 801h358v-127h-358v-484h264q279 0 407 134q125 136 125 412t-126 406t-402 130h-268v-471zM680 1462q354 0 534 -198q174 -186 174 -530t-180 -540q-180 -194 -532 -194h-529v674h-147v127h147v661h533z" />
    <glyph glyph-name="cid00148" unicode="&#xd1;" horiz-adv-x="1492" 
d="M1124 375v1087h224v-1462h-218l-755 1100h-8v-1100h-224v1462h226l747 -1087h8zM889 1599q-57 0 -145 38t-131 38q-42 0 -97 -69l-90 75q86 127 180 127q54 0 144 -39t128 -39t97 70l94 -78q-86 -123 -180 -123z" />
    <glyph glyph-name="cid00149" unicode="&#xd2;" horiz-adv-x="1583" 
d="M1276 729q0 260 -125 413t-361 153t-360 -154q-125 -154 -125 -410q0 -255 127 -409q128 -154 360 -154t358 150t126 411zM788 1491q336 0 524 -211t189 -548q-1 -337 -189 -549t-522 -212t-520 212q-188 212 -188 547t182 542q188 219 524 219zM735 1845l195 -299h-142
l-292 299h239z" />
    <glyph glyph-name="cid00150" unicode="&#xd3;" horiz-adv-x="1583" 
d="M1276 729q0 260 -125 413t-361 153t-360 -154q-125 -154 -125 -410q0 -255 127 -409q128 -154 360 -154t358 150t126 411zM788 1491q336 0 524 -211t189 -548q-1 -337 -189 -549t-522 -212t-520 212q-188 212 -188 547t182 542q188 219 524 219zM1087 1845l-290 -299
h-144l195 299h239z" />
    <glyph glyph-name="cid00151" unicode="&#xd4;" horiz-adv-x="1583" 
d="M1276 729q0 260 -125 413t-361 153t-360 -154q-125 -154 -125 -410q0 -255 127 -409q128 -154 360 -154t358 150t126 411zM788 1491q336 0 524 -211t189 -548q-1 -337 -189 -549t-522 -212t-520 212q-188 212 -188 547t182 542q188 219 524 219zM887 1829l211 -260h-137
l-168 166l-170 -166h-138l211 260h191z" />
    <glyph glyph-name="cid00152" unicode="&#xd5;" horiz-adv-x="1583" 
d="M1276 729q0 260 -125 413t-361 153t-360 -154q-125 -154 -125 -410q0 -255 127 -409q128 -154 360 -154t358 150t126 411zM788 1491q336 0 524 -211t189 -548q-1 -337 -189 -549t-522 -212t-520 212q-188 212 -188 547t182 542q188 219 524 219zM934 1599q-58 0 -146 38
t-130 38t-97 -69l-90 75q86 127 178 127q56 0 145 -39t128 -39t96 70l94 -78q-82 -123 -178 -123z" />
    <glyph glyph-name="cid00153" unicode="&#xd6;" horiz-adv-x="1583" 
d="M1276 729q0 260 -125 413t-361 153t-360 -154q-125 -154 -125 -410q0 -255 127 -409q128 -154 360 -154t358 150t126 411zM788 1491q336 0 524 -211t189 -548q-1 -337 -189 -549t-522 -212t-520 212q-188 212 -188 547t182 542q188 219 524 219zM987 1800q45 0 77 -31
t32 -77t-32 -76q-32 -31 -77 -31t-77 31t-32 77q0 47 32 77t77 30zM596 1800q45 0 77 -32t32 -76t-32 -75q-32 -32 -77 -32t-77 31t-32 77q0 47 32 77t77 30z" />
    <glyph glyph-name="cid00154" unicode="&#xd7;" horiz-adv-x="1239" 
d="M621 657l389 390l127 -127l-389 -390l389 -391l-127 -127l-389 391l-392 -391l-127 127l392 391l-392 390l127 127z" />
    <glyph glyph-name="cid00155" unicode="&#xd8;" horiz-adv-x="1583" 
d="M791 168q233 0 359 150t126 411q0 260 -125 414l-25 26l-555 -956q96 -45 220 -45zM305 731q0 -256 123 -407q20 -25 37 -39l557 960q-98 49 -231 49q-236 1 -361 -153t-125 -410zM1501 729q-1 -334 -189 -546t-521 -212q-180 0 -322 66l-104 -180l-113 63l106 182
q-49 35 -94 86q-182 207 -182 542t182 542q188 219 527 219q192 0 333 -70l103 176l112 -63l-106 -182q268 -218 268 -623z" />
    <glyph glyph-name="cid00156" unicode="&#xd9;" horiz-adv-x="1492" 
d="M367 1462v-909q0 -199 91 -293t289 -94t289 96q90 96 90 291v909h224v-905q0 -285 -158 -436q-160 -150 -448 -150t-444 151q-157 151 -157 435v905h224zM684 1845l195 -299h-144l-291 299h240z" />
    <glyph glyph-name="cid00157" unicode="&#xda;" horiz-adv-x="1492" 
d="M367 1462v-909q0 -199 91 -293t289 -94t289 96q90 96 90 291v909h224v-905q0 -285 -158 -436q-160 -150 -448 -150t-444 151q-157 151 -157 435v905h224zM1049 1845l-291 -299h-144l195 299h240z" />
    <glyph glyph-name="cid00158" unicode="&#xdb;" horiz-adv-x="1492" 
d="M367 1462v-909q0 -199 91 -293t289 -94t289 96q90 96 90 291v909h224v-905q0 -285 -158 -436q-160 -150 -448 -150t-444 151q-157 151 -157 435v905h224zM844 1829l211 -260h-137l-170 166l-170 -166h-138l213 260h191z" />
    <glyph glyph-name="cid00159" unicode="&#xdc;" horiz-adv-x="1492" 
d="M367 1462v-909q0 -199 91 -293t289 -94t289 96q90 96 90 291v909h224v-905q0 -285 -158 -436q-160 -150 -448 -150t-444 151q-157 151 -157 435v905h224zM1051 1692q0 -46 -31 -76q-31 -31 -77 -31t-77 31q-30 31 -30 77q0 47 30 77t77 30q46 0 77 -31t31 -77zM550 1585
q-46 0 -77 31t-31 77q0 47 31 77t77 30t77 -31t31 -77t-32 -76q-30 -31 -76 -31z" />
    <glyph glyph-name="cid00160" unicode="&#xdd;" horiz-adv-x="1400" 
d="M811 0h-221v584l-580 878h269l421 -669l422 669h269l-580 -878v-584zM985 1845l-291 -299h-141l192 299h240z" />
    <glyph glyph-name="cid00161" unicode="&#xde;" horiz-adv-x="1335" 
d="M367 494h364q166 0 242 62t76 198t-78 190q-76 61 -240 62h-364v-512zM367 1462v-266h383q522 0 522 -444q0 -449 -527 -449h-378v-303h-224v1462h224z" />
    <glyph glyph-name="cid00162" unicode="&#xdf;" horiz-adv-x="1316" 
d="M967 1067q0 231 -279 231q-164 0 -244 -100q-80 -92 -79 -280v-918h-222v926q0 262 156 415q143 149 375 149t374 -105t142 -300q0 -94 -58 -185t-163 -128q264 -82 264 -348q0 -217 -125 -335t-338 -118q-104 0 -248 15v200q78 -22 203 -22t201 57q84 68 84 199
q0 254 -299 256h-113v170h111q115 0 187 60t71 161z" />
    <glyph glyph-name="cid00163" unicode="&#xe0;" horiz-adv-x="1165" 
d="M305 279q0 -61 51 -101t133 -41q135 0 236 84q100 84 100 207v61l-223 -6q-297 -6 -297 -204zM1040 676v-676h-200v150q-135 -179 -400 -179q-164 0 -258 84q-100 82 -100 215q0 180 141 275q127 90 365 96l237 6v43q0 221 -230 221t-265 -168l-215 19q66 327 485 325
q440 2 440 -411zM526 1479l195 -299h-141l-293 299h239z" />
    <glyph glyph-name="cid00164" unicode="&#xe1;" horiz-adv-x="1165" 
d="M305 279q0 -61 51 -101t133 -41q135 0 236 84q100 84 100 207v61l-223 -6q-297 -6 -297 -204zM1040 676v-676h-200v150q-135 -179 -400 -179q-164 0 -258 84q-100 82 -100 215q0 180 141 275q127 90 365 96l237 6v43q0 221 -230 221t-265 -168l-215 19q66 327 485 325
q440 2 440 -411zM858 1479l-291 -299h-143l194 299h240z" />
    <glyph glyph-name="cid00165" unicode="&#xe2;" horiz-adv-x="1165" 
d="M305 279q0 -61 51 -101t133 -41q135 0 236 84q100 84 100 207v61l-223 -6q-297 -6 -297 -204zM1040 676v-676h-200v150q-135 -179 -400 -179q-164 0 -258 84q-100 82 -100 215q0 180 141 275q127 90 365 96l237 6v43q0 221 -230 221t-265 -168l-215 19q66 327 485 325
q440 2 440 -411zM684 1466l213 -260h-137l-172 166l-168 -166h-150l224 260h190z" />
    <glyph glyph-name="cid00166" unicode="&#xe3;" horiz-adv-x="1165" 
d="M305 279q0 -61 51 -101t133 -41q135 0 236 84q100 84 100 207v61l-223 -6q-297 -6 -297 -204zM1040 676v-676h-200v150q-135 -179 -400 -179q-164 0 -258 84q-100 82 -100 215q0 180 141 275q127 90 365 96l237 6v43q0 221 -230 221t-265 -168l-215 19q66 327 485 325
q440 2 440 -411zM442 1440q60 0 147 -39t125 -39t97 70l94 -76q-88 -125 -180 -125q-57 0 -145 38t-130 38t-98 -70l-92 76q84 127 182 127z" />
    <glyph glyph-name="cid00167" unicode="&#xe4;" horiz-adv-x="1165" 
d="M305 279q0 -61 51 -101t133 -41q135 0 236 84q100 84 100 207v61l-223 -6q-297 -6 -297 -204zM1040 676v-676h-200v150q-135 -179 -400 -179q-164 0 -258 84q-100 82 -100 215q0 180 141 275q127 90 365 96l237 6v43q0 221 -230 221t-265 -168l-215 19q66 327 485 325
q440 2 440 -411zM887 1333q0 -45 -32 -77t-76 -32t-76 32t-31 77q0 45 30 77t77 32q46 0 77 -32t31 -77zM494 1333q0 -45 -32 -77t-76 -32t-76 32t-31 77t31 77t76 32t77 -32t31 -77z" />
    <glyph glyph-name="cid00168" unicode="&#xe5;" horiz-adv-x="1165" 
d="M305 279q0 -61 51 -101t133 -41q135 0 236 84q100 84 100 207v61l-223 -6q-297 -6 -297 -204zM1040 676v-676h-200v150q-135 -179 -400 -179q-164 0 -258 84q-100 82 -100 215q0 180 141 275q127 90 365 96l237 6v43q0 221 -230 221t-265 -168l-215 19q66 327 485 325
q440 2 440 -411zM582 1430q-40 0 -68 -26q-27 -26 -27 -68t28 -70t66 -27q38 0 70 29q27 32 27 70t-27 65q-29 27 -69 27zM582 1513q74 0 127 -52t53 -124t-53 -129q-57 -51 -127 -51t-125 51q-53 53 -53 128t52 126t126 51z" />
    <glyph glyph-name="cid00169" unicode="&#xe6;" horiz-adv-x="1859" 
d="M285 287q0 -61 47 -103t135 -41q147 0 241 86t95 211v43h-221q-297 1 -297 -196zM1571 647q-31 264 -289 262q-129 0 -199 -78q-63 -59 -82 -184h570zM1296 -29q-290 0 -409 209q-88 -94 -197 -151q-126 -57 -280 -57t-251 83q-97 84 -98 226q0 367 504 366h238v47
q0 92 -57 155t-183 62q-225 0 -256 -180h-215q48 358 488 356q256 0 348 -172q2 6 10 15q127 158 342 157q493 2 516 -604h-797q6 -162 86 -248t205 -85q193 0 273 190h217q-37 -147 -144 -248q-137 -121 -340 -121z" />
    <glyph glyph-name="cid00170" unicode="&#xe7;" horiz-adv-x="1142" 
d="M571 -346q129 0 127 88q0 80 -129 80q-23 0 -90 -6l60 157q-205 14 -331 162q-126 149 -126 391t134 402t378 159q203 0 326 -92q125 -100 155 -295h-215q-23 111 -88 158q-66 51 -190 51t-199 -100q-78 -95 -78 -277t74 -282t213 -100q242 0 272 241h215
q-37 -211 -161 -317q-111 -88 -273 -101l-27 -75q23 2 48 2q78 0 125 -39q55 -41 55 -128t-86 -136q-66 -31 -168 -31t-201 49l35 78q78 -39 145 -39z" />
    <glyph glyph-name="cid00171" unicode="&#xe8;" horiz-adv-x="1155" 
d="M383 838q-70 -74 -88 -205h571q-31 276 -288 276q-123 1 -195 -71zM568 -29q-224 0 -359 146q-147 155 -147 403t139 406q135 162 384 162t382 -177q125 -162 127 -442h-803q12 -158 86 -239q74 -80 194 -80t181 46t106 144h217q-39 -152 -145 -248q-138 -121 -362 -121z
M565 1479l195 -299h-144l-290 299h239z" />
    <glyph glyph-name="cid00172" unicode="&#xe9;" horiz-adv-x="1155" 
d="M383 838q-70 -74 -88 -205h571q-31 276 -288 276q-123 1 -195 -71zM568 -29q-224 0 -359 146q-147 155 -147 403t139 406q135 162 384 162t382 -177q125 -162 127 -442h-803q12 -158 86 -239q74 -80 194 -80t181 46t106 144h217q-39 -152 -145 -248q-138 -121 -362 -121z
M829 1479l-290 -299h-144l195 299h239z" />
    <glyph glyph-name="cid00173" unicode="&#xea;" horiz-adv-x="1155" 
d="M383 838q-70 -74 -88 -205h571q-31 276 -288 276q-123 1 -195 -71zM568 -29q-224 0 -359 146q-147 155 -147 403t139 406q135 162 384 162t382 -177q125 -162 127 -442h-803q12 -158 86 -239q74 -80 194 -80t181 46t106 144h217q-39 -152 -145 -248q-138 -121 -362 -121z
M674 1466l211 -260h-137l-168 166l-172 -166h-138l213 260h191z" />
    <glyph glyph-name="cid00174" unicode="&#xeb;" horiz-adv-x="1155" 
d="M383 838q-70 -74 -88 -205h571q-31 276 -288 276q-123 1 -195 -71zM568 -29q-224 0 -359 146q-147 155 -147 403t139 406q135 162 384 162t382 -177q125 -162 127 -442h-803q12 -158 86 -239q74 -80 194 -80t181 46t106 144h217q-39 -152 -145 -248q-138 -121 -362 -121z
M881 1333q0 -45 -32 -77t-76 -32t-76 32t-31 77q0 45 30 77t77 32q46 0 77 -32t31 -77zM274 1333q0 45 31 77t77 32t77 -32t31 -77t-32 -77t-76 -32t-76 32t-32 77z" />
    <glyph glyph-name="cid00175" unicode="&#xec;" horiz-adv-x="555" 
d="M387 1059v-1059h-217v1059h217zM199 1479l194 -299h-143l-291 299h240z" />
    <glyph glyph-name="cid00176" unicode="&#xed;" horiz-adv-x="555" 
d="M387 1059v-1059h-217v1059h217zM598 1479l-293 -299h-141l194 299h240z" />
    <glyph glyph-name="cid00177" unicode="&#xee;" horiz-adv-x="555" 
d="M387 1059v-1059h-217v1059h217zM373 1466l211 -260h-138l-170 166l-170 -166h-137l213 260h191z" />
    <glyph glyph-name="cid00178" unicode="&#xef;" horiz-adv-x="555" 
d="M387 1059v-1059h-217v1059h217zM580 1333q0 -45 -32 -77t-76 -32t-76 32t-31 77t31 77t76 32t77 -32t31 -77zM-27 1333q0 45 31 77t77 32t77 -32q30 -32 30 -77t-32 -77t-75 -32q-44 0 -76 32t-32 77z" />
    <glyph glyph-name="cid00179" unicode="&#xf0;" horiz-adv-x="1226" 
d="M608 852q-142 0 -221 -96q-80 -96 -80 -256t82 -255t219 -95t228 96q84 100 84 259t-84 253q-86 94 -228 94zM1145 504q0 -223 -146 -379q-149 -154 -393 -154t-385 152q-139 145 -139 373t143 381q141 156 361 155q143 0 221 -63q-53 113 -209 268q-152 -63 -279 -127
l-67 121q145 74 233 112q-80 72 -153 117l131 99q106 -57 211 -140q129 49 260 82l51 -133q-92 -23 -188 -55q348 -348 348 -809z" />
    <glyph glyph-name="cid00180" unicode="&#xf1;" horiz-adv-x="1179" 
d="M1055 653v-653h-217v635q0 270 -248 270q-96 -1 -167 -71t-83 -197v-637h-217v1059h217v-131q122 161 319 159q396 0 396 -434zM451 1440q59 0 146 -39t125 -39t97 70l94 -76q-88 -125 -180 -125q-59 0 -146 38t-129 38t-98 -70l-92 76q84 127 183 127z" />
    <glyph glyph-name="cid00181" unicode="&#xf2;" horiz-adv-x="1222" 
d="M307 530q0 -172 82 -276t222 -104t223 104q82 106 82 276t-82 277q-82 102 -224 102t-223 -102q-80 -105 -80 -277zM610 -29q-242 0 -387 164q-141 155 -141 395t141 394q145 164 388 164t385 -160t142 -399t-142 -399q-144 -160 -386 -159zM530 1479l195 -299h-141
l-293 299h239z" />
    <glyph glyph-name="cid00182" unicode="&#xf3;" horiz-adv-x="1222" 
d="M307 530q0 -172 82 -276t222 -104t223 104q82 106 82 276t-82 277q-82 102 -224 102t-223 -102q-80 -105 -80 -277zM610 -29q-242 0 -387 164q-141 155 -141 395t141 394q145 164 388 164t385 -160t142 -399t-142 -399q-144 -160 -386 -159zM932 1479l-291 -299h-141
l192 299h240z" />
    <glyph glyph-name="cid00183" unicode="&#xf4;" horiz-adv-x="1222" 
d="M307 530q0 -172 82 -276t222 -104t223 104q82 106 82 276t-82 277q-82 102 -224 102t-223 -102q-80 -105 -80 -277zM610 -29q-242 0 -387 164q-141 155 -141 395t141 394q145 164 388 164t385 -160t142 -399t-142 -399q-144 -160 -386 -159zM707 1466l213 -260h-138
l-172 166l-168 -166h-137l211 260h191z" />
    <glyph glyph-name="cid00184" unicode="&#xf5;" horiz-adv-x="1222" 
d="M307 530q0 -172 82 -276t222 -104t223 104q82 106 82 276t-82 277q-82 102 -224 102t-223 -102q-80 -105 -80 -277zM610 -29q-242 0 -387 164q-141 155 -141 395t141 394q145 164 388 164t385 -160t142 -399t-142 -399q-144 -160 -386 -159zM471 1440q59 0 146 -39
t125 -39t98 70l94 -76q-88 -125 -180 -125q-58 0 -146 38t-130 38t-97 -70l-92 76q84 127 182 127z" />
    <glyph glyph-name="cid00185" unicode="&#xf6;" horiz-adv-x="1222" 
d="M307 530q0 -172 82 -276t222 -104t223 104q82 106 82 276t-82 277q-82 102 -224 102t-223 -102q-80 -105 -80 -277zM610 -29q-242 0 -387 164q-141 155 -141 395t141 394q145 164 388 164t385 -160t142 -399t-142 -399q-144 -160 -386 -159zM700 1333q0 45 31 77t77 32
t77 -32t31 -77t-32 -77t-76 -32t-76 32t-32 77zM307 1333q0 45 31 77t77 32t77 -32q30 -32 30 -77t-32 -77t-75 -32q-44 0 -76 32t-32 77z" />
    <glyph glyph-name="cid00186" unicode="&#xf7;" horiz-adv-x="1239" 
d="M620 303q66 0 108 -40t42 -104t-43 -108q-47 -41 -107 -41t-106 42q-45 42 -45 107t45 103q40 41 106 41zM1137 621v-181h-1035v181h1035zM620 1051q66 0 108 -41q42 -40 42 -104t-43 -107q-47 -41 -107 -41t-106 42q-45 42 -45 106t45 104q40 41 106 41z" />
    <glyph glyph-name="cid00187" unicode="&#xf8;" horiz-adv-x="1222" 
d="M920 521q0 163 -68 261l-381 -600q66 -33 139 -32q142 0 226 104t84 267zM610 909q-139 0 -222 -103q-83 -104 -83 -270t70 -266l383 602q-63 37 -148 37zM610 -29q-131 0 -239 52l-88 -138l-109 68l90 141q-23 18 -41 41q-141 155 -141 395t141 394q145 164 387 163
q137 0 248 -55l88 139l109 -67l-90 -143l34 -37q139 -156 139 -395t-142 -399q-144 -160 -386 -159z" />
    <glyph glyph-name="cid00188" unicode="&#xf9;" horiz-adv-x="1181" 
d="M340 1059v-645q0 -136 57 -198t183 -62q82 0 157 69q74 72 103 189v647h217v-1059h-217v143q-135 -172 -334 -172q-383 0 -383 428v660h217zM582 1479l192 -299h-141l-291 299h240z" />
    <glyph glyph-name="cid00189" unicode="&#xfa;" horiz-adv-x="1181" 
d="M340 1059v-645q0 -136 57 -198t183 -62q82 0 157 69q74 72 103 189v647h217v-1059h-217v143q-135 -172 -334 -172q-383 0 -383 428v660h217zM862 1479l-291 -299h-143l195 299h239z" />
    <glyph glyph-name="cid00190" unicode="&#xfb;" horiz-adv-x="1181" 
d="M340 1059v-645q0 -136 57 -198t183 -62q82 0 157 69q74 72 103 189v647h217v-1059h-217v143q-135 -172 -334 -172q-383 0 -383 428v660h217zM686 1466l213 -260h-137l-172 166l-168 -166h-137l211 260h190z" />
    <glyph glyph-name="cid00191" unicode="&#xfc;" horiz-adv-x="1181" 
d="M340 1059v-645q0 -136 57 -198t183 -62q82 0 157 69q74 72 103 189v647h217v-1059h-217v143q-135 -172 -334 -172q-383 0 -383 428v660h217zM895 1333q0 -45 -32 -77t-76 -32q-43 0 -75 32t-32 77t31 77t77 32t76 -32q31 -32 31 -77zM502 1333q0 -45 -32 -77t-76 -32
t-76 32t-31 77t31 77t76 32t77 -32t31 -77z" />
    <glyph glyph-name="cid00192" unicode="&#xfd;" horiz-adv-x="1062" 
d="M246 1059l291 -772l278 772h238l-576 -1465h-231l184 431l-420 1034h236zM821 1479l-291 -299h-143l195 299h239z" />
    <glyph glyph-name="cid00193" unicode="&#xfe;" horiz-adv-x="1224" 
d="M334 518q0 -172 84 -274q74 -96 196 -97q158 1 232 103t74 275t-70 280t-222 107t-227 -113q-68 -98 -67 -262v-19zM326 1462v-530q110 156 334 156t360 -166q123 -154 123 -392t-125 -398q-125 -161 -354 -161q-195 0 -324 185v-562h-217v1868h203z" />
    <glyph glyph-name="cid00194" unicode="&#xff;" horiz-adv-x="1062" 
d="M246 1059l291 -772l278 772h238l-576 -1465h-231l184 431l-420 1034h236zM836 1333q0 -45 -32 -77t-76 -32t-76 32t-31 77t31 77t76 32t77 -32t31 -77zM227 1333q0 45 31 77t77 32t77 -32q30 -32 30 -77t-32 -77t-75 -32q-44 0 -76 32t-32 77z" />
    <glyph glyph-name="cid00195" unicode="&#x100;" horiz-adv-x="1380" 
d="M936 561l-242 662h-8l-244 -662h494zM817 1462l563 -1462h-239l-137 377h-629l-137 -377h-238l563 1462h254zM1008 1757v-131h-633v131h633z" />
    <glyph glyph-name="cid00196" unicode="&#x101;" horiz-adv-x="1165" 
d="M305 279q0 -61 51 -101t133 -41q135 0 236 84q100 84 100 207v61l-223 -6q-297 -6 -297 -204zM1040 676v-676h-200v150q-135 -179 -400 -179q-164 0 -258 84q-100 82 -100 215q0 180 141 275q127 90 365 96l237 6v43q0 221 -230 221t-265 -168l-215 19q66 327 485 325
q440 2 440 -411zM899 1393v-131h-633v131h633z" />
    <glyph glyph-name="cid00197" unicode="&#x102;" horiz-adv-x="1380" 
d="M936 561l-242 662h-8l-244 -662h494zM817 1462l563 -1462h-239l-137 377h-629l-137 -377h-238l563 1462h254zM690 1563q-276 0 -313 268h112q31 -147 201 -147t203 147h113q-40 -268 -316 -268z" />
    <glyph glyph-name="cid00198" unicode="&#x103;" horiz-adv-x="1165" 
d="M305 279q0 -61 51 -101t133 -41q135 0 236 84q100 84 100 207v61l-223 -6q-297 -6 -297 -204zM1040 676v-676h-200v150q-135 -179 -400 -179q-164 0 -258 84q-100 82 -100 215q0 180 141 275q127 90 365 96l237 6v43q0 221 -230 221t-265 -168l-215 19q66 327 485 325
q440 2 440 -411zM582 1321q170 0 202 147h113q-41 -268 -316 -268t-313 268h113q31 -147 201 -147z" />
    <glyph glyph-name="cid00199" unicode="&#x104;" horiz-adv-x="1380" 
d="M936 561l-242 662h-8l-244 -662h494zM1161 -234q0 -88 77 -88t175 70l45 -70q-119 -113 -256 -112q-186 0 -186 168q0 55 38 134t87 134l-137 375h-629l-137 -377h-238l563 1462h254l563 -1462h-129q-90 -146 -90 -234z" />
    <glyph glyph-name="cid00200" unicode="&#x105;" horiz-adv-x="1165" 
d="M305 279q0 -61 51 -101t133 -41q135 0 236 84q100 84 100 207v61l-223 -6q-297 -6 -297 -204zM1040 676v-676h-92q-88 -150 -88 -236t76 -86t174 70l45 -70q-119 -113 -256 -112q-186 0 -186 168q0 59 40 136t87 130v150q-135 -179 -400 -179q-164 0 -258 84
q-100 82 -100 215q0 180 141 275q127 90 365 96l237 6v43q0 221 -230 221t-265 -168l-215 19q66 327 485 325q440 2 440 -411z" />
    <glyph glyph-name="cid00201" unicode="&#x10f;" horiz-adv-x="1513" 
d="M305 535q0 -388 299 -388q137 0 219 113q68 98 68 260v19q0 170 -82 276q-78 96 -199 96q-161 1 -237 -108q-68 -92 -68 -268zM1503 1491l-49 -387h-166l2 387h213zM1102 1491v-1491h-203v127q-113 -156 -339 -156t-352 160t-126 400t121 391q129 166 358 165
q195 0 324 -186v590h217z" />
    <glyph glyph-name="cid00202" unicode="&#x111;" horiz-adv-x="1269" 
d="M305 535q0 -388 299 -388q137 0 219 113q68 98 68 260v19q0 170 -82 276q-78 96 -199 96q-161 1 -237 -108q-68 -92 -68 -268zM885 1331v160h217v-160h168v-127h-168v-1204h-203v127q-113 -156 -339 -156t-352 160t-126 400t121 391q129 166 358 165q195 0 324 -186v303
h-340v127h340z" />
    <glyph glyph-name="cid37802" unicode="&#x112;" horiz-adv-x="1312" 
d="M1194 1462v-190h-827v-426h778v-191h-778v-465h862v-190h-1086v1462h1051zM973 1757v-131h-633v131h633z" />
    <glyph glyph-name="cid00203" unicode="&#x113;" horiz-adv-x="1155" 
d="M383 838q-70 -74 -88 -205h571q-31 276 -288 276q-123 1 -195 -71zM568 -29q-224 0 -359 146q-147 155 -147 403t139 406q135 162 384 162t382 -177q125 -162 127 -442h-803q12 -158 86 -239q74 -80 194 -80t181 46t106 144h217q-39 -152 -145 -248q-138 -121 -362 -121z
M895 1393v-131h-633v131h633z" />
    <glyph glyph-name="cid00204" unicode="&#x115;" horiz-adv-x="1155" 
d="M383 838q-70 -74 -88 -205h571q-31 276 -288 276q-123 1 -195 -71zM568 -29q-224 0 -359 146q-147 155 -147 403t139 406q135 162 384 162t382 -177q125 -162 127 -442h-803q12 -158 86 -239q74 -80 194 -80t181 46t106 144h217q-39 -152 -145 -248q-138 -121 -362 -121z
M578 1321q170 0 202 147h113q-41 -268 -317 -268t-312 268h113q31 -147 201 -147z" />
    <glyph glyph-name="cid00205" unicode="&#x117;" horiz-adv-x="1155" 
d="M383 838q-70 -74 -88 -205h571q-31 276 -288 276q-123 1 -195 -71zM568 -29q-224 0 -359 146q-147 155 -147 403t139 406q135 162 384 162t382 -177q125 -162 127 -442h-803q12 -158 86 -239q74 -80 194 -80t181 46t106 144h217q-39 -152 -145 -248q-138 -121 -362 -121z
M686 1333q0 -45 -32 -77t-76 -32t-75 32q-32 32 -32 77t31 77q30 32 76 32t77 -32t31 -77z" />
    <glyph glyph-name="cid00206" unicode="&#x119;" horiz-adv-x="1155" 
d="M383 838q-70 -74 -88 -205h571q-31 276 -288 276q-123 1 -195 -71zM776 -322q82 0 176 70l45 -70q-117 -113 -256 -112q-186 0 -186 168q0 104 107 243q-37 -6 -82 -6q-236 0 -371 146q-147 155 -147 403t139 406q135 162 384 162t382 -177q125 -162 127 -442h-803
q12 -158 86 -239q74 -80 194 -80t181 46t106 144h217q-43 -182 -198 -289q-80 -51 -127 -131q-48 -72 -48 -157t74 -85z" />
    <glyph glyph-name="cid37803" unicode="&#x11a;" horiz-adv-x="1312" 
d="M1194 1462v-190h-827v-426h778v-191h-778v-465h862v-190h-1086v1462h1051zM487 1829l168 -166l172 166h138l-213 -260h-191l-211 260h137z" />
    <glyph glyph-name="cid00207" unicode="&#x11b;" horiz-adv-x="1155" 
d="M383 838q-70 -74 -88 -205h571q-31 276 -288 276q-123 1 -195 -71zM568 -29q-224 0 -359 146q-147 155 -147 403t139 406q135 162 384 162t382 -177q125 -162 127 -442h-803q12 -158 86 -239q74 -80 194 -80t181 46t106 144h217q-39 -152 -145 -248q-138 -121 -362 -121z
M408 1466l172 -166l168 166h137l-211 -260h-191l-213 260h138z" />
    <glyph glyph-name="cid00208" unicode="&#x11d;" horiz-adv-x="1226" 
d="M305 562q0 -359 291 -359q137 0 217 92q76 98 76 260t-76 260q-78 96 -218 96t-212 -96q-78 -90 -78 -253zM887 1059h217v-989q0 -504 -494 -504q-219 0 -338 84q-115 84 -145 260h217q18 -94 78 -133t188 -39q276 0 277 299v164q-117 -176 -328 -176t-344 143t-133 384
t133 386q131 150 344 150t328 -170v141zM717 1466l213 -260h-137l-170 166l-170 -166h-138l211 260h191z" />
    <glyph glyph-name="cid00209" unicode="&#x11f;" horiz-adv-x="1226" 
d="M305 562q0 -359 291 -359q137 0 217 92q76 98 76 260t-76 260q-78 96 -218 96t-212 -96q-78 -90 -78 -253zM887 1059h217v-989q0 -504 -494 -504q-219 0 -338 84q-115 84 -145 260h217q18 -94 78 -133t188 -39q276 0 277 299v164q-117 -176 -328 -176t-344 143t-133 384
t133 386q131 150 344 150t328 -170v141zM624 1321q169 0 201 147h113q-41 -268 -316 -268t-313 268h111q35 -147 204 -147z" />
    <glyph glyph-name="cid00210" unicode="&#x121;" horiz-adv-x="1226" 
d="M305 562q0 -359 291 -359q137 0 217 92q76 98 76 260t-76 260q-78 96 -218 96t-212 -96q-78 -90 -78 -253zM887 1059h217v-989q0 -504 -494 -504q-219 0 -338 84q-115 84 -145 260h217q18 -94 78 -133t188 -39q276 0 277 299v164q-117 -176 -328 -176t-344 143t-133 384
t133 386q131 150 344 150t328 -170v141zM707 1333q0 -45 -32 -77t-76 -32t-76 32t-31 77q0 45 30 77t77 32q46 0 77 -32t31 -77z" />
    <glyph glyph-name="cid00211" unicode="&#x123;" horiz-adv-x="1226" 
d="M305 562q0 -359 291 -359q137 0 217 92q76 98 76 260t-76 260q-78 96 -218 96t-212 -96q-78 -90 -78 -253zM887 1059h217v-989q0 -504 -494 -504q-219 0 -338 84q-115 84 -145 260h217q18 -94 78 -133t188 -39q276 0 277 299v164q-117 -176 -328 -176t-344 143t-133 384
t133 386q131 150 344 150t328 -170v141zM770 1559l-84 -379h-213l129 379h168z" />
    <glyph glyph-name="cid00212" unicode="&#x125;" horiz-adv-x="1171" 
d="M831 621q0 290 -243 288q-112 0 -180 -88t-68 -227v-594h-217v1491h217v-582q113 180 328 178q379 0 381 -430v-657h-218v621zM682 1829l211 -260h-137l-170 166l-170 -166h-137l210 260h193z" />
    <glyph glyph-name="cid00213" unicode="&#x126;" horiz-adv-x="1546" 
d="M391 846h766v268h-766v-268zM170 1241v221h221v-221h766v221h223v-221h156v-127h-156v-1114h-223v655h-766v-655h-221v1114h-160v127h160z" />
    <glyph glyph-name="cid00214" unicode="&#x127;" horiz-adv-x="1232" 
d="M893 621q0 290 -244 288q-113 0 -179 -83t-67 -232v-594h-217v1200h-176v127h176v164h217v-164h338v-127h-338v-291q113 180 328 178q379 0 379 -430v-657h-217v621z" />
    <glyph glyph-name="cid00215" unicode="&#x128;" horiz-adv-x="516" 
d="M369 1462v-1462h-222v1462h222zM399 1599q-57 0 -145 38t-130 38t-97 -69l-90 75q86 127 180 127q55 0 144 -39t127 -39t97 70l95 -78q-86 -123 -181 -123z" />
    <glyph glyph-name="cid00216" unicode="&#x129;" horiz-adv-x="555" 
d="M387 1059v-1059h-217v1059h217zM137 1440q62 0 148 -39t124 -39t97 70l94 -76q-88 -125 -180 -125q-58 0 -146 38t-129 38t-96 -70l-94 76q84 127 182 127z" />
    <glyph glyph-name="cid00217" unicode="&#x12b;" horiz-adv-x="555" 
d="M387 1059v-1059h-217v1059h217zM594 1393v-131h-633v131h633z" />
    <glyph glyph-name="cid00218" unicode="&#x12f;" horiz-adv-x="555" 
d="M387 1059v-1059h-59q-88 -150 -88 -236t76 -86t176 70l45 -70q-119 -113 -258 -112q-186 0 -187 168q0 59 41 135q35 78 86 131h-49v1059h217zM280 1483q66 0 108 -40q42 -41 42 -105t-43 -107q-47 -41 -109 -41t-106 42t-43 106q0 64 45 104q40 41 106 41z" />
    <glyph glyph-name="dotlessi" unicode="&#x131;" horiz-adv-x="555" 
d="M387 1059v-1059h-217v1059h217z" />
    <glyph glyph-name="cid00220" unicode="&#x132;" horiz-adv-x="1673" 
d="M1530 1462v-991q0 -244 -103 -369q-119 -131 -351 -131t-349 121q-115 121 -115 336v49h224v-47q0 -262 229 -262q125 0 184 76q57 76 58 235v983h223zM369 1462v-1462h-222v1462h222z" />
    <glyph glyph-name="cid00221" unicode="&#x133;" horiz-adv-x="1089" 
d="M920 1059v-1161q0 -303 -322 -304h-100v179h82q123 0 122 133v1153h218zM385 1059v-1059h-217v1059h217zM814 1483q66 0 107 -40q42 -41 42 -105t-43 -107q-48 -41 -108 -41t-105 42t-45 106t45 104q41 41 107 41zM127 1338q0 64 42 105q43 40 109 40t108 -40
q42 -39 42 -103t-45 -107t-107 -43t-106 41q-43 43 -43 107z" />
    <glyph glyph-name="cid00222" unicode="&#x135;" horiz-adv-x="561" 
d="M391 1059v-1161q0 -303 -321 -304h-101v179h82q123 0 123 133v1153h217zM369 1466l213 -260h-138l-172 166l-168 -166h-137l211 260h191z" />
    <glyph glyph-name="cid00223" unicode="&#x137;" horiz-adv-x="1120" 
d="M690 -53l-131 -379h-166l84 379h213zM340 1491v-868l459 436h280l-469 -436l510 -623h-278l-381 483l-121 -112v-371h-217v1491h217z" />
    <glyph glyph-name="cid00224" unicode="&#x138;" horiz-adv-x="1120" 
d="M340 1059v-436l459 436h280l-469 -436l510 -623h-278l-381 483l-121 -112v-371h-217v1059h217z" />
    <glyph glyph-name="cid00225" unicode="&#x13a;" horiz-adv-x="512" 
d="M365 1491v-1491h-218v1491h218zM565 1845l-291 -299h-143l195 299h239z" />
    <glyph glyph-name="cid00226" unicode="&#x13c;" horiz-adv-x="512" 
d="M362 -53l-129 -379h-165l82 379h212zM365 1491v-1491h-218v1491h218z" />
    <glyph glyph-name="cid00227" unicode="&#x13e;" horiz-adv-x="786" 
d="M774 1491l-49 -387h-166l2 387h213zM365 1491v-1491h-218v1491h218z" />
    <glyph glyph-name="cid00228" unicode="&#x140;" horiz-adv-x="808" 
d="M768 734q0 -46 -31 -77t-77 -31t-76 32q-30 30 -31 76q0 46 31 77q30 31 76 31t77 -31t31 -77zM365 1491v-1491h-218v1491h218z" />
    <glyph glyph-name="cid00229" unicode="&#x142;" horiz-adv-x="684" 
d="M451 1491v-639l176 82l57 -115l-233 -108v-711h-218v608l-180 -84l-53 115l233 111v741h218z" />
    <glyph glyph-name="cid00230" unicode="&#x144;" horiz-adv-x="1179" 
d="M1055 653v-653h-217v635q0 270 -248 270q-96 -1 -167 -71t-83 -197v-637h-217v1059h217v-131q122 161 319 159q396 0 396 -434zM856 1479l-291 -299h-143l194 299h240z" />
    <glyph glyph-name="cid00231" unicode="&#x146;" horiz-adv-x="1179" 
d="M700 -53l-129 -379h-165l81 379h213zM1055 653v-653h-217v635q0 270 -248 270q-96 -1 -167 -71t-83 -197v-637h-217v1059h217v-131q122 161 319 159q396 0 396 -434z" />
    <glyph glyph-name="cid00232" unicode="&#x148;" horiz-adv-x="1179" 
d="M1055 653v-653h-217v635q0 270 -248 270q-96 -1 -167 -71t-83 -197v-637h-217v1059h217v-131q122 161 319 159q396 0 396 -434zM426 1466l168 -166l172 166h137l-213 -260h-190l-211 260h137z" />
    <glyph glyph-name="cid00233" unicode="&#x149;" horiz-adv-x="1378" 
d="M1255 653v-653h-217v635q0 270 -247 270q-96 -1 -167 -71t-83 -197v-637h-217v1059h217v-131q123 161 317 159q397 0 397 -434zM256 1491l-49 -387h-166l2 387h213z" />
    <glyph glyph-name="cid00234" unicode="&#x14a;" horiz-adv-x="1490" 
d="M1122 379v1083h226v-1564q0 -303 -326 -304h-127v179h109q119 0 118 133v104l-749 1090h-6v-1100h-224v1462h226l747 -1083h6z" />
    <glyph glyph-name="cid00235" unicode="&#x14b;" horiz-adv-x="1179" 
d="M1055 653v-755q0 -303 -322 -304h-100v179h82q123 0 123 133v729q0 270 -248 270q-96 -1 -167 -71t-83 -197v-637h-217v1059h217v-131q122 161 319 159q396 0 396 -434z" />
    <glyph glyph-name="cid37804" unicode="&#x14c;" horiz-adv-x="1583" 
d="M1276 729q0 260 -125 413t-361 153t-360 -154q-125 -154 -125 -410q0 -255 127 -409q128 -154 360 -154t358 150t126 411zM788 1491q336 0 524 -211t189 -548q-1 -337 -189 -549t-522 -212t-520 212q-188 212 -188 547t182 542q188 219 524 219zM1108 1757v-131h-631v131
h631z" />
    <glyph glyph-name="cid00413" unicode="&#x14d;" horiz-adv-x="1222" 
d="M307 530q0 -172 82 -276t222 -104t223 104q82 106 82 276t-82 277q-82 102 -224 102t-223 -102q-80 -105 -80 -277zM610 -29q-242 0 -387 164q-141 155 -141 395t141 394q145 164 388 164t385 -160t142 -399t-142 -399q-144 -160 -386 -159zM928 1393v-131h-633v131h633z
" />
    <glyph glyph-name="cid00236" unicode="&#x152;" 
d="M662 1294q-205 0 -316 -154q-110 -154 -110 -409q0 -256 106 -407q115 -156 320 -156q244 0 348 194v736q-104 196 -348 196zM1972 1462v-190h-739v-426h690v-191h-690v-465h774v-190h-997v78q-150 -106 -348 -107q-293 0 -458 212t-165 547t162 542q164 219 461 219
q201 0 348 -105v76h962z" />
    <glyph glyph-name="cid00237" unicode="&#x153;" horiz-adv-x="1916" 
d="M1348 909q-226 2 -263 -276h523q-31 276 -260 276zM850 531q0 173 -72 275t-200 103q-128 0 -201 -100q-72 -99 -72 -277t73 -280t200 -102t200 102q72 106 72 279zM1340 -29q-210 0 -345 146q-25 29 -34 43q-2 -2 -21 -27q-139 -162 -363 -162q-223 0 -359 158
q-136 159 -136 399t135 400t361 160t362 -162l23 -29q10 16 20 27q133 164 371 164t364 -177q115 -156 117 -442h-754q12 -156 81 -238q70 -81 182 -81t162 45t93 145h220q-37 -150 -138 -248q-131 -121 -341 -121z" />
    <glyph glyph-name="cid00238" unicode="&#x166;" horiz-adv-x="1261" 
d="M1229 1462v-190h-488v-533h287v-127h-287v-612h-221v612h-289v127h289v533h-489v190h1198z" />
    <glyph glyph-name="cid00239" unicode="&#x168;" horiz-adv-x="1492" 
d="M367 1462v-909q0 -199 91 -293t289 -94t289 96q90 96 90 291v909h224v-905q0 -285 -158 -436q-160 -150 -448 -150t-444 151q-157 151 -157 435v905h224zM889 1599q-57 0 -145 38t-131 38q-42 0 -97 -69l-92 75q86 127 182 127q56 0 145 -39t127 -39t97 70l94 -78
q-86 -123 -180 -123z" />
    <glyph glyph-name="cid00240" unicode="&#x169;" horiz-adv-x="1181" 
d="M340 1059v-645q0 -136 57 -198t183 -62q82 0 157 69q74 72 103 189v647h217v-1059h-217v143q-135 -172 -334 -172q-383 0 -383 428v660h217zM451 1440q59 0 146 -39t125 -39t97 70l94 -76q-88 -125 -180 -125q-59 0 -146 38t-129 38t-98 -70l-92 76q84 127 183 127z" />
    <glyph glyph-name="cid00241" unicode="&#x16a;" horiz-adv-x="1492" 
d="M367 1462v-909q0 -199 91 -293t289 -94t289 96q90 96 90 291v909h224v-905q0 -285 -158 -436q-160 -150 -448 -150t-444 151q-157 151 -157 435v905h224zM1063 1757v-131h-633v131h633z" />
    <glyph glyph-name="cid00242" unicode="&#x16b;" horiz-adv-x="1181" 
d="M340 1059v-645q0 -136 57 -198t183 -62q82 0 157 69q74 72 103 189v647h217v-1059h-217v143q-135 -172 -334 -172q-383 0 -383 428v660h217zM907 1393v-131h-633v131h633z" />
    <glyph glyph-name="cid00243" unicode="&#x16c;" horiz-adv-x="1492" 
d="M367 1462v-909q0 -199 91 -293t289 -94t289 96q90 96 90 291v909h224v-905q0 -285 -158 -436q-160 -150 -448 -150t-444 151q-157 151 -157 435v905h224zM744 1563q-276 0 -312 268h113q31 -147 201 -147t202 147h113q-41 -268 -317 -268z" />
    <glyph glyph-name="cid00244" unicode="&#x16d;" horiz-adv-x="1181" 
d="M340 1059v-645q0 -136 57 -198t183 -62q82 0 157 69q74 72 103 189v647h217v-1059h-217v143q-135 -172 -334 -172q-383 0 -383 428v660h217zM590 1321q170 0 203 147h112q-41 -268 -316 -268t-313 268h113q31 -147 201 -147z" />
    <glyph glyph-name="cid00245" unicode="&#x16e;" horiz-adv-x="1492" 
d="M367 1462v-909q0 -199 91 -293t289 -94t289 96q90 96 90 291v909h224v-905q0 -285 -158 -436q-160 -150 -448 -150t-444 151q-157 151 -157 435v905h224zM651 1692q0 -42 29 -70q25 -29 64 -29t71 29q27 31 27 70t-27 65q-33 27 -71 27t-64 -27q-29 -23 -29 -65z
M746 1868q70 0 126 -51q54 -57 54 -127t-54 -127q-56 -51 -126 -51t-125 51q-53 53 -54 127q0 74 54 127q55 51 125 51z" />
    <glyph glyph-name="cid00246" unicode="&#x16f;" horiz-adv-x="1181" 
d="M340 1059v-645q0 -136 57 -198t183 -62q82 0 157 69q74 72 103 189v647h217v-1059h-217v143q-135 -172 -334 -172q-383 0 -383 428v660h217zM590 1239q40 0 68 29q28 30 28 70t-28 66t-68 26t-68 -26q-26 -26 -26 -68t28 -70t66 -27zM590 1513q74 0 127 -52t53 -124
t-53 -129q-57 -51 -127 -51t-125 51q-53 53 -53 128t52 126t126 51z" />
    <glyph glyph-name="cid00247" unicode="&#x170;" horiz-adv-x="1492" 
d="M367 1462v-909q0 -199 91 -293t289 -94t289 96q90 96 90 291v909h224v-905q0 -285 -158 -436q-160 -150 -448 -150t-444 151q-157 151 -157 435v905h224zM1245 1845l-266 -299h-141l168 299h239zM838 1845l-267 -299h-141l168 299h240z" />
    <glyph glyph-name="cid00248" unicode="&#x171;" horiz-adv-x="1181" 
d="M340 1059v-645q0 -136 57 -198t183 -62q82 0 157 69q74 72 103 189v647h217v-1059h-217v143q-135 -172 -334 -172q-383 0 -383 428v660h217zM1110 1479l-268 -299h-142l170 299h240zM702 1479l-268 -299h-141l170 299h239z" />
    <glyph glyph-name="cid00249" unicode="&#x172;" horiz-adv-x="1492" 
d="M367 1462v-909q0 -199 91 -293t289 -94t289 96q90 96 90 291v909h224v-905q0 -285 -150 -427t-391 -157q-74 -135 -74 -215t76 -80t174 70l45 -70q-119 -113 -256 -112q-186 0 -186 168q0 52 34 124t68 115q-250 12 -387 146q-160 154 -160 438v905h224z" />
    <glyph glyph-name="cid00250" unicode="&#x173;" horiz-adv-x="1181" 
d="M340 1059v-645q0 -136 57 -198t183 -62q82 0 157 69q74 72 103 189v647h217v-1059h-109q-88 -150 -88 -236t74 -86q82 0 176 70l45 -70q-117 -113 -256 -112q-186 0 -186 168q0 55 37 132t90 136v141q-135 -172 -334 -172q-383 0 -383 428v660h217z" />
    <glyph glyph-name="cid00251" unicode="&#x174;" horiz-adv-x="1941" 
d="M262 1462l285 -1138h8l299 1138h233l299 -1138h9l284 1138h252l-422 -1462h-237l-297 1128h-8l-297 -1128h-240l-420 1462h252zM1065 1829l213 -260h-137l-172 166l-168 -166h-137l210 260h191z" />
    <glyph glyph-name="cid00252" unicode="&#x175;" horiz-adv-x="1581" 
d="M250 1059l223 -801l217 801h201l217 -801l223 801h240l-359 -1059h-200l-221 793l-222 -793h-200l-359 1059h240zM887 1466l211 -260h-137l-173 166l-167 -166h-138l211 260h193z" />
    <glyph glyph-name="cid00253" unicode="&#x176;" horiz-adv-x="1400" 
d="M811 0h-221v584l-580 878h269l421 -669l422 669h269l-580 -878v-584zM797 1829l211 -260h-138l-170 166l-170 -166h-137l211 260h193z" />
    <glyph glyph-name="cid00254" unicode="&#x177;" horiz-adv-x="1062" 
d="M246 1059l291 -772l278 772h238l-576 -1465h-231l184 431l-420 1034h236zM627 1466l213 -260h-138l-172 166l-168 -166h-137l211 260h191z" />
    <glyph glyph-name="cid00255" unicode="&#x178;" horiz-adv-x="1400" 
d="M811 0h-221v584l-580 878h269l421 -669l422 669h269l-580 -878v-584zM1004 1692q0 -46 -31 -76q-31 -31 -77 -31t-77 31t-31 77q0 47 31 77t77 30t77 -31t31 -77zM505 1585q-46 0 -77 31t-31 77q0 47 31 77t77 30t77 -31q30 -31 30 -77t-30 -76q-30 -31 -77 -31z" />
    <glyph glyph-name="cid00256" unicode="&#x179;" horiz-adv-x="1300" 
d="M1200 1462v-178l-858 -1094h907v-190h-1198v176l860 1096h-798v190h1087zM930 1845l-291 -299h-143l194 299h240z" />
    <glyph glyph-name="cid00257" unicode="&#x17a;" horiz-adv-x="1028" 
d="M944 1059v-141l-608 -740h641v-178h-926v150l600 731h-579v178h872zM797 1479l-291 -299h-144l195 299h240z" />
    <glyph glyph-name="cid00258" unicode="&#x17b;" horiz-adv-x="1300" 
d="M1200 1462v-178l-858 -1094h907v-190h-1198v176l860 1096h-798v190h1087zM650 1800q44 0 77 -31t33 -77t-32 -76q-32 -31 -77 -31t-76 31t-31 77q0 47 32 77q30 30 74 30z" />
    <glyph glyph-name="cid00259" unicode="&#x17c;" horiz-adv-x="1028" 
d="M944 1059v-141l-608 -740h641v-178h-926v150l600 731h-579v178h872zM621 1333q0 -45 -32 -77t-76 -32t-76 32t-31 77q0 45 30 77t77 32q46 0 77 -32t31 -77z" />
    <glyph glyph-name="cid00260" unicode="&#x17d;" horiz-adv-x="1300" 
d="M1200 1462v-178l-858 -1094h907v-190h-1198v176l860 1096h-798v190h1087zM481 1829l168 -170l172 170h137l-213 -260h-190l-211 260h137z" />
    <glyph glyph-name="cid00261" unicode="&#x17e;" horiz-adv-x="1028" 
d="M944 1059v-141l-608 -740h641v-178h-926v150l600 731h-579v178h872zM344 1466l170 -166l170 166h137l-211 -260h-190l-213 260h137z" />
    <glyph glyph-name="cid00262" unicode="&#x17f;" horiz-adv-x="772" 
d="M571 1278q-102 0 -102 -111v-1167h-215v881h-244v178h244v115q0 137 74 210q72 78 213 78h221v-184h-191z" />
    <glyph glyph-name="uni018F" unicode="&#x18f;" horiz-adv-x="1505" 
d="M727 168q250 0 371 164q76 106 96 270h-895q10 -194 121 -314t307 -120zM731 1491q349 0 531 -231q162 -205 162 -533t-158 -526q-182 -229 -541 -230q-311 0 -485 217q-158 195 -158 490v115h1116q-12 207 -106 340q-123 162 -357 161q-340 0 -407 -290h-219
q37 221 192 352q166 135 430 135z" />
    <glyph glyph-name="cid00264" unicode="&#x192;" horiz-adv-x="1173" 
d="M930 1278q-53 0 -80 -27q-35 -25 -41 -84l-18 -108h276l-31 -178h-276l-176 -998q-25 -131 -113 -211q-90 -78 -227 -78h-224l33 185h193q49 0 82 26q29 29 41 84l174 992h-244l31 178h243l21 115q25 139 113 210q84 78 227 78h219l-33 -184h-190z" />
    <glyph glyph-name="cid00265" unicode="&#x1a0;" horiz-adv-x="1646" 
d="M1276 729q0 260 -125 413t-361 153t-360 -154q-125 -154 -125 -410q0 -255 127 -409q128 -154 360 -154t358 150t126 411zM1604 1690v-177q0 -117 -62 -184q-63 -63 -166 -63h-55q180 -211 180 -541q-1 -330 -189 -542t-522 -212t-520 212q-188 212 -188 547t182 542
q188 219 527 219q139 0 271 -42t171 -42h47q137 0 137 123v160h187z" />
    <glyph glyph-name="cid00266" unicode="&#x1a1;" horiz-adv-x="1284" 
d="M305 530q0 -164 72 -262q84 -118 232 -118t237 118q74 104 74 263t-74 260q-86 119 -236 119t-233 -119q-72 -97 -72 -261zM1243 1317v-180q0 -113 -53 -183q-51 -57 -121 -57h-33l-6 -10q109 -145 109 -373t-146 -386q-145 -158 -383 -157q-238 0 -383 158
q-145 159 -145 401t143 400t385 157q86 1 198 -25t144 -26q104 0 105 150v131h186z" />
    <glyph glyph-name="uni01A2" unicode="&#x1a2;" horiz-adv-x="1970" 
d="M732 168q206 0 319 156q104 152 104 408q-1 256 -109 410q-108 153 -318 153t-318 -158q-104 -147 -104 -405t109 -412q111 -152 317 -152zM1823 1436v-1842h-224v1571q-74 -59 -266 -127q45 -141 45 -309q0 -330 -170 -541q-180 -217 -480 -217t-473 212t-173 547
t170 542q176 219 479 219q332 0 512 -264q273 78 412 209h168z" />
    <glyph glyph-name="uni01A3" unicode="&#x1a3;" horiz-adv-x="1705" 
d="M612 150q138 0 222 105t84 274t-84 275t-224 105q-140 0 -222 -103q-83 -102 -83 -276t84 -277t223 -103zM1561 1001v-1407h-215v1149q-76 -57 -213 -110q6 -49 6 -105q1 -238 -143 -398t-386 -159q-242 0 -387 164q-141 155 -141 395t143 399t386 159t388 -164
q45 -51 74 -107q215 76 326 184h162z" />
    <glyph glyph-name="cid00269" unicode="&#x1af;" horiz-adv-x="1701" 
d="M1659 1716v-149q0 -260 -242 -260h-69v-750q0 -285 -156 -436q-162 -150 -450 -150t-444 150t-155 436v905h222v-909q0 -199 91 -293q90 -94 288 -94t290 96q90 96 90 291v909h224q125 0 125 123v131h186z" />
    <glyph glyph-name="cid00270" unicode="&#x1b0;" horiz-adv-x="1378" 
d="M1335 1313v-150q0 -260 -239 -260h-39v-903h-217v143q-135 -172 -334 -172q-383 0 -383 428v660h217v-645q0 -136 57 -198t183 -62q82 0 157 69q74 72 103 189v647h188q121 0 121 123v131h186z" />
    <glyph glyph-name="uni01CD" unicode="&#x1cd;" horiz-adv-x="1380" 
d="M936 561l-242 662h-8l-244 -662h494zM817 1462l563 -1462h-239l-137 377h-629l-137 -377h-238l563 1462h254zM520 1829l170 -166l170 166h137l-213 -260h-190l-211 260h137z" />
    <glyph glyph-name="uni01CE" unicode="&#x1ce;" horiz-adv-x="1165" 
d="M305 279q0 -61 51 -101t133 -41q135 0 236 84q100 84 100 207v61l-223 -6q-297 -6 -297 -204zM1040 676v-676h-200v150q-135 -179 -400 -179q-164 0 -258 84q-100 82 -100 215q0 180 141 275q127 90 365 96l237 6v43q0 221 -230 221t-265 -168l-215 19q66 327 485 325
q440 2 440 -411zM420 1466l168 -166l172 166h137l-213 -260h-190l-224 260h150z" />
    <glyph glyph-name="uni01D0" unicode="&#x1d0;" horiz-adv-x="555" 
d="M387 1059v-1059h-217v1059h217zM106 1466l170 -166l170 166h138l-211 -260h-191l-213 260h137z" />
    <glyph glyph-name="uni01D1" unicode="&#x1d1;" horiz-adv-x="1583" 
d="M1276 729q0 260 -125 413t-361 153t-360 -154q-125 -154 -125 -410q0 -255 127 -409q128 -154 360 -154t358 150t126 411zM788 1491q336 0 524 -211t189 -548q-1 -337 -189 -549t-522 -212t-520 212q-188 212 -188 547t182 542q188 219 524 219zM623 1829l170 -166
l168 166h137l-211 -260h-191l-211 260h138z" />
    <glyph glyph-name="uni01D2" unicode="&#x1d2;" horiz-adv-x="1222" 
d="M307 530q0 -172 82 -276t222 -104t223 104q82 106 82 276t-82 277q-82 102 -224 102t-223 -102q-80 -105 -80 -277zM610 -29q-242 0 -387 164q-141 155 -141 395t141 394q145 164 388 164t385 -160t142 -399t-142 -399q-144 -160 -386 -159zM442 1466l168 -166l172 166
h138l-213 -260h-191l-211 260h137z" />
    <glyph glyph-name="uni01D4" unicode="&#x1d4;" horiz-adv-x="1181" 
d="M340 1059v-645q0 -136 57 -198t183 -62q82 0 157 69q74 72 103 189v647h217v-1059h-217v143q-135 -172 -334 -172q-383 0 -383 428v660h217zM422 1466l168 -166l172 166h137l-213 -260h-190l-211 260h137z" />
    <glyph glyph-name="uni01D6" unicode="&#x1d6;" horiz-adv-x="1181" 
d="M340 1059v-645q0 -136 57 -198t183 -62q82 0 157 69q74 72 103 189v647h217v-1059h-217v143q-135 -172 -334 -172q-383 0 -383 428v660h217zM895 1301q0 -47 -31 -77t-77 -30q-47 0 -77 31t-30 77t31 76q31 31 77 31t76 -31q31 -31 31 -77zM395 1409q45 0 77 -31t32 -77
q0 -47 -31 -77t-77 -30t-77 31t-31 77t31 76q31 31 76 31zM907 1681v-131h-633v131h633z" />
    <glyph glyph-name="uni01D8" unicode="&#x1d8;" horiz-adv-x="1181" 
d="M340 1059v-645q0 -136 57 -198t183 -62q82 0 157 69q74 72 103 189v647h217v-1059h-217v143q-135 -172 -334 -172q-383 0 -383 428v660h217zM895 1301q0 -47 -31 -77t-77 -30q-47 0 -77 31t-30 77t31 76q31 31 77 31t76 -31q31 -31 31 -77zM395 1409q45 0 77 -31t32 -77
q0 -47 -31 -77t-77 -30t-77 31t-31 77t31 76q31 31 76 31zM915 1778l-292 -299h-142l195 299h239z" />
    <glyph glyph-name="uni01DA" unicode="&#x1da;" horiz-adv-x="1181" 
d="M340 1059v-645q0 -136 57 -198t183 -62q82 0 157 69q74 72 103 189v647h217v-1059h-217v143q-135 -172 -334 -172q-383 0 -383 428v660h217zM895 1301q0 -47 -31 -77t-77 -30q-47 0 -77 31t-30 77t31 76q31 31 77 31t76 -31q31 -31 31 -77zM395 1409q45 0 77 -31t32 -77
q0 -47 -31 -77t-77 -30t-77 31t-31 77t31 76q31 31 76 31zM420 1763l170 -166l170 166h137l-211 -260h-192l-211 260h137z" />
    <glyph glyph-name="uni01DC" unicode="&#x1dc;" horiz-adv-x="1181" 
d="M340 1059v-645q0 -136 57 -198t183 -62q82 0 157 69q74 72 103 189v647h217v-1059h-217v143q-135 -172 -334 -172q-383 0 -383 428v660h217zM895 1301q0 -47 -31 -77t-77 -30q-47 0 -77 31t-30 77t31 76q31 31 77 31t76 -31q31 -31 31 -77zM395 1409q45 0 77 -31t32 -77
q0 -47 -31 -77t-77 -30t-77 31t-31 77t31 76q31 31 76 31zM508 1778l194 -299h-143l-291 299h240z" />
    <glyph glyph-name="uni01F9" unicode="&#x1f9;" horiz-adv-x="1179" 
d="M1055 653v-653h-217v635q0 270 -248 270q-96 -1 -167 -71t-83 -197v-637h-217v1059h217v-131q122 161 319 159q396 0 396 -434zM573 1479l195 -299h-143l-291 299h239z" />
    <glyph glyph-name="uni021B" unicode="&#x21b;" horiz-adv-x="737" 
d="M520 -53l-129 -379h-168l84 379h213zM485 0q-256 0 -258 264v615h-196v180h196v252l217 90v-342h242v-180h-242v-615q0 -82 76 -84h139v-180h-174z" />
    <glyph glyph-name="uni0237" unicode="&#x237;" horiz-adv-x="561" 
d="M391 1059v-1161q0 -303 -321 -304h-101v179h82q123 0 123 133v1153h217z" />
    <glyph glyph-name="uni0250" unicode="&#x250;" horiz-adv-x="1165" 
d="M299 631v-62l223 6q297 10 297 205q0 62 -51 102t-133 40q-144 0 -234 -82q-102 -82 -102 -209zM1040 788q0 -176 -136 -270t-367 -100l-238 -6v-43q0 -221 240 -222q217 0 256 168l215 -18q-72 -326 -486 -326q-234 1 -338 111t-104 301v676h203v-150q129 178 399 178
q164 1 260 -81t96 -218z" />
    <glyph glyph-name="uni0251" unicode="&#x251;" horiz-adv-x="1280" 
d="M305 524q0 -176 70 -270q76 -106 224 -106t222 102q74 104 74 279t-76 276q-74 107 -220 107t-224 -117q-70 -95 -70 -271zM1110 1059v-821q0 -94 66 -95q10 0 65 11l19 -154q-90 -29 -170 -29t-126 48q-48 48 -55 122v19h-6q-115 -188 -330 -189q-244 0 -372 170
q-119 151 -119 393t131 394q129 160 353 160t337 -173h8l41 144h158z" />
    <glyph glyph-name="uni0254" unicode="&#x254;" horiz-adv-x="1142" 
d="M1079 527q0 -241 -127 -396q-140 -160 -364 -160q-224 1 -346 105t-160 315h215q31 -242 272 -241q137 0 215 100q72 102 72 280t-76 279q-80 100 -213 100q-229 0 -264 -209h-215q60 387 479 387q246 1 379 -159t133 -401z" />
    <glyph glyph-name="uni0259" unicode="&#x259;" horiz-adv-x="1155" 
d="M580 150q119 0 192 73q66 70 88 203h-571q29 -276 291 -276zM570 -29q-246 0 -378 169t-131 450h803q-12 156 -85 238t-197 81q-124 0 -184 -49q-62 -49 -101 -141h-217q32 147 156 258t348 111t362 -146q148 -150 148 -398t-138 -411q-140 -162 -386 -162z" />
    <glyph glyph-name="uni025B" unicode="&#x25b;" horiz-adv-x="1101" 
d="M342 774q0 -59 51 -100t137 -41h103v-158h-96q-230 0 -232 -162q0 -80 64 -129q65 -49 179 -49t171 49t78 158h221q-16 -174 -137 -274q-125 -96 -335 -96t-337 94t-127 237q0 205 213 260q-176 80 -176 232q-1 127 113 209t316 83q202 0 319 -90q116 -90 141 -249h-224
q-18 76 -59 116q-59 59 -172 60q-211 0 -211 -150z" />
    <glyph glyph-name="uni0261" unicode="&#x261;" horiz-adv-x="1226" 
d="M305 562q0 -359 291 -359q137 0 217 92q76 98 76 260t-76 260q-78 96 -218 96t-212 -96q-78 -90 -78 -253zM887 1059h217v-989q0 -504 -494 -504q-219 0 -338 84q-115 84 -145 260h217q18 -94 78 -133t188 -39q276 0 277 299v164q-117 -176 -328 -176t-344 143t-133 384
t133 386q131 150 344 150t328 -170v141z" />
    <glyph glyph-name="uni026A" unicode="&#x26a;" horiz-adv-x="555" 
d="M387 1059v-1059h-217v1059h217z" />
    <glyph glyph-name="uni0275" unicode="&#x275;" horiz-adv-x="1222" 
d="M311 440q12 -96 66 -172q84 -118 232 -118t237 118q49 74 67 172h-602zM610 910q-150 0 -233 -119q-53 -72 -66 -173h602q-18 102 -67 173q-86 119 -236 119zM610 -29q-238 0 -383 158q-145 159 -145 401t143 400t384 158t385 -160t144 -401t-145 -399t-383 -157z" />
    <glyph glyph-name="uni0283" unicode="&#x283;" horiz-adv-x="925" 
d="M560 1509q-79 1 -79 -155t73 -602t73 -582q0 -138 -58 -246q-74 -127 -217 -127q-233 0 -270 297h186q16 -129 96 -129t80 152q0 90 -28 313l-92 582q-27 188 -27 278q0 160 59 260q72 127 217 127q232 0 269 -297h-185q-18 129 -97 129z" />
    <glyph glyph-name="uni028A" unicode="&#x28a;" horiz-adv-x="1214" 
d="M545 1059v-176q-240 -76 -240 -406q0 -155 86 -241t216 -86t218 88q84 88 84 239q0 330 -239 406v176h460v-178h-190q86 -65 139 -177t54 -243q0 -199 -138 -342q-149 -147 -389 -147t-382 142q-142 144 -142 347q0 137 53 244q49 111 139 176h-190v178h461z" />
    <glyph glyph-name="uni02BB" unicode="&#x2bb;" horiz-adv-x="1024" 
d="M546 1354q50 0 94 -44t44 -110t-45 -110q-49 -43 -125 -43t-125 67q-51 63 -51 166q0 160 90 274q90 119 246 158v-127q-84 -27 -138 -97t-53 -142q13 8 63 8z" />
    <glyph glyph-name="uni02BC" unicode="&#x2bc;" horiz-adv-x="1024" 
d="M686 1479q0 -154 -90 -271t-246 -159v127q80 28 135 96t56 143q-25 -8 -49 -8q-60 0 -106 44t-46 111q0 68 46 110t122 42t127 -66q51 -67 51 -169z" />
    <glyph glyph-name="cid00276" unicode="&#x2c6;" horiz-adv-x="1024" 
d="M608 1829l211 -260h-137l-170 166l-168 -166h-137l211 260h190z" />
    <glyph glyph-name="cid00277" unicode="&#x2c7;" horiz-adv-x="1024" 
d="M344 1829l168 -170l170 170h137l-211 -260h-190l-211 260h137z" />
    <glyph glyph-name="uni02C9" unicode="&#x2c9;" horiz-adv-x="1024" 
d="M827 1757v-131h-630v131h630z" />
    <glyph glyph-name="uni02CA" unicode="&#x2ca;" horiz-adv-x="1024" 
d="M729 1845l-291 -299h-143l194 299h240z" />
    <glyph glyph-name="uni02CB" unicode="&#x2cb;" horiz-adv-x="1024" 
d="M535 1845l194 -299h-143l-291 299h240z" />
    <glyph glyph-name="uni02CD" unicode="&#x2cd;" horiz-adv-x="1024" 
d="M840 -106v-181h-656v181h656z" />
    <glyph glyph-name="cid00279" unicode="&#x2d8;" horiz-adv-x="1024" 
d="M512 1563q-276 0 -313 268h110q31 -147 202 -147t204 147h110q-37 -268 -313 -268z" />
    <glyph glyph-name="cid00280" unicode="&#x2d9;" horiz-adv-x="1024" 
d="M512 1800q45 0 77 -32t32 -76t-32 -75q-32 -32 -77 -32t-77 31t-32 77q0 47 32 77t77 30z" />
    <glyph glyph-name="cid00281" unicode="&#x2da;" horiz-adv-x="1024" 
d="M510 1784q-39 0 -66 -26q-26 -26 -26 -68t26 -69q26 -28 66 -28q41 0 70 29q28 29 28 70q0 40 -30 66t-68 26zM690 1690q0 -70 -51 -127q-57 -51 -128 -51t-126 51q-51 53 -51 127t51 127q55 51 126 51t128 -51q51 -57 51 -127z" />
    <glyph glyph-name="cid00282" unicode="&#x2db;" horiz-adv-x="1024" 
d="M438 -237q0 -85 77 -85t175 70l45 -70q-119 -113 -258 -112q-186 0 -186 168q0 53 39 133t92 139h108q-92 -158 -92 -243z" />
    <glyph glyph-name="cid00283" unicode="&#x2dc;" horiz-adv-x="1024" 
d="M642 1731q40 0 97 69l95 -78q-82 -123 -179 -123q-59 0 -145 39t-128 39t-99 -71l-93 75q86 129 181 129q55 1 143 -39t128 -40z" />
    <glyph glyph-name="cid00284" unicode="&#x2dd;" horiz-adv-x="1024" 
d="M920 1845l-267 -299h-141l168 299h240zM512 1845l-268 -299h-140l168 299h240z" />
    <glyph glyph-name="uni02EE" unicode="&#x2ee;" horiz-adv-x="1024" 
d="M729 1407q-61 0 -105 44t-44 111q0 68 44 110t122 42t128 -66q51 -67 52 -169q0 -156 -91 -272t-245 -158v127q78 27 135 96q55 72 55 143q-25 -8 -51 -8zM254 1407q-62 0 -106 44t-44 111q0 68 44 110t122 42t129 -66q51 -67 52 -169q1 -156 -91 -272t-247 -158v127
q82 29 137 96q53 68 53 143q-20 -8 -49 -8z" />
    <glyph glyph-name="cid00286" unicode="&#x300;" horiz-adv-x="0" 
d="M-489 1479l194 -299h-143l-291 299h240z" />
    <glyph glyph-name="cid00287" unicode="&#x301;" horiz-adv-x="0" 
d="M-295 1479l-291 -299h-143l194 299h240z" />
    <glyph glyph-name="uni0302" unicode="&#x302;" horiz-adv-x="0" 
d="M-416 1466l211 -260h-137l-170 166l-168 -166h-137l211 260h190z" />
    <glyph glyph-name="cid00289" unicode="&#x303;" horiz-adv-x="0" 
d="M-653 1440q61 0 147 -39t125 -39t96 70l95 -76q-84 -125 -179 -125q-59 0 -146 38t-129 38t-97 -70l-93 76q84 127 181 127z" />
    <glyph glyph-name="uni0304" unicode="&#x304;" horiz-adv-x="0" 
d="M-197 1393v-131h-630v131h630z" />
    <glyph glyph-name="uni0306" unicode="&#x306;" horiz-adv-x="0" 
d="M-514 1321q170 0 205 147h110q-37 -268 -313 -268t-313 268h110q31 -147 201 -147z" />
    <glyph glyph-name="uni0307" unicode="&#x307;" horiz-adv-x="0" 
d="M-403 1333q0 -43 -33 -76t-76 -33t-76 32t-33 77t32 77t77 32t77 -33t32 -76z" />
    <glyph glyph-name="uni0308" unicode="&#x308;" horiz-adv-x="0" 
d="M-207 1333q0 -43 -33 -76q-34 -33 -76 -33t-75 32t-33 77t32 77t76 32t77 -33q32 -33 32 -76zM-600 1333q0 -43 -33 -76t-76 -33t-75 32t-33 77q0 45 32 77q33 32 77 32t76 -33t32 -76z" />
    <glyph glyph-name="cid00294" unicode="&#x309;" horiz-adv-x="0" 
d="M-309 1358q0 -125 -201 -203l-57 59q147 74 147 142t-121 67q-84 0 -172 -43v101q90 33 185 32q219 1 219 -155z" />
    <glyph glyph-name="uni030A" unicode="&#x30a;" horiz-adv-x="0" 
d="M-513 1430q-42 0 -68 -26q-25 -26 -25 -68t26 -70t66 -27q41 0 70 29q28 30 28 70t-28 66t-69 26zM-334 1336q0 -71 -51 -128q-57 -51 -128 -51t-126 51q-51 53 -51 128t51 126t126 51t128 -51q51 -55 51 -126z" />
    <glyph glyph-name="uni030B" unicode="&#x30b;" horiz-adv-x="0" 
d="M-104 1479l-267 -299h-141l168 299h240zM-512 1479l-268 -299h-140l168 299h240z" />
    <glyph glyph-name="uni030C" unicode="&#x30c;" horiz-adv-x="0" 
d="M-680 1466l168 -166l170 166h137l-211 -260h-190l-211 260h137z" />
    <glyph glyph-name="uni030F" unicode="&#x30f;" horiz-adv-x="0" 
d="M-272 1479l168 -299h-140l-268 299h240zM-680 1479l168 -299h-141l-267 299h240z" />
    <glyph glyph-name="uni0311" unicode="&#x311;" horiz-adv-x="0" 
d="M-512 1468q276 0 313 -268h-110q-35 148 -205 148t-201 -148h-110q37 268 313 268z" />
    <glyph glyph-name="uni031B" unicode="&#x31b;" horiz-adv-x="0" 
d="M-365 1559l-129 -379h-165l81 379h213z" />
    <glyph glyph-name="cid00301" unicode="&#x323;" horiz-adv-x="0" 
d="M-512 -133q45 0 77 -32t32 -76q0 -43 -32 -75t-77 -32t-77 31t-32 77t32 76q32 31 77 31z" />
    <glyph glyph-name="uni0324" unicode="&#x324;" horiz-adv-x="0" 
d="M-297 -133q45 0 77 -31t32 -77q0 -47 -33 -77t-77 -30t-76 31t-32 77t32 76q32 31 77 31zM-728 -133q46 0 78 -32t32 -76q0 -43 -32 -75t-78 -32t-77 31t-31 77t31 76q31 31 77 31z" />
    <glyph glyph-name="uni0325" unicode="&#x325;" horiz-adv-x="0" 
d="M-514 -336q41 0 70 29q28 29 28 69t-28 66q-27 29 -70 29t-66 -29q-28 -23 -28 -66t28 -69q25 -29 66 -29zM-334 -239q0 -71 -51 -128q-57 -51 -128 -51t-126 51q-51 53 -51 128t51 126t126 51t128 -51q51 -55 51 -126z" />
    <glyph glyph-name="uni0326" unicode="&#x326;" horiz-adv-x="0" 
d="M-365 -53l-129 -379h-165l81 379h213z" />
    <glyph glyph-name="uni0327" unicode="&#x327;" horiz-adv-x="0" 
d="M-557 -346q127 0 127 88q0 80 -129 80q-23 0 -90 -6l71 190h107l-39 -108q20 2 45 2q74 0 127 -41t53 -127t-86 -135q-61 -31 -165 -31t-203 49l34 78q78 -39 148 -39z" />
    <glyph glyph-name="uni0328" unicode="&#x328;" horiz-adv-x="0" 
d="M-586 -237q0 -85 77 -85t175 70l45 -70q-119 -113 -258 -112q-186 0 -186 168q0 53 39 133t92 139h108q-92 -158 -92 -243z" />
    <glyph glyph-name="uni032D" unicode="&#x32d;" horiz-adv-x="0" 
d="M-416 -121l211 -260h-137l-170 166l-168 -166h-137l211 260h190z" />
    <glyph glyph-name="uni032E" unicode="&#x32e;" horiz-adv-x="0" 
d="M-514 -264q170 0 205 147h110q-37 -268 -313 -268t-313 268h110q31 -147 201 -147z" />
    <glyph glyph-name="uni0330" unicode="&#x330;" horiz-adv-x="0" 
d="M-653 -158q61 0 147 -39t125 -39t96 70l95 -76q-84 -125 -179 -125q-59 0 -146 38t-129 38t-97 -69l-93 75q84 127 181 127z" />
    <glyph glyph-name="uni0331" unicode="&#x331;" horiz-adv-x="0" 
d="M-197 -188v-131h-630v131h630z" />
    <glyph glyph-name="uni0338" unicode="&#x338;" horiz-adv-x="0" 
d="M-129 1028l-674 -1059l-92 60l674 1058z" />
    <glyph glyph-name="uni0340" unicode="&#x340;" horiz-adv-x="0" 
d="M-489 1479l194 -299h-143l-291 299h240z" />
    <glyph glyph-name="uni0341" unicode="&#x341;" horiz-adv-x="0" 
d="M-295 1479l-291 -299h-143l194 299h240z" />
    <glyph glyph-name="uni0344" unicode="&#x344;" horiz-adv-x="0" 
d="M-207 1301q0 -43 -32 -75q-33 -32 -77 -32t-76 31t-32 77t32 76q32 31 76 31t77 -32q32 -32 32 -76zM-707 1194q-45 0 -77 31t-31 77q0 46 32 76q33 31 77 31t76 -32t32 -76q0 -43 -32 -75t-77 -32zM-186 1778l-291 -299h-141l192 299h240z" />
    <glyph glyph-name="uni037E" unicode="&#x37e;" horiz-adv-x="557" 
d="M463 283q0 -154 -90 -273q-92 -117 -246 -160v127q82 31 139 99q51 70 51 141q-25 -8 -51 -8q-63 0 -106 45q-43 44 -43 112t47 107q43 43 120 43t128 -64t51 -169zM432 1122q0 -62 -47 -108q-47 -45 -108 -45t-105 44q-44 45 -45 109q0 64 43 108q44 44 108 44t109 -45
t45 -107z" />
    <glyph glyph-name="cid00316" unicode="&#x384;" horiz-adv-x="1024" 
d="M729 1778l-291 -299h-143l194 299h240z" />
    <glyph glyph-name="cid00317" unicode="&#x385;" horiz-adv-x="1024" 
d="M817 1301q0 -43 -32 -75q-33 -32 -77 -32t-76 31t-32 77t32 76q32 31 76 31t77 -32q32 -32 32 -76zM317 1194q-45 0 -77 31t-31 77q0 46 32 76q33 31 77 31t76 -32t32 -76q0 -43 -32 -75t-77 -32zM838 1778l-291 -299h-141l192 299h240z" />
    <glyph glyph-name="cid00427" unicode="&#x391;" horiz-adv-x="1380" 
d="M936 561l-242 662h-8l-244 -662h494zM817 1462l563 -1462h-239l-137 377h-629l-137 -377h-238l563 1462h254z" />
    <glyph glyph-name="cid00428" unicode="&#x392;" horiz-adv-x="1406" 
d="M780 184q320 0 322 230q0 129 -77 187t-239 58h-419v-475h413zM367 842h385q152 0 221 53q67 55 67 169t-66 164t-218 50h-389v-436zM1325 410q0 -410 -514 -410h-668v1462h668q215 0 334 -100t119 -268q0 -123 -62 -209q-63 -82 -170 -121q293 -59 293 -354z" />
    <glyph glyph-name="cid00429" unicode="&#x393;" horiz-adv-x="1210" 
d="M1169 1462v-190h-804v-1272h-222v1462h1026z" />
    <glyph glyph-name="uni0394" unicode="&#x394;" horiz-adv-x="1417" 
d="M332 197h753l-376 979zM831 1462l564 -1462h-1375l566 1462h245z" />
    <glyph glyph-name="cid00431" unicode="&#x395;" horiz-adv-x="1312" 
d="M1194 1462v-190h-827v-426h778v-191h-778v-465h862v-190h-1086v1462h1051z" />
    <glyph glyph-name="cid00432" unicode="&#x396;" horiz-adv-x="1300" 
d="M1200 1462v-178l-858 -1094h907v-190h-1198v176l860 1096h-798v190h1087z" />
    <glyph glyph-name="cid00433" unicode="&#x397;" horiz-adv-x="1499" 
d="M367 1462v-616h766v616h223v-1462h-223v655h-766v-655h-224v1462h224z" />
    <glyph glyph-name="cid00434" unicode="&#x398;" horiz-adv-x="1583" 
d="M1073 838v-197h-561v197h561zM1276 729q0 260 -125 413t-361 153t-360 -154q-125 -154 -125 -410q0 -255 127 -409q128 -154 360 -154t358 150t126 411zM788 1491q336 0 524 -211t189 -548q-1 -337 -189 -549t-522 -212t-520 212q-188 212 -188 547t182 542
q188 219 524 219z" />
    <glyph glyph-name="cid00435" unicode="&#x399;" horiz-adv-x="516" 
d="M369 1462v-1462h-222v1462h222z" />
    <glyph glyph-name="cid00436" unicode="&#x39a;" horiz-adv-x="1449" 
d="M367 1462v-706l706 706h283l-647 -628l741 -834h-299l-594 688l-190 -182v-506h-224v1462h224z" />
    <glyph glyph-name="cid00437" unicode="&#x39b;" horiz-adv-x="1339" 
d="M797 1462l532 -1462h-237l-420 1198h-2l-422 -1198h-238l533 1462h254z" />
    <glyph glyph-name="cid00438" unicode="&#x39c;" horiz-adv-x="1839" 
d="M1696 1462v-1462h-223v1044h-9l-448 -1044h-193l-448 1044h-8v-1044h-224v1462h265l510 -1171h6l508 1171h264z" />
    <glyph glyph-name="cid00439" unicode="&#x39d;" horiz-adv-x="1492" 
d="M1124 375v1087h224v-1462h-218l-755 1100h-8v-1100h-224v1462h226l747 -1087h8z" />
    <glyph glyph-name="cid00440" unicode="&#x39e;" horiz-adv-x="1298" 
d="M1194 190v-190h-1092v190h1092zM1075 834v-191h-854v191h854zM1176 1462v-190h-1055v190h1055z" />
    <glyph glyph-name="cid00441" unicode="&#x39f;" horiz-adv-x="1583" 
d="M1276 729q0 260 -125 413t-361 153t-360 -154q-125 -154 -125 -410q0 -255 127 -409q128 -154 360 -154t358 150t126 411zM788 1491q336 0 524 -211t189 -548q-1 -337 -189 -549t-522 -212t-520 212q-188 212 -188 547t182 542q188 219 524 219z" />
    <glyph glyph-name="cid00442" unicode="&#x3a0;" horiz-adv-x="1480" 
d="M1337 1462v-1462h-223v1272h-747v-1272h-224v1462h1194z" />
    <glyph glyph-name="cid00443" unicode="&#x3a1;" horiz-adv-x="1335" 
d="M367 760h364q166 0 242 62t76 198t-78 190q-76 61 -240 62h-364v-512zM750 1462q522 0 522 -444q0 -449 -527 -449h-378v-569h-224v1462h607z" />
    <glyph glyph-name="cid00444" unicode="&#x3a3;" horiz-adv-x="1251" 
d="M1163 1462v-190h-821l498 -512l-508 -570h866v-190h-1147v193l504 567l-487 504v198h1095z" />
    <glyph glyph-name="cid00445" unicode="&#x3a4;" horiz-adv-x="1261" 
d="M1229 1462v-190h-488v-1272h-221v1272h-489v190h1198z" />
    <glyph glyph-name="cid00446" unicode="&#x3a5;" horiz-adv-x="1400" 
d="M811 0h-221v584l-580 878h269l421 -669l422 669h269l-580 -878v-584z" />
    <glyph glyph-name="cid00447" unicode="&#x3a6;" horiz-adv-x="1615" 
d="M1311 758q0 193 -160 284q-94 53 -229 66v-700q389 45 389 350zM305 756q0 -303 393 -348v700q-137 -13 -231 -66q-162 -92 -162 -286zM698 1462h224v-157q231 -12 378 -99q233 -135 234 -448q0 -500 -612 -547v-211h-224v211q-618 42 -616 547q0 313 235 448
q145 86 381 99v157z" />
    <glyph glyph-name="cid00448" unicode="&#x3a7;" horiz-adv-x="1347" 
d="M317 1462l357 -528l356 528h273l-496 -706l530 -756h-272l-391 580l-391 -580h-273l527 756l-492 706h272z" />
    <glyph glyph-name="cid00449" unicode="&#x3a8;" horiz-adv-x="1646" 
d="M326 1462v-458q0 -229 129 -322q88 -63 258 -78v858h223v-858q170 14 258 78q127 92 127 322v458h223v-461q0 -547 -608 -589v-412h-223v412q-610 45 -611 589v461h224z" />
    <glyph glyph-name="uni03A9" unicode="&#x3a9;" horiz-adv-x="1523" 
d="M1440 784q0 -399 -312 -594h312v-190h-553v215q164 90 239 211q92 140 92 362t-131 365q-135 141 -325 141t-324 -140t-133 -363q0 -223 84 -355t248 -221v-215h-553v190h311q-313 195 -313 594q0 301 182 496q190 211 498 211t493 -205t185 -502z" />
    <glyph glyph-name="cid00450" unicode="&#x3b1;" horiz-adv-x="1280" 
d="M305 524q0 -176 70 -270q76 -106 224 -106t222 102q74 104 74 279t-76 276q-74 107 -220 107t-224 -117q-70 -95 -70 -271zM1110 1059v-821q0 -94 66 -95q10 0 65 11l19 -154q-90 -29 -170 -29t-126 48q-48 48 -55 122v19h-6q-115 -188 -330 -189q-244 0 -372 170
q-119 151 -119 393t131 394q129 160 353 160t337 -173h8l41 144h158z" />
    <glyph glyph-name="cid00451" unicode="&#x3b2;" horiz-adv-x="1212" 
d="M805 1092q-1 217 -233 218t-232 -349v-447q0 -170 75 -269t211 -99t212 79q68 78 68 219t-66 216q-64 75 -230 75h-73v154h73q195 0 195 203zM692 -29q-225 0 -346 181h-6v-558h-217v1362q0 248 115 383q121 152 358 152q198 0 316 -99t118 -245q0 -221 -201 -295v-4
q143 -33 223 -140t78 -257q0 -223 -122 -353q-123 -127 -316 -127z" />
    <glyph glyph-name="cid00452" unicode="&#x3b3;" horiz-adv-x="1130" 
d="M117 1059q119 1 191 -61t114 -195l178 -549l274 805h236l-403 -1075v-390h-218v381l-274 779q-29 76 -59 100t-99 23h-37v182h97z" />
    <glyph glyph-name="cid00453" unicode="&#x3b4;" horiz-adv-x="1222" 
d="M305 528q0 -172 81 -276t227 -102q145 0 225 107t80 272t-82 265t-220 101q-138 0 -225 -98q-86 -97 -86 -269zM1010 1462v-178h-449l250 -199q172 -137 236 -229q92 -135 92 -347t-131 -368q-148 -170 -398 -170t-391 164q-137 151 -137 389t154 391q135 137 299 138
q12 0 18 -2l-328 258v153h785z" />
    <glyph glyph-name="cid00454" unicode="&#x3b5;" horiz-adv-x="1101" 
d="M342 774q0 -59 51 -100t137 -41h103v-158h-96q-230 0 -232 -162q0 -80 64 -129q65 -49 179 -49t171 49t78 158h221q-16 -174 -137 -274q-125 -96 -335 -96t-337 94t-127 237q0 205 213 260q-176 80 -176 232q-1 127 113 209t316 83q202 0 319 -90q116 -90 141 -249h-224
q-18 76 -59 116q-59 59 -172 60q-211 0 -211 -150z" />
    <glyph glyph-name="cid00455" unicode="&#x3b6;" horiz-adv-x="966" 
d="M944 1462v-159q-270 -119 -446 -355q-193 -250 -193 -528q0 -154 68 -219q49 -43 225 -86t248 -101q94 -72 94 -229q0 -84 -37 -191h-217q39 90 39 166t-59 107q-57 37 -226 71t-250 113q-108 109 -108 363t156 491q131 207 370 379h-467v178h803z" />
    <glyph glyph-name="cid00456" unicode="&#x3b7;" horiz-adv-x="1179" 
d="M1055 653v-1059h-217v1041q0 270 -248 270q-96 -1 -167 -71t-83 -197v-637h-217v1059h217v-131q122 161 319 159q396 0 396 -434z" />
    <glyph glyph-name="cid00457" unicode="&#x3b8;" horiz-adv-x="1142" 
d="M307 655q6 -195 47 -307q61 -198 216 -198t221 198q39 131 45 307h-529zM572 1313q-156 0 -218 -197q-41 -115 -47 -282h529q-10 174 -45 280q-63 199 -219 199zM571 1491q490 0 490 -760t-490 -760q-258 0 -381 226q-108 190 -108 536t108 533q121 225 381 225z" />
    <glyph glyph-name="cid00458" unicode="&#x3b9;" horiz-adv-x="604" 
d="M340 1059v-805q0 -100 76 -100q61 0 125 14l22 -162q-109 -35 -196 -35q-244 0 -244 283v805h217z" />
    <glyph glyph-name="cid00459" unicode="&#x3ba;" horiz-adv-x="1140" 
d="M340 1059v-457l461 457h284l-448 -430l493 -629h-288l-359 479l-143 -137v-342h-217v1059h217z" />
    <glyph glyph-name="cid00460" unicode="&#x3bb;" horiz-adv-x="1185" 
d="M1063 152q27 0 76 12l24 -170q-96 -23 -155 -23q-113 0 -174 68q-51 53 -97 194l-172 517l-305 -750h-240l453 1028l-31 94q-66 191 -166 191q-50 0 -110 -13l-29 170q76 20 168 21q141 0 213 -70q68 -57 119 -211l315 -915q49 -143 111 -143z" />
    <glyph glyph-name="uni03BC" unicode="&#x3bc;" horiz-adv-x="1181" 
d="M340 1059v-662q0 -244 240 -243q92 0 166 68t94 190v647h217v-1059h-217v143q-76 -88 -135 -127q-79 -45 -181 -45t-184 72v-449h-217v1465h217z" />
    <glyph glyph-name="cid00461" unicode="&#x3bd;" horiz-adv-x="1079" 
d="M256 1059l266 -832q96 111 180 337t103 495h223q-18 -319 -151 -635q-121 -279 -273 -424h-217l-367 1059h236z" />
    <glyph glyph-name="cid00462" unicode="&#x3be;" horiz-adv-x="991" 
d="M162 1008q0 88 57 159q49 68 152 117h-256v178h788v-164h-90q-188 0 -307 -75q-125 -74 -125 -199q0 -182 344 -182h156v-176h-176q-160 0 -271 -84q-127 -88 -127 -238q0 -104 82 -160q57 -34 229 -72t234 -77q117 -72 117 -234q0 -100 -37 -207h-211q39 121 39 187
t-86 102q-60 25 -236 56t-266 127t-90 272q0 127 82 240t209 174q-211 77 -211 256z" />
    <glyph glyph-name="cid00463" unicode="&#x3bf;" horiz-adv-x="1222" 
d="M305 530q0 -164 72 -262q84 -118 232 -118t237 118q74 104 74 263t-74 260q-86 119 -236 119t-233 -119q-72 -97 -72 -261zM610 -29q-238 0 -383 158q-145 159 -145 401t143 400t384 158t385 -160t144 -401t-145 -399t-383 -157z" />
    <glyph glyph-name="cid00320" unicode="&#x3c0;" horiz-adv-x="1353" 
d="M1266 1059v-180h-203v-623q0 -98 92 -98q45 0 125 24l31 -176q-117 -35 -219 -35q-246 0 -246 271v637h-414v-879h-217v879h-174v180h1225z" />
    <glyph glyph-name="cid00464" unicode="&#x3c1;" horiz-adv-x="1249" 
d="M334 530q0 -160 78 -270t228 -110t228 110t78 270t-74 261q-82 119 -234 119t-232 -117q-72 -103 -72 -263zM123 492q0 274 135 435q136 161 378 161t386 -161t145 -397q0 -236 -139 -397q-150 -162 -389 -162q-176 0 -301 174v-551h-215v898z" />
    <glyph glyph-name="cid00465" unicode="&#x3c3;" horiz-adv-x="1249" 
d="M305 512q0 -164 66 -254q74 -108 224 -108t237 105q88 105 88 266t-84 261q-86 98 -224 98t-223 -102q-84 -102 -84 -266zM1227 1059v-178h-266q178 -147 178 -371q1 -224 -143 -381q-144 -158 -388 -158t-385 154q-141 153 -141 397t162 391q147 145 389 146h594z" />
    <glyph glyph-name="cid00466" unicode="&#x3c4;" horiz-adv-x="1021" 
d="M999 1059v-180h-397v-623q0 -98 74 -98q43 0 117 24l28 -176q-111 -35 -207 -35q-229 0 -229 271v637h-365v180h979z" />
    <glyph glyph-name="cid00467" unicode="&#x3c5;" horiz-adv-x="1183" 
d="M340 1059v-631q0 -145 53 -207q55 -71 195 -71t203 71q51 68 51 207v631h217v-641q0 -446 -468 -446t-468 446v641h217z" />
    <glyph glyph-name="cid00468" unicode="&#x3c6;" horiz-adv-x="1525" 
d="M1114 248q106 100 106 285t-106 280q-86 82 -244 98v-759q158 18 244 96zM412 813q-106 -91 -106 -279q-1 -342 347 -382v759q-155 -18 -241 -98zM870 1462v-375q225 -14 373 -122q199 -150 199 -433t-199 -432q-150 -109 -373 -127v-379h-217v381q-233 18 -374 127
q-197 147 -197 430t197 431q143 106 374 124v375h217z" />
    <glyph glyph-name="cid00469" unicode="&#x3c7;" horiz-adv-x="1093" 
d="M291 1059l256 -492l256 492h246l-390 -701l424 -764h-249l-287 564l-285 -564h-252l424 764l-387 701h244z" />
    <glyph glyph-name="cid00470" unicode="&#x3c8;" horiz-adv-x="1445" 
d="M831 1462v-1304q125 18 207 106q104 111 105 295q0 240 -96 463l213 65q104 -254 104 -527t-160 -427q-139 -137 -373 -156v-383h-217v383q-492 31 -491 504v578h217v-578q0 -171 64 -241t210 -82v1304h217z" />
    <glyph glyph-name="cid00471" unicode="&#x3c9;" horiz-adv-x="1542" 
d="M494 150q168 0 168 260v344h217v-344q0 -262 168 -260q98 0 143 95t45 249q0 272 -154 524l199 69q178 -283 178 -595q0 -225 -102 -371q-109 -150 -291 -150q-233 0 -295 201q-61 -201 -295 -201q-185 -1 -289 145t-104 376q0 315 180 595l199 -69q-154 -252 -154 -524
q0 -344 187 -344z" />
    <glyph glyph-name="uni0401" unicode="&#x401;" horiz-adv-x="1312" 
d="M1194 1462v-190h-827v-426h778v-191h-778v-465h862v-190h-1086v1462h1051zM961 1692q0 -46 -31 -76q-31 -31 -77 -31t-77 31t-31 77q0 47 31 77t77 30t77 -31t31 -77zM460 1585q-46 0 -77 31t-31 77q0 47 31 77t77 30t77 -31t31 -77t-32 -76q-30 -31 -76 -31z" />
    <glyph glyph-name="uni0410" unicode="&#x410;" horiz-adv-x="1380" 
d="M936 561l-242 662h-8l-244 -662h494zM817 1462l563 -1462h-239l-137 377h-629l-137 -377h-238l563 1462h254z" />
    <glyph glyph-name="uni0411" unicode="&#x411;" horiz-adv-x="1409" 
d="M770 184q334 0 334 251t-338 251h-399v-502h403zM1188 1278h-821v-410h469q242 0 366 -119t123 -315q0 -434 -522 -434h-660v1462h1045v-184z" />
    <glyph glyph-name="uni0412" unicode="&#x412;" horiz-adv-x="1406" 
d="M780 184q320 0 322 230q0 129 -77 187t-239 58h-419v-475h413zM367 842h385q152 0 221 53q67 55 67 169t-66 164t-218 50h-389v-436zM1325 410q0 -410 -514 -410h-668v1462h668q215 0 334 -100t119 -268q0 -123 -62 -209q-63 -82 -170 -121q293 -59 293 -354z" />
    <glyph glyph-name="uni0413" unicode="&#x413;" horiz-adv-x="1196" 
d="M1153 1462v-190h-786v-1272h-224v1462h1010z" />
    <glyph glyph-name="uni0414" unicode="&#x414;" horiz-adv-x="1480" 
d="M1036 190v1082h-432l-178 -1082h610zM1257 190h183v-477h-223v287h-953v-287h-223v477h162l207 1272h847v-1272z" />
    <glyph glyph-name="uni0415" unicode="&#x415;" horiz-adv-x="1312" 
d="M1194 1462v-190h-827v-426h778v-191h-778v-465h862v-190h-1086v1462h1051z" />
    <glyph glyph-name="uni0416" unicode="&#x416;" horiz-adv-x="1961" 
d="M872 1462h218v-637q178 31 294 160q137 162 185 477h225q-61 -416 -260 -622q-29 -29 -86 -78l471 -762h-268l-404 659q-68 -23 -157 -32v-627h-218v627q-88 10 -157 32l-404 -659h-270l473 760q-276 215 -346 702h225q78 -567 479 -637v637z" />
    <glyph glyph-name="uni0417" unicode="&#x417;" horiz-adv-x="1257" 
d="M641 168q330 0 330 258q0 154 -129 209q-72 33 -180 33h-127v186h137q134 0 200 62t66 161q0 217 -299 217q-147 0 -213 -59q-70 -53 -94 -188h-230q74 444 537 444q246 -1 385 -106t139 -298q0 -237 -239 -315q270 -86 270 -350q0 -217 -150 -336q-152 -115 -410 -115
t-386 111q-147 123 -166 389h231q14 -166 90 -235q70 -68 238 -68z" />
    <glyph glyph-name="uni0418" unicode="&#x418;" horiz-adv-x="1492" 
d="M367 1462v-1100h8l755 1100h218v-1462h-224v1087h-8l-747 -1087h-226v1462h224z" />
    <glyph glyph-name="uni0419" unicode="&#x419;" horiz-adv-x="1492" 
d="M367 1462v-1100h8l755 1100h218v-1462h-224v1087h-8l-747 -1087h-226v1462h224zM744 1677q85 0 130 35q43 37 56 119h170q-25 -137 -106 -203t-248 -66q-168 0 -250 66t-103 203h170q12 -82 54 -118t127 -36z" />
    <glyph glyph-name="uni041A" unicode="&#x41a;" horiz-adv-x="1388" 
d="M367 1462v-637q272 12 428 168q150 156 192 469h242q-61 -406 -275 -610l-63 -53l457 -799h-263l-385 698q-147 -53 -333 -61v-637h-224v1462h224z" />
    <glyph glyph-name="uni041B" unicode="&#x41b;" horiz-adv-x="1484" 
d="M1339 1462v-1462h-221v1272h-438l-141 -879q-33 -203 -129 -301q-98 -92 -277 -92h-113v213h60q82 0 148 42t89 163l172 1044h850z" />
    <glyph glyph-name="uni041C" unicode="&#x41c;" horiz-adv-x="1839" 
d="M1696 1462v-1462h-223v1044h-9l-448 -1044h-193l-448 1044h-8v-1044h-224v1462h265l510 -1171h6l508 1171h264z" />
    <glyph glyph-name="uni041D" unicode="&#x41d;" horiz-adv-x="1499" 
d="M367 1462v-616h766v616h223v-1462h-223v655h-766v-655h-224v1462h224z" />
    <glyph glyph-name="uni041E" unicode="&#x41e;" horiz-adv-x="1583" 
d="M1276 729q0 260 -125 413t-361 153t-360 -154q-125 -154 -125 -410q0 -255 127 -409q128 -154 360 -154t358 150t126 411zM788 1491q336 0 524 -211t189 -548q-1 -337 -189 -549t-522 -212t-520 212q-188 212 -188 547t182 542q188 219 524 219z" />
    <glyph glyph-name="uni041F" unicode="&#x41f;" horiz-adv-x="1480" 
d="M1337 1462v-1462h-223v1272h-747v-1272h-224v1462h1194z" />
    <glyph glyph-name="uni0420" unicode="&#x420;" horiz-adv-x="1335" 
d="M367 760h364q166 0 242 62t76 198t-78 190q-76 61 -240 62h-364v-512zM750 1462q522 0 522 -444q0 -449 -527 -449h-378v-569h-224v1462h607z" />
    <glyph glyph-name="uni0421" unicode="&#x421;" horiz-adv-x="1497" 
d="M305 728q0 -260 114 -410t359 -150q336 0 420 338h217q-49 -256 -223 -396t-412 -139q-358 0 -540 230q-158 195 -158 525t164 534q182 231 532 231q258 0 420 -131t197 -354h-217q-72 290 -404 288q-238 0 -356 -161q-113 -145 -113 -405z" />
    <glyph glyph-name="uni0422" unicode="&#x422;" horiz-adv-x="1261" 
d="M1229 1462v-190h-488v-1272h-221v1272h-489v190h1198z" />
    <glyph glyph-name="uni0423" unicode="&#x423;" horiz-adv-x="1327" 
d="M336 0h-207v213h121q164 0 256 76q27 25 63 78l-559 1095h266l416 -841l367 841h258l-504 -1108q-88 -194 -199 -274t-278 -80z" />
    <glyph glyph-name="uni0424" unicode="&#x424;" horiz-adv-x="1615" 
d="M1311 758q0 193 -160 284q-94 53 -229 66v-700q389 45 389 350zM305 756q0 -303 393 -348v700q-137 -13 -231 -66q-162 -92 -162 -286zM698 1462h224v-157q231 -12 378 -99q233 -135 234 -448q0 -500 -612 -547v-211h-224v211q-618 42 -616 547q0 313 235 448
q145 86 381 99v157z" />
    <glyph glyph-name="uni0425" unicode="&#x425;" horiz-adv-x="1347" 
d="M317 1462l357 -528l356 528h273l-496 -706l530 -756h-272l-391 580l-391 -580h-273l527 756l-492 706h272z" />
    <glyph glyph-name="uni0426" unicode="&#x426;" horiz-adv-x="1517" 
d="M367 1462v-1272h708v1272h223v-1272h179v-477h-224v287h-1110v1462h224z" />
    <glyph glyph-name="uni0427" unicode="&#x427;" horiz-adv-x="1400" 
d="M569 477q-215 0 -313 103q-113 106 -113 344v538h224v-504q0 -154 58 -220t208 -64q203 0 399 219v569h223v-1462h-223v686q-209 -209 -463 -209z" />
    <glyph glyph-name="uni0428" unicode="&#x428;" horiz-adv-x="1923" 
d="M367 1462v-1272h483v1272h223v-1272h481v1272h224v-1462h-1635v1462h224z" />
    <glyph glyph-name="uni0429" unicode="&#x429;" horiz-adv-x="1998" 
d="M367 1462v-1272h483v1272h223v-1272h481v1272h224v-1272h180v-477h-221v287h-1594v1462h224z" />
    <glyph glyph-name="uni042A" unicode="&#x42a;" horiz-adv-x="1673" 
d="M1032 184q336 0 336 251t-338 251h-397v-502h399zM633 1462v-594h465q242 0 366 -119t125 -315q0 -434 -524 -434h-653v1268h-371v194h592z" />
    <glyph glyph-name="uni042B" unicode="&#x42b;" horiz-adv-x="1859" 
d="M682 184q336 0 336 251t-338 251h-313v-502h315zM1716 1462v-1462h-223v1462h223zM367 1462v-594h383q244 0 368 -119t123 -315q0 -434 -524 -434h-574v1462h224z" />
    <glyph glyph-name="uni042C" unicode="&#x42c;" horiz-adv-x="1409" 
d="M770 184q334 0 334 251t-338 251h-399v-502h403zM367 1462v-594h469q242 0 366 -119t123 -315q0 -434 -522 -434h-660v1462h224z" />
    <glyph glyph-name="uni042D" unicode="&#x42d;" horiz-adv-x="1497" 
d="M1413 731q0 -326 -156 -528q-184 -231 -532 -232q-507 0 -623 463h220q37 -131 141 -199t262 -67q240 0 356 151q90 121 109 328h-813v193h809q-18 170 -96 282q-119 172 -365 172q-152 0 -250 -61q-104 -61 -141 -193h-219q37 211 188 326q158 125 422 125
q346 0 528 -231q160 -203 160 -529z" />
    <glyph glyph-name="uni042E" unicode="&#x42e;" horiz-adv-x="1988" 
d="M1259 168q201 0 313 155t112 409t-111 409q-113 154 -313 154t-311 -153q-109 -153 -109 -411t108 -405q111 -158 311 -158zM367 1462v-622h254q23 266 161 434q172 217 478 217t479 -217q166 -203 166 -541t-170 -550t-474 -212t-479 217q-145 176 -164 459h-251v-647
h-224v1462h224z" />
    <glyph glyph-name="uni042F" unicode="&#x42f;" horiz-adv-x="1390" 
d="M350 1030q0 -248 326 -248h348v490h-317q-183 0 -265 -53q-92 -55 -92 -189zM125 1028q0 434 567 434h553v-1462h-221v590h-387l-344 -590h-252l367 625q-283 96 -283 403z" />
    <glyph glyph-name="uni0430" unicode="&#x430;" horiz-adv-x="1165" 
d="M305 279q0 -61 51 -101t133 -41q135 0 236 84q100 84 100 207v61l-223 -6q-297 -6 -297 -204zM1040 676v-676h-200v150q-135 -179 -400 -179q-164 0 -258 84q-100 82 -100 215q0 180 141 275q127 90 365 96l237 6v43q0 221 -230 221t-265 -168l-215 19q66 327 485 325
q440 2 440 -411z" />
    <glyph glyph-name="uni0431" unicode="&#x431;" horiz-adv-x="1196" 
d="M305 497q0 -161 78 -254t214 -93t216 98q78 100 78 255t-76 253q-80 92 -221 92t-213 -96q-76 -94 -76 -255zM1112 510q0 -226 -133 -381q-141 -158 -371 -158t-378 155t-148 431q0 346 137 563q147 242 440 277q125 18 177 30q66 20 106 66l156 -119q-95 -124 -328 -141
q-393 -25 -459 -354q109 147 326 147t346 -145t129 -371z" />
    <glyph glyph-name="uni0432" unicode="&#x432;" horiz-adv-x="1132" 
d="M340 170h297q125 0 172 38t47 114q0 139 -225 139h-291v-291zM631 627q186 0 186 132t-182 132h-295v-264h291zM688 1059q324 0 324 -264q0 -176 -183 -238q221 -70 222 -250q0 -150 -99 -229q-100 -78 -295 -78h-534v1059h565z" />
    <glyph glyph-name="uni0433" unicode="&#x433;" horiz-adv-x="929" 
d="M889 1059v-178h-549v-881h-217v1059h766z" />
    <glyph glyph-name="uni0434" unicode="&#x434;" horiz-adv-x="1191" 
d="M797 178v703h-279l-127 -703h406zM1014 178h137v-465h-217v287h-676v-287h-217v465h127l160 881h686v-881z" />
    <glyph glyph-name="uni0435" unicode="&#x435;" horiz-adv-x="1155" 
d="M383 838q-70 -74 -88 -205h571q-31 276 -288 276q-123 1 -195 -71zM568 -29q-224 0 -359 146q-147 155 -147 403t139 406q135 162 384 162t382 -177q125 -162 127 -442h-803q12 -158 86 -239q74 -80 194 -80t181 46t106 144h217q-39 -152 -145 -248q-138 -121 -362 -121z
" />
    <glyph glyph-name="uni0436" unicode="&#x436;" horiz-adv-x="1595" 
d="M690 1059h217v-436q129 25 207 108q90 100 125 328h225q-49 -299 -192 -451q-18 -18 -60 -51l342 -557h-258l-280 467q-68 -16 -109 -21v-446h-217v446q-47 4 -110 21l-279 -467h-260l342 559q-41 33 -57 49q-150 156 -195 451h225q33 -226 127 -328q74 -84 207 -108v436
z" />
    <glyph glyph-name="uni0437" unicode="&#x437;" horiz-adv-x="1101" 
d="M549 924q-195 0 -232 -176h-223q20 160 137 247q117 92 319 92t317 -83q116 -83 116 -209q0 -152 -176 -232q211 -55 211 -260q0 -143 -121 -235q-131 -96 -343 -96t-334 98q-122 100 -138 272h223q19 -111 75 -159t172 -48t183 49q63 51 64 129q0 162 -230 162h-100v158
h106q86 0 140 41q49 42 49 108t-54 104t-161 38z" />
    <glyph glyph-name="uni0438" unicode="&#x438;" horiz-adv-x="1191" 
d="M340 1059v-744l498 744h229v-1059h-217v745l-498 -745h-229v1059h217z" />
    <glyph glyph-name="uni0439" unicode="&#x439;" horiz-adv-x="1191" 
d="M340 1059v-744l498 744h229v-1059h-217v745l-498 -745h-229v1059h217zM596 1315q86 0 129 36t55 117h168q-20 -141 -100 -204q-86 -64 -252 -64t-248 66t-104 202h168q12 -84 55 -116q43 -37 129 -37z" />
    <glyph glyph-name="uni043A" unicode="&#x43a;" horiz-adv-x="1118" 
d="M340 1059v-434q201 12 301 106q102 102 139 328h224q-49 -317 -213 -463l-37 -29l321 -567h-256l-260 477q-98 -25 -219 -31v-446h-217v1059h217z" />
    <glyph glyph-name="uni043B" unicode="&#x43b;" horiz-adv-x="1236" 
d="M1114 1059v-1059h-217v881h-307l-96 -568q-31 -176 -136 -254q-84 -59 -208 -59h-109v178h74q57 0 100 33q47 45 66 137l120 711h713z" />
    <glyph glyph-name="uni043C" unicode="&#x43c;" horiz-adv-x="1533" 
d="M1409 1059v-1059h-217v743h-6l-316 -743h-206l-316 743h-8v-743h-217v1059h293l348 -828h4l350 828h291z" />
    <glyph glyph-name="uni043D" unicode="&#x43d;" horiz-adv-x="1173" 
d="M340 1059v-416h491v416h218v-1059h-218v465h-491v-465h-217v1059h217z" />
    <glyph glyph-name="uni043E" unicode="&#x43e;" horiz-adv-x="1222" 
d="M305 530q0 -164 72 -262q84 -118 232 -118t237 118q74 104 74 263t-74 260q-86 119 -236 119t-233 -119q-72 -97 -72 -261zM610 -29q-238 0 -383 158q-145 159 -145 401t143 400t384 158t385 -160t144 -401t-145 -399t-383 -157z" />
    <glyph glyph-name="uni043F" unicode="&#x43f;" horiz-adv-x="1175" 
d="M1053 1059v-1059h-217v881h-496v-881h-217v1059h930z" />
    <glyph glyph-name="uni0440" unicode="&#x440;" horiz-adv-x="1224" 
d="M334 518q0 -172 84 -274q74 -96 196 -97q160 1 233 103t73 273t-64 274q-76 115 -228 115t-227 -113q-68 -98 -67 -262v-19zM661 1088q224 0 353 -160t129 -398t-125 -398q-125 -161 -354 -161q-195 0 -324 185v-562h-217v1465h203v-127q111 156 335 156z" />
    <glyph glyph-name="uni0441" unicode="&#x441;" horiz-adv-x="1142" 
d="M82 526q0 242 134 402t378 159q203 0 326 -92q125 -100 155 -295h-215q-23 111 -88 158q-66 51 -190 51t-199 -100q-78 -95 -78 -277t74 -282t213 -100q242 0 272 241h215q-73 -418 -489 -420q-242 0 -375 156q-133 157 -133 399z" />
    <glyph glyph-name="uni0442" unicode="&#x442;" horiz-adv-x="1005" 
d="M963 1059v-178h-353v-881h-217v881h-352v178h922z" />
    <glyph glyph-name="uni0443" unicode="&#x443;" horiz-adv-x="1062" 
d="M88 -406v179h55q135 0 219 108q33 41 74 133l-426 1045h236l293 -774l278 774h236l-416 -1075q-86 -213 -172 -297q-100 -92 -285 -93h-92z" />
    <glyph glyph-name="uni0444" unicode="&#x444;" horiz-adv-x="1675" 
d="M1368 530q0 379 -233 379q-93 1 -138 -69q-41 -53 -51 -150v-321q10 -98 51 -152q47 -68 138 -67q115 0 178 100q55 98 55 280zM541 150q161 0 188 219v321q-28 221 -188 219q-232 1 -233 -379t233 -380zM946 1491v-547q82 143 240 143q195 -1 301 -159t106 -397
q-1 -239 -107 -399t-300 -161q-160 0 -240 142v-519h-217v521q-84 -143 -240 -144q-197 0 -305 166q-102 153 -102 395t102 390q109 166 305 165q158 0 240 -143v547h217z" />
    <glyph glyph-name="uni0445" unicode="&#x445;" horiz-adv-x="1085" 
d="M311 1059l234 -336l231 336h254l-366 -496l411 -563h-254l-276 403l-279 -403h-256l414 563l-367 496h254z" />
    <glyph glyph-name="uni0446" unicode="&#x446;" horiz-adv-x="1214" 
d="M340 1059v-881h471v881h217v-881h146v-465h-218v287h-833v1059h217z" />
    <glyph glyph-name="uni0447" unicode="&#x447;" horiz-adv-x="1112" 
d="M340 1059v-340q0 -109 39 -155t133 -46t190 60q45 33 68 51v430h217v-1059h-217v455q-12 -6 -22 -17q-137 -98 -289 -98t-246 84q-90 84 -90 252v383h217z" />
    <glyph glyph-name="uni0448" unicode="&#x448;" horiz-adv-x="1556" 
d="M340 1059v-881h330v881h217v-881h327v881h218v-1059h-1309v1059h217z" />
    <glyph glyph-name="uni0449" unicode="&#x449;" horiz-adv-x="1617" 
d="M340 1059v-881h330v881h217v-881h327v881h218v-881h145v-465h-217v287h-1237v1059h217z" />
    <glyph glyph-name="uni044A" unicode="&#x44a;" horiz-adv-x="1284" 
d="M776 178q205 0 205 172q0 84 -55 123q-49 41 -150 41h-256v-336h256zM520 1059v-371h307q180 0 277 -90q96 -92 96 -252t-98 -253t-275 -93h-524v881h-262v178h479z" />
    <glyph glyph-name="uni044B" unicode="&#x44b;" horiz-adv-x="1490" 
d="M739 350q0 164 -202 164h-197v-336h197q202 0 202 172zM1368 1059v-1059h-217v1059h217zM340 1059v-371h246q180 0 277 -91t97 -251t-98 -253t-276 -93h-463v1059h217z" />
    <glyph glyph-name="uni044C" unicode="&#x44c;" horiz-adv-x="1105" 
d="M803 350q0 164 -203 164h-260v-336h260q203 0 203 172zM340 1059v-371h309q179 0 277 -91t98 -251t-99 -253t-276 -93h-526v1059h217z" />
    <glyph glyph-name="uni044D" unicode="&#x44d;" horiz-adv-x="1153" 
d="M1069 528q0 -244 -133 -400t-375 -157q-395 0 -479 355h219q49 -176 254 -176q147 0 223 106q51 78 64 195h-502v178h500q-14 111 -64 176q-74 104 -223 104q-197 0 -250 -172h-219q79 352 473 350q246 1 383 -165q129 -150 129 -394z" />
    <glyph glyph-name="uni044E" unicode="&#x44e;" horiz-adv-x="1615" 
d="M1036 909q-128 0 -201 -103q-73 -102 -73 -276t73 -277t201 -103t203 102q72 106 72 277t-72 278q-75 102 -203 102zM340 1059v-428h205q20 176 129 299q133 158 360 158t369 -160q131 -156 131 -399t-134 -401t-364 -157q-230 0 -364 160q-115 129 -129 322h-203v-453
h-217v1059h217z" />
    <glyph glyph-name="uni044F" unicode="&#x44f;" horiz-adv-x="1120" 
d="M365 741q0 -76 45 -112q51 -35 161 -35h209v287h-205q-210 -1 -210 -140zM997 0h-217v418h-207l-229 -418h-262l260 446q-45 14 -66 27q-135 78 -135 262q-1 154 103 239t307 85h446v-1059z" />
    <glyph glyph-name="uni0451" unicode="&#x451;" horiz-adv-x="1155" 
d="M383 838q-70 -74 -88 -205h571q-31 276 -288 276q-123 1 -195 -71zM568 -29q-224 0 -359 146q-147 155 -147 403t139 406q135 162 384 162t382 -177q125 -162 127 -442h-803q12 -158 86 -239q74 -80 194 -80t181 46t106 144h217q-39 -152 -145 -248q-138 -121 -362 -121z
M881 1333q0 -45 -32 -77t-76 -32t-76 32t-31 77q0 45 30 77t77 32q46 0 77 -32t31 -77zM274 1333q0 45 31 77t77 32t77 -32t31 -77t-32 -77t-76 -32t-76 32t-32 77z" />
    <glyph glyph-name="uni1E3F" unicode="&#x1e3f;" horiz-adv-x="1796" 
d="M1673 694v-694h-217v657q0 131 -54 189t-181 59q-90 0 -152 -67q-61 -68 -61 -187v-651h-217v655q0 250 -218 250q-106 0 -167 -80q-66 -74 -66 -188v-637h-217v1059h217v-117q127 145 291 145q236 0 334 -178q71 99 147 139t184 39q164 0 271 -108q106 -111 106 -285z
M885 1180h-142l195 299h240z" />
    <glyph glyph-name="uni1EBE" unicode="&#x1ebe;" horiz-adv-x="1312" 
d="M1194 1462v-190h-827v-426h778v-191h-778v-465h862v-190h-1086v1462h1051zM752 1798l213 -229h-138l-170 145l-170 -145h-137l211 229h191zM1270 1950l-291 -250l-98 22l180 228h209z" />
    <glyph glyph-name="uni1EBF" unicode="&#x1ebf;" horiz-adv-x="1155" 
d="M383 838q-70 -74 -88 -205h571q-31 276 -288 276q-123 1 -195 -71zM568 -29q-224 0 -359 146q-147 155 -147 403t139 406q135 162 384 162t382 -177q125 -162 127 -442h-803q12 -158 86 -239q74 -80 194 -80t181 46t106 144h217q-39 -152 -145 -248q-138 -121 -362 -121z
M674 1436l211 -230h-137l-168 146l-172 -146h-138l213 230h191zM1190 1608l-289 -250l-102 20l184 230h207z" />
    <glyph glyph-name="uni1EC0" unicode="&#x1ec0;" horiz-adv-x="1312" 
d="M1194 1462v-190h-827v-426h778v-191h-778v-465h862v-190h-1086v1462h1051zM752 1798l213 -229h-138l-170 145l-170 -145h-137l211 229h191zM965 1950l180 -250h-117l-272 250h209z" />
    <glyph glyph-name="uni1EC1" unicode="&#x1ec1;" horiz-adv-x="1155" 
d="M383 838q-70 -74 -88 -205h571q-31 276 -288 276q-123 1 -195 -71zM568 -29q-224 0 -359 146q-147 155 -147 403t139 406q135 162 384 162t382 -177q125 -162 127 -442h-803q12 -158 86 -239q74 -80 194 -80t181 46t106 144h217q-39 -152 -145 -248q-138 -121 -362 -121z
M674 1436l211 -230h-137l-168 146l-172 -146h-138l213 230h191zM885 1608l180 -250h-117l-272 250h209z" />
    <glyph glyph-name="cid00321" unicode="&#x1ef2;" horiz-adv-x="1400" 
d="M811 0h-221v584l-580 878h269l421 -669l422 669h269l-580 -878v-584zM635 1845l194 -299h-143l-291 299h240z" />
    <glyph glyph-name="cid00322" unicode="&#x1ef3;" horiz-adv-x="1062" 
d="M246 1059l291 -772l278 772h238l-576 -1465h-231l184 431l-420 1034h236zM481 1479l195 -299h-141l-293 299h239z" />
    <glyph glyph-name="uni2010" unicode="&#x2010;" horiz-adv-x="681" 
d="M598 827v-180h-512v180h512z" />
    <glyph glyph-name="cid00323" unicode="&#x2013;" horiz-adv-x="1687" 
d="M1585 848v-221h-1483v221h1483z" />
    <glyph glyph-name="cid00324" unicode="&#x2014;" 
d="M2048 827v-180h-2048v180h2048z" />
    <glyph glyph-name="uni2015" unicode="&#x2015;" 
d="M2048 840v-205h-2048v205h2048z" />
    <glyph glyph-name="uni2016" unicode="&#x2016;" horiz-adv-x="1024" 
d="M817 1587v-1700h-127v1700h127zM334 1587v-1700h-127v1700h127z" />
    <glyph glyph-name="cid00326" unicode="&#x2018;" horiz-adv-x="745" 
d="M443 1354q51 0 95 -44t44 -110t-45 -110q-47 -43 -123 -43t-125 67q-53 61 -53 166q0 160 91 276t244 156v-127q-84 -27 -135 -98q-55 -70 -53 -141q10 8 60 8z" />
    <glyph glyph-name="cid00327" unicode="&#x2019;" horiz-adv-x="745" 
d="M504 1479q0 -156 -91 -272t-247 -158v127q80 28 135 96t55 143q-20 -8 -64 -8t-89 44t-45 111q0 68 45 110t123 42t125 -65q53 -66 53 -170z" />
    <glyph glyph-name="cid00328" unicode="&#x201a;" horiz-adv-x="745" 
d="M504 209q0 -158 -92 -275q-94 -115 -246 -157v127q84 32 137 98t53 141q-25 -8 -49 -8q-63 0 -104 45q-45 43 -45 110q0 68 45 110t123 42t125 -65q53 -66 53 -168z" />
    <glyph glyph-name="cid00329" unicode="&#x201c;" horiz-adv-x="1220" 
d="M921 1354q49 0 93 -43t43 -110q0 -67 -45 -111t-123 -43q-78 0 -127 67q-51 63 -51 166q0 158 92 274q90 119 246 158v-127q-83 -27 -139 -95t-52 -144q14 8 63 8zM443 1354q51 0 95 -44t44 -110t-45 -110q-47 -43 -123 -43t-125 67q-53 61 -53 166q0 160 91 276t244 156
v-127q-84 -27 -135 -98q-55 -70 -53 -141q10 8 60 8z" />
    <glyph glyph-name="cid00330" unicode="&#x201d;" horiz-adv-x="1220" 
d="M979 1479q0 -154 -90 -271t-246 -159v127q82 29 137 96q51 70 51 143q-20 -8 -49 -8q-61 0 -105 44t-44 112t47 108q43 43 120 43t128 -66q51 -67 51 -169zM504 1479q0 -156 -91 -272t-247 -158v127q80 28 135 96t55 143q-20 -8 -64 -8t-89 44t-45 111q0 68 45 110
t123 42t125 -65q53 -66 53 -170z" />
    <glyph glyph-name="cid00331" unicode="&#x201e;" horiz-adv-x="1220" 
d="M979 209q0 -156 -90 -275q-94 -115 -246 -157v127q86 33 137 96q51 70 51 143q-20 -8 -49 -8q-61 0 -105 44t-44 112t47 108q43 43 120 43t128 -66q51 -67 51 -167zM504 209q0 -158 -92 -275q-94 -115 -246 -157v127q84 32 137 98t53 141q-20 -8 -64 -8t-89 44t-45 111
q0 68 45 110t123 42t125 -65q53 -66 53 -168z" />
    <glyph glyph-name="cid00332" unicode="&#x2020;" horiz-adv-x="1241" 
d="M711 1632v-432h407v-180h-407v-1188h-181v1188h-407v180h407v432h181z" />
    <glyph glyph-name="cid00333" unicode="&#x2021;" horiz-adv-x="1241" 
d="M711 1632v-432h407v-180h-407v-576h407v-180h-407v-432h-181v432h-407v180h407v576h-407v180h407v432h181z" />
    <glyph glyph-name="cid00334" unicode="&#x2022;" horiz-adv-x="1024" 
d="M864 738q0 -144 -102 -251q-106 -102 -250 -102t-248 102q-102 101 -102 249t101 250t249 101q148 0 250 -102q102 -103 102 -247z" />
    <glyph glyph-name="cid00541" unicode="&#x2025;" 
d="M1538 293q66 0 108 -40q42 -41 42 -105t-43 -107q-47 -41 -109 -41t-105 43q-45 43 -45 107t46 102q40 41 106 41zM514 293q66 0 108 -40q42 -41 42 -105t-43 -107q-47 -41 -109 -41t-105 43q-45 43 -45 107t46 102q40 41 106 41z" />
    <glyph glyph-name="cid00335" unicode="&#x2026;" 
d="M1556 150q0 64 42 103q42 40 109 40t109 -40q42 -39 42 -103t-46 -107t-107 -43q-62 0 -106 43q-43 43 -43 107zM1026 293q66 0 108 -40q42 -41 42 -105t-43 -107q-47 -41 -109 -41t-105 43q-45 43 -45 107t46 102q40 41 106 41zM342 293q66 0 108 -40q42 -41 42 -105
t-43 -107q-47 -41 -109 -41t-105 43q-45 43 -45 107t46 102q40 41 106 41z" />
    <glyph glyph-name="uni2027" unicode="&#x2027;" horiz-adv-x="1024" 
d="M668 740q0 -64 -45 -111t-111 -47t-109 47q-47 45 -47 111t47 106q41 47 109 47t109 -47q47 -42 47 -106z" />
    <glyph glyph-name="cid00336" unicode="&#x2030;" horiz-adv-x="2373" 
d="M2011 659q-145 2 -144 -258t142 -260q78 0 115 84q27 70 26 174q0 262 -139 260zM1245 659q-145 2 -144 -258t142 -260q78 0 115 84q27 70 26 174q0 262 -139 260zM2353 402q0 -172 -82 -283q-94 -119 -261 -119t-256 114t-89 288t84 278q90 121 261 121t261 -121
q82 -106 82 -278zM1587 402q0 -172 -82 -283q-94 -119 -262 -119t-262 119q-82 109 -82 283t82 278q90 121 262 121t262 -121q82 -106 82 -278zM367 1321q-144 0 -144 -259t144 -259q75 0 107 77q32 76 32 184t-29 175q-33 82 -110 82zM709 1063q0 -172 -82 -283
q-94 -118 -262 -118t-263 118q-82 109 -82 284t82 277q90 121 262 121t263 -121q82 -106 82 -278zM1296 1491l-821 -1520h-164l819 1520h166z" />
    <glyph glyph-name="cid00542" unicode="&#x2032;" horiz-adv-x="579" 
d="M475 1673l-201 -520h-170l140 520h231z" />
    <glyph glyph-name="cid00543" unicode="&#x2033;" horiz-adv-x="995" 
d="M891 1673l-203 -520h-172l143 520h232zM475 1673l-201 -520h-170l140 520h231z" />
    <glyph glyph-name="uni2035" unicode="&#x2035;" horiz-adv-x="1024" 
d="M535 1845l194 -299h-143l-291 299h240z" />
    <glyph glyph-name="cid00337" unicode="&#x2039;" horiz-adv-x="788" 
d="M686 1038l-432 -297l432 -297v-188l-584 406v161l584 404v-189z" />
    <glyph glyph-name="cid00338" unicode="&#x203a;" horiz-adv-x="788" 
d="M686 823v-161l-584 -406v188l433 297l-433 297v189z" />
    <glyph glyph-name="uni203B" unicode="&#x203b;" 
d="M1026 260q66 0 108 -40t42 -106t-43 -108q-49 -39 -109 -39t-104 42q-46 42 -46 107t46 103q40 41 106 41zM1503 744q0 64 42 105q43 40 109 40t108 -41t42 -106q0 -66 -45 -106t-106 -40t-107 41q-43 43 -43 107zM545 743q0 -67 -45 -107q-46 -40 -106 -40t-105 42
t-45 106t45 104q41 41 107 41t107 -40q42 -40 42 -106zM1024 870l492 494l135 -135l-494 -492l494 -493l-135 -135l-492 493l-492 -493l-135 135l494 493l-494 492l135 135zM1176 1374q0 -66 -45 -106t-105 -41q-60 0 -106 42q-46 43 -46 107t46 103q40 41 106 41t108 -40
t42 -106z" />
    <glyph glyph-name="uni203E" unicode="&#x203e;" 
d="M1663 1761v-180h-1278v180h1278z" />
    <glyph glyph-name="cid00339" unicode="&#x2044;" horiz-adv-x="1671" 
d="M1630 1679l-1407 -1884h-182l1411 1884h178z" />
    <glyph glyph-name="uni2070" unicode="&#x2070;" horiz-adv-x="1024" 
d="M512 909q176 0 176 326t-176 326t-176 -326t176 -326zM848 1237q0 -203 -82 -332q-92 -133 -255 -133t-253 133q-80 125 -80 334t84 330q86 129 249 129t255 -131q82 -127 82 -330z" />
    <glyph glyph-name="uni2074" unicode="&#x2074;" horiz-adv-x="1024" 
d="M588 1106v387h-8l-285 -387h293zM739 1681v-575h138v-129h-138v-189h-151v189h-441v141l426 563h166z" />
    <glyph glyph-name="uni2075" unicode="&#x2075;" horiz-adv-x="1024" 
d="M686 1079q0 183 -172 183q-123 0 -174 -91h-145l51 510h559v-141h-428l-23 -217q78 70 203 70t207 -85q82 -86 82 -228t-98 -225t-234 -83q-135 0 -229 73t-107 206h156q19 -144 170 -144q78 0 133 45q49 47 49 127z" />
    <glyph glyph-name="uni2076" unicode="&#x2076;" horiz-adv-x="1024" 
d="M352 1081q0 -82 47 -127q43 -49 119 -49t125 49q47 51 47 128t-45 125t-124 48t-120 -47q-49 -45 -49 -127zM550 1386q134 0 215 -87t81 -220t-92 -220t-246 -87t-241 118t-87 328t92 345q88 135 252 135q270 0 307 -258h-155q-31 127 -152 127q-94 0 -141 -92
q-35 -61 -41 -179q74 90 208 90z" />
    <glyph glyph-name="uni2077" unicode="&#x2077;" horiz-adv-x="1024" 
d="M825 1681v-120l-321 -773h-168l321 750h-456v143h624z" />
    <glyph glyph-name="uni2078" unicode="&#x2078;" horiz-adv-x="1024" 
d="M512 901q186 0 186 141q0 70 -44 111t-142 41t-145 -45q-41 -35 -41 -107q0 -141 186 -141zM512 1315q162 0 162 131q0 53 -42 88t-121 35t-120 -35t-41 -88q0 -131 162 -131zM856 1042q0 -122 -92 -196t-252 -74t-252 74t-92 196q0 80 41 136t104 84q-117 61 -116 188
q0 104 84 176q83 72 231 72t232 -72t83 -176q0 -127 -116 -188q59 -25 102 -84t43 -136z" />
    <glyph glyph-name="uni2079" unicode="&#x2079;" horiz-adv-x="1024" 
d="M674 1392q0 79 -47 126t-122 47t-122 -48q-47 -49 -47 -129t44 -126t120 -48q76 0 127 48q47 51 47 130zM472 1083q-130 0 -211 85t-81 220t92 222q88 88 244 88t243 -117t87 -325t-88 -347q-96 -137 -256 -137q-272 0 -307 258h155q29 -127 152 -127q92 0 134 81t48 190
q-82 -91 -212 -91z" />
    <glyph glyph-name="uni2080" unicode="&#x2080;" horiz-adv-x="1024" 
d="M512 -84q176 0 176 326t-176 325q-176 1 -176 -325t176 -326zM848 244q0 -202 -82 -332q-92 -133 -255 -133t-253 133q-80 127 -80 335t84 328q86 129 249 129t255 -131q82 -127 82 -329z" />
    <glyph glyph-name="uni2081" unicode="&#x2081;" horiz-adv-x="1024" 
d="M608 688v-893h-157v697q-80 -61 -207 -101v158q145 37 245 139h119z" />
    <glyph glyph-name="uni2082" unicode="&#x2082;" horiz-adv-x="1024" 
d="M829 435q0 -122 -88 -216q-47 -47 -188 -141q-129 -80 -160 -141h438v-142h-638q0 145 90 244q49 57 204 162q106 78 125 96q60 63 60 135t-41 103q-35 35 -111 35t-117 -56q-45 -53 -47 -160h-159q2 158 92 254q84 96 229 96t228 -73q83 -74 83 -196z" />
    <glyph glyph-name="uni2083" unicode="&#x2083;" horiz-adv-x="1024" 
d="M670 444q0 125 -151 124t-167 -160h-157q12 143 99 220t227 77t224 -67q84 -66 84 -190t-127 -184q144 -58 144 -192t-91 -214t-229 -79q-138 0 -221 53q-115 80 -127 260h162q4 -102 55 -140t124 -38t121 43t48 105t-45 102q-45 33 -127 33h-76v122h76q154 0 154 125z
" />
    <glyph glyph-name="uni2084" unicode="&#x2084;" horiz-adv-x="1024" 
d="M588 113v387h-8l-285 -387h293zM739 688v-575h138v-129h-138v-189h-151v189h-441v141l426 563h166z" />
    <glyph glyph-name="uni2085" unicode="&#x2085;" horiz-adv-x="1024" 
d="M686 92q0 86 -45 131t-127 45q-123 0 -174 -90h-145l51 510h559v-141h-428l-23 -217q78 70 203 70t207 -86q82 -85 82 -227t-98 -225t-234 -83q-135 0 -225 67q-98 78 -111 211h156q19 -143 170 -143q78 0 133 45q49 47 49 133z" />
    <glyph glyph-name="uni2086" unicode="&#x2086;" horiz-adv-x="1024" 
d="M352 88q0 -82 45 -129t121 -47t125 49q47 51 47 128t-45 125t-124 48t-120 -47q-49 -45 -49 -127zM524 573q-94 0 -141 -92q-35 -61 -41 -178q37 45 94 68q45 23 111 22q137 0 218 -87t81 -219t-90 -222q-92 -86 -246 -86t-242 117q-88 118 -88 328t92 345
q88 135 252 136q270 -1 307 -259h-155q-31 127 -152 127z" />
    <glyph glyph-name="uni2087" unicode="&#x2087;" horiz-adv-x="1024" 
d="M825 688v-121l-321 -772h-168l321 750h-456v143h624z" />
    <glyph glyph-name="uni2088" unicode="&#x2088;" horiz-adv-x="1024" 
d="M512 -92q186 0 186 141q0 70 -44 111t-142 41t-145 -45q-41 -35 -41 -107q0 -141 186 -141zM511 322q91 0 127 38t36 92t-42 89t-121 35t-120 -35t-41 -90t33 -86q37 -43 128 -43zM856 49q0 -119 -90 -196q-92 -74 -254 -74t-254 74q-90 76 -90 196q0 80 45 139
q37 53 100 80q-117 61 -116 189q0 104 84 176q83 72 231 72t232 -72t83 -176q0 -127 -116 -189q59 -25 102 -84t43 -135z" />
    <glyph glyph-name="uni2089" unicode="&#x2089;" horiz-adv-x="1024" 
d="M506 571q-76 0 -123 -48t-47 -128t44 -127t120 -47t127 47q47 51 47 129t-45 127q-47 47 -123 47zM180 396q0 136 91 222t246 86t242 -117q87 -118 87 -325t-88 -346q-96 -137 -256 -137q-272 0 -307 258h155q29 -127 152 -127q92 0 134 81t48 189q-82 -90 -212 -90
t-211 85t-81 221z" />
    <glyph glyph-name="cid00357" unicode="&#x20ab;" horiz-adv-x="1269" 
d="M952 -188v-131h-633v131h633zM305 535q0 -388 299 -388q137 0 219 113q68 98 68 260v19q0 170 -82 276q-78 96 -199 96q-161 1 -237 -108q-68 -92 -68 -268zM1102 1491v-160h168v-127h-168v-1204h-203v127q-113 -156 -339 -156t-352 160t-126 400t121 391
q129 166 358 165q195 0 324 -186v303h-342v127h342v160h217z" />
    <glyph glyph-name="Euro" unicode="&#x20ac;" horiz-adv-x="1462" 
d="M410 730q0 -48 2 -73h641l-39 -127h-588q18 -104 66 -188q106 -174 331 -174q135 0 225 77t128 212h223q-55 -233 -211 -359t-363 -127q-326 0 -491 232q-100 133 -131 327h-203l39 127h149q-2 25 -2 73t2 71h-188l39 127h162q31 207 141 346q166 217 479 217
q227 0 377 -126t188 -335h-221q-71 264 -348 264q-203 0 -309 -157q-57 -86 -80 -209h705l-39 -127h-682q-2 -23 -2 -71z" />
    <glyph glyph-name="uni20B4" unicode="&#x20b4;" horiz-adv-x="1193" 
d="M127 367q0 84 29 147h-136v127h226q84 67 246 145h-472v127h709q16 14 27 19q86 68 86 172t-58 153q-59 47 -182 48q-229 0 -260 -240h-215q25 219 152 324q115 102 325 102t336 -99q125 -99 125 -300q0 -94 -45 -179h151v-127h-266q-66 -49 -270 -145h536v-127h-747
q-76 -68 -76 -158t62 -144t180 -54q227 0 258 239h215q-49 -424 -473 -426q-225 0 -342 99q-121 96 -121 297z" />
    <glyph glyph-name="uni20B9" unicode="&#x20b9;" horiz-adv-x="1228" 
d="M129 633v149h125q335 0 379 201h-518l41 127h481q-14 100 -80 156q-78 70 -233 69h-213l43 127h962l-41 -127h-305q76 -94 90 -225h258l-43 -127h-219q-18 -113 -90 -186q-96 -96 -262 -131q29 -25 96 -111l438 -555h-303l-366 485q-51 68 -105 107q-63 41 -135 41z" />
    <glyph glyph-name="uni2100" unicode="&#x2100;" 
d="M1323 242q0 -301 229 -301q195 0 220 196h194q-66 -358 -416 -358q-205 0 -321 133q-106 127 -107 330q0 203 109 325q117 137 305 137t292 -76q103 -77 134 -253h-193q-33 170 -215 170q-109 0 -170 -80t-61 -223zM254 1032q0 -45 39 -77t106 -31q113 0 193 61
q78 66 78 160v49l-176 -4q-240 -6 -240 -158zM1819 1679l-1409 -1884h-181l1411 1884h179zM866 1354v-559h-182v108q-118 -131 -326 -131q-137 0 -220 70t-83 182q0 152 116 230t310 79l189 4v29q0 172 -191 172q-170 0 -207 -137l-192 16q31 154 145 219q100 61 269 62
q372 0 372 -344z" />
    <glyph glyph-name="uni2103" unicode="&#x2103;" horiz-adv-x="1894" 
d="M702 728q0 -260 114 -410t360 -150q336 0 419 338h217q-49 -256 -224 -396t-410 -139q-358 0 -541 230q-158 195 -158 525t164 534q182 231 533 231q257 0 419 -131t197 -354h-217q-72 290 -404 288q-238 0 -356 -161q-113 -145 -113 -405zM158 1446q0 -60 42 -102
t100 -42t103 41q43 43 43 103t-42 101q-42 42 -103 42t-102 -42t-41 -101zM561 1446q0 -106 -77 -183q-76 -77 -184 -77t-181 78q-78 72 -78 182t78 182q72 78 181 78t185 -77t76 -183z" />
    <glyph glyph-name="uni2105" unicode="&#x2105;" 
d="M1554 141q140 0 140 259t-140 259t-141 -259q1 -259 141 -259zM1554 0q-168 0 -262 119q-82 109 -82 283t82 278q90 121 262 121t261 -121q81 -106 81 -278t-81 -283q-93 -119 -261 -119zM510 1321q-156 0 -156 -259t154 -259q119 0 149 151h183q-16 -133 -95 -211
q-88 -82 -233 -81q-176 0 -272 116q-88 102 -88 280t90 292q90 112 248 112t248 -76q89 -76 102 -202h-183q-31 137 -147 137zM1507 1491l-821 -1520h-145l821 1520h145z" />
    <glyph glyph-name="uni2109" unicode="&#x2109;" horiz-adv-x="1787" 
d="M1706 1462v-190h-768v-426h723v-191h-723v-655h-221v1462h989zM158 1446q0 -60 42 -102t100 -42t103 41q43 43 43 103t-42 101q-42 42 -103 42t-102 -42t-41 -101zM561 1446q0 -106 -77 -183q-76 -77 -184 -77t-181 78q-78 72 -78 182t78 182q72 78 181 78t185 -77
t76 -183z" />
    <glyph glyph-name="uni2113" unicode="&#x2113;" horiz-adv-x="1175" 
d="M901 1167q0 152 -88 152q-131 0 -246 -350q-88 -266 -100 -502q434 235 434 700zM557 -29q-228 0 -295 222q-104 -31 -170 -46v177q53 14 152 47q6 368 137 694q166 426 453 426q127 0 187 -88t60 -219q0 -416 -299 -699q-135 -123 -307 -209q0 -10 8 -34q31 -90 107 -90
q117 0 227 165l154 -96q-86 -127 -170 -184q-102 -66 -244 -66z" />
    <glyph glyph-name="uni2116" unicode="&#x2116;" 
d="M1927 127v-127h-745v127h745zM1747 719q-1 313 -193 313t-192 -311t192 -311q106 0 156 100q37 78 37 209zM1553 236q-189 0 -297 132t-107 352q-1 220 107 353t297 133t300 -135q107 -135 107 -351t-107 -351q-111 -133 -300 -133zM811 459v1003h225v-1462h-217
l-500 1004h-8v-1004h-223v1462h217l500 -1003h6z" />
    <glyph glyph-name="uni2117" unicode="&#x2117;" horiz-adv-x="1642" 
d="M688 772h199q94 0 133 32t39 97q0 125 -172 125h-199v-254zM899 1184q346 0 346 -285t-350 -285h-207v-335h-188v905h399zM1462 734q0 262 -188 450t-454 188t-452 -187q-188 -187 -188 -453t188 -453q188 -189 451 -189q262 0 455 189q188 193 188 455zM820 1491
q316 0 539 -221q222 -220 222 -536t-221 -541q-224 -221 -540 -221t-537 222q-221 224 -221 539t220 537q222 222 538 221z" />
    <glyph glyph-name="uni2121" unicode="&#x2121;" 
d="M1630 1491v-670h393v-149h-575v819h182zM1364 1491v-150h-418v-176h395v-145h-395v-199h436v-149h-618v819h600zM698 1491v-150h-243v-669h-185v669h-243v150h671z" />
    <glyph glyph-name="cid00364" unicode="&#x2122;" horiz-adv-x="1845" 
d="M1741 1491v-819h-168v516h-6l-221 -516h-132l-219 516h-6v-516h-170v819h201l258 -592h8l256 592h199zM752 1491v-154h-269v-665h-172v665h-270v154h711z" />
    <glyph glyph-name="uni2126" unicode="&#x2126;" horiz-adv-x="1523" 
d="M1440 784q0 -399 -312 -594h312v-190h-553v215q164 90 239 211q92 140 92 362t-131 365q-135 141 -325 141t-324 -140t-133 -363q0 -223 84 -355t248 -221v-215h-553v190h311q-313 195 -313 594q0 301 182 496q190 211 498 211t493 -205t185 -502z" />
    <glyph glyph-name="uni212B" unicode="&#x212b;" horiz-adv-x="1380" 
d="M936 561l-242 662h-8l-244 -662h494zM817 1462l563 -1462h-239l-137 377h-629l-137 -377h-238l563 1462h254zM690 1784q-36 0 -65 -26t-29 -68t28 -69q28 -28 66 -28t68 29q28 29 28 70q0 40 -30 66t-66 26zM870 1690q0 -70 -53 -127q-57 -51 -127 -51t-125 51
q-53 53 -53 127t53 127q55 51 125 51t127 -51q53 -57 53 -127z" />
    <glyph glyph-name="cid00367" unicode="&#x212e;" horiz-adv-x="1652" 
d="M1268 1044q-170 170 -442 170t-441 -170v-378h883v378zM825 -76q-305 0 -514 193t-209 497t213 498q205 193 510 193t514 -196t209 -495v-39h-1163v-393q178 -166 440 -166q385 0 574 330h98q-92 -202 -271 -312t-401 -110z" />
    <glyph glyph-name="uni2150" unicode="&#x2150;" 
d="M1944 688v-121l-322 -772h-168l322 750h-457v143h625zM1819 1679l-1409 -1884h-181l1411 1884h179zM541 1681v-893h-158v697q-80 -61 -207 -101v158q145 37 246 139h119z" />
    <glyph glyph-name="uni2151" unicode="&#x2151;" 
d="M1587 571q-76 0 -123 -48t-47 -128t45 -127t120 -47t126 47q47 51 47 129t-45 127q-47 47 -123 47zM1927 262q0 -207 -88 -346q-96 -137 -256 -137q-272 0 -307 258h156q29 -127 151 -127q94 0 143 92q33 74 39 178q-82 -90 -211 -90q-130 0 -212 85t-80 221
q0 136 91 222t245 86t242 -117q87 -118 87 -325zM1819 1679l-1409 -1884h-181l1411 1884h179zM541 1681v-893h-158v697q-80 -61 -207 -101v158q145 37 246 139h119z" />
    <glyph glyph-name="uni2152" unicode="&#x2152;" 
d="M1733 -84q122 0 122 326q0 125 -22 209q-31 117 -100 116q-131 2 -130 -325q1 -326 130 -326zM1341 688v-893h-157v697q-53 -43 -142 -82v155q109 45 181 123h118zM1733 705q280 0 280 -463q0 -195 -53 -314q-72 -150 -227 -149q-287 0 -287 463t287 463zM1708 1679
l-1321 -1884h-176l1323 1884h174zM541 1681v-893h-158v697q-80 -61 -207 -101v158q145 37 246 139h119z" />
    <glyph glyph-name="uni2153" unicode="&#x2153;" 
d="M1749 444q-1 125 -151 124t-166 -160h-158q12 143 99 220t227 77t225 -67q84 -66 84 -190t-127 -184q143 -60 143 -192t-88 -213q-91 -80 -231 -80t-222 53q-115 80 -127 260h162q3 -102 55 -140t124 -38t121 43q48 43 48 105t-45 102q-45 33 -127 33h-75v122h75
q154 0 154 125zM1819 1679l-1409 -1884h-181l1411 1884h179zM541 1681v-893h-158v697q-80 -61 -207 -101v158q145 37 246 139h119z" />
    <glyph glyph-name="uni2154" unicode="&#x2154;" 
d="M1749 444q-1 125 -151 124t-166 -160h-158q12 143 99 220t227 77t225 -67q84 -66 84 -190t-127 -184q143 -60 143 -192t-88 -213q-91 -80 -231 -80t-222 53q-115 80 -127 260h162q3 -102 55 -140t124 -38t121 43q48 43 48 105t-45 102q-45 33 -127 33h-75v122h75
q154 0 154 125zM1819 1679l-1409 -1884h-181l1411 1884h179zM475 1563q-78 0 -117 -56q-45 -55 -45 -159h-161q2 160 94 256q86 94 229 94t226 -74t83 -196t-88 -216q-53 -53 -188 -141q-129 -80 -160 -141h438v-142h-639q0 145 91 244q45 52 179 146t150 112q59 63 60 137
q0 136 -152 136z" />
    <glyph glyph-name="uni2155" unicode="&#x2155;" 
d="M1599 268q-123 0 -174 -90h-145l51 510h559v-141h-428l-22 -217q78 70 202 70t207 -86q82 -85 82 -227t-100 -225q-99 -83 -233 -83q-134 1 -230 73t-104 205h155q19 -143 170 -143q78 0 133 45q50 47 50 134t-48 130q-43 45 -125 45zM1819 1679l-1409 -1884h-181
l1411 1884h179zM541 1681v-893h-158v697q-80 -61 -207 -101v158q145 37 246 139h119z" />
    <glyph glyph-name="uni2156" unicode="&#x2156;" 
d="M1599 268q-123 0 -174 -90h-145l51 510h559v-141h-428l-22 -217q78 70 202 70t207 -86q82 -85 82 -227t-100 -225q-99 -83 -233 -83q-134 1 -230 73t-104 205h155q19 -143 170 -143q78 0 133 45q50 47 50 134t-48 130q-43 45 -125 45zM1819 1679l-1409 -1884h-181
l1411 1884h179zM475 1563q-78 0 -117 -56q-45 -55 -45 -159h-161q2 160 94 256q86 94 229 94t226 -74t83 -196t-88 -216q-53 -53 -188 -141q-129 -80 -160 -141h438v-142h-639q0 145 91 244q45 52 179 146t150 112q59 63 60 137q0 136 -152 136z" />
    <glyph glyph-name="uni2157" unicode="&#x2157;" 
d="M1599 268q-123 0 -174 -90h-145l51 510h559v-141h-428l-22 -217q78 70 202 70t207 -86q82 -85 82 -227t-100 -225q-99 -83 -233 -83q-134 1 -230 73t-104 205h155q19 -143 170 -143q78 0 133 45q50 47 50 134t-48 130q-43 45 -125 45zM1819 1679l-1409 -1884h-181
l1411 1884h179zM462 1561q-150 0 -167 -160h-158q12 143 101 219q86 78 225 78t224 -67t85 -191t-127 -183q143 -59 143 -192t-91 -213t-229 -80t-220 53q-115 80 -127 260h162q4 -102 55 -140t124 -38t121 43t48 106t-45 101q-45 33 -127 33h-76v123h76q154 0 153 125
q0 123 -150 123z" />
    <glyph glyph-name="uni2158" unicode="&#x2158;" 
d="M1599 268q-123 0 -174 -90h-145l51 510h559v-141h-428l-22 -217q78 70 202 70t207 -86q82 -85 82 -227t-100 -225q-99 -83 -233 -83q-134 1 -230 73t-104 205h155q19 -143 170 -143q78 0 133 45q50 47 50 134t-48 130q-43 45 -125 45zM528 1106v387h-8l-284 -387h292z
M1819 1679l-1409 -1884h-181l1411 1884h179zM680 1681v-575h137v-129h-137v-189h-152v189h-440v141l426 563h166z" />
    <glyph glyph-name="uni2159" unicode="&#x2159;" 
d="M1765 89q0 77 -45 125q-44 48 -122 48t-124 -46t-46 -128t46 -129t120 -47t124 49q47 51 47 128zM1921 86q0 -133 -92 -220t-230 -87q-170 0 -257 118q-87 119 -87 329q-1 210 91 344t253 135q271 -1 308 -259h-156q-31 127 -152 127q-94 0 -141 -92q-35 -61 -41 -178
q79 92 211 91q131 -1 212 -88t81 -220zM1819 1679l-1409 -1884h-181l1411 1884h179zM541 1681v-893h-158v697q-80 -61 -207 -101v158q145 37 246 139h119z" />
    <glyph glyph-name="uni215A" unicode="&#x215a;" 
d="M1765 89q0 77 -45 125q-44 48 -122 48t-124 -46t-46 -128t46 -129t120 -47t124 49q47 51 47 128zM1921 86q0 -133 -92 -220t-230 -87q-170 0 -257 118q-87 119 -87 329q-1 210 91 344t253 135q271 -1 308 -259h-156q-31 127 -152 127q-94 0 -141 -92q-35 -61 -41 -178
q79 92 211 91q131 -1 212 -88t81 -220zM1819 1679l-1409 -1884h-181l1411 1884h179zM629 1079q0 183 -170 183q-123 0 -174 -91h-146l51 510h560v-141h-431l-20 -217q78 70 203 70t207 -85q82 -86 82 -228q-1 -142 -101 -225t-235 -83t-229 72t-105 207h158
q19 -144 170 -144q76 0 131 45q49 47 49 127z" />
    <glyph glyph-name="cid00370" unicode="&#x215b;" 
d="M1780 49q0 152 -187 152q-100 0 -145 -45q-41 -35 -41 -107q1 -141 187 -141t186 141zM1592 322q91 0 127 38t36 92t-42 89t-121 35t-120 -35q-40 -35 -40 -90t32 -86q37 -43 128 -43zM1278 457q0 104 84 176t232 72t231 -72q84 -71 84 -187t-117 -178q59 -25 102 -84
t43 -135q0 -119 -90 -196q-92 -74 -256 -74t-253 75t-89 195q0 80 45 139q37 53 101 80q-117 61 -117 189zM1819 1679l-1409 -1884h-181l1411 1884h179zM541 1681v-893h-158v697q-80 -61 -207 -101v158q145 37 246 139h119z" />
    <glyph glyph-name="cid00371" unicode="&#x215c;" 
d="M1780 49q0 152 -187 152q-100 0 -145 -45q-41 -35 -41 -107q1 -141 187 -141t186 141zM1592 322q91 0 127 38t36 92t-42 89t-121 35t-120 -35q-40 -35 -40 -90t32 -86q37 -43 128 -43zM1278 457q0 104 84 176t232 72t231 -72q84 -71 84 -187t-117 -178q59 -25 102 -84
t43 -135q0 -119 -90 -196q-92 -74 -256 -74t-253 75t-89 195q0 80 45 139q37 53 101 80q-117 61 -117 189zM1819 1679l-1409 -1884h-181l1411 1884h179zM462 1561q-150 0 -167 -160h-158q12 143 101 219q86 78 225 78t224 -67t85 -191t-127 -183q143 -59 143 -192t-91 -213
t-229 -80t-220 53q-115 80 -127 260h162q4 -102 55 -140t124 -38t121 43t48 106t-45 101q-45 33 -127 33h-76v123h76q154 0 153 125q0 123 -150 123z" />
    <glyph glyph-name="cid00372" unicode="&#x215d;" 
d="M1780 49q0 152 -187 152q-100 0 -145 -45q-41 -35 -41 -107q1 -141 187 -141t186 141zM1592 322q91 0 127 38t36 92t-42 89t-121 35t-120 -35q-40 -35 -40 -90t32 -86q37 -43 128 -43zM1278 457q0 104 84 176t232 72t231 -72q84 -71 84 -187t-117 -178q59 -25 102 -84
t43 -135q0 -119 -90 -196q-92 -74 -256 -74t-253 75t-89 195q0 80 45 139q37 53 101 80q-117 61 -117 189zM1819 1679l-1409 -1884h-181l1411 1884h179zM635 1079q0 183 -172 183q-123 0 -174 -91h-146l52 510h559v-141h-428l-23 -217q78 70 203 70t207 -85q82 -86 82 -228
q-1 -142 -99 -225t-233 -83t-229 73t-107 206h158q19 -144 168 -144q80 0 131 46t51 126z" />
    <glyph glyph-name="cid00373" unicode="&#x215e;" 
d="M1780 49q0 152 -187 152q-100 0 -145 -45q-41 -35 -41 -107q1 -141 187 -141t186 141zM1592 322q91 0 127 38t36 92t-42 89t-121 35t-120 -35q-40 -35 -40 -90t32 -86q37 -43 128 -43zM1278 457q0 104 84 176t232 72t231 -72q84 -71 84 -187t-117 -178q59 -25 102 -84
t43 -135q0 -119 -90 -196q-92 -74 -256 -74t-253 75t-89 195q0 80 45 139q37 53 101 80q-117 61 -117 189zM1819 1679l-1409 -1884h-181l1411 1884h179zM825 1681v-120l-321 -773h-168l321 750h-456v143h624z" />
    <glyph glyph-name="uni2160" unicode="&#x2160;" 
d="M1137 1462v-1462h-224v1462h224z" />
    <glyph glyph-name="uni2161" unicode="&#x2161;" 
d="M1419 1462v-1462h-223v1462h223zM854 1462v-1462h-223v1462h223z" />
    <glyph glyph-name="uni2162" unicode="&#x2162;" 
d="M1696 1462v-1462h-223v1462h223zM1137 1462v-1462h-224v1462h224zM575 1462v-1462h-223v1462h223z" />
    <glyph glyph-name="uni2163" unicode="&#x2163;" 
d="M860 1462l377 -1198h4l377 1198h242l-488 -1462h-264l-490 1462h242zM432 1462v-1462h-223v1462h223z" />
    <glyph glyph-name="uni2164" unicode="&#x2164;" 
d="M608 1462l414 -1212h6l414 1212h244l-527 -1462h-268l-526 1462h243z" />
    <glyph glyph-name="uni2165" unicode="&#x2165;" 
d="M1839 1462v-1462h-223v1462h223zM430 1462l377 -1198h4l377 1198h242l-490 -1462h-264l-488 1462h242z" />
    <glyph glyph-name="uni2166" unicode="&#x2166;" 
d="M1958 1462v-1462h-223v1462h223zM1530 1462v-1462h-221v1462h221zM291 1462l325 -1155h5l325 1155h242l-451 -1462h-239l-451 1462h244z" />
    <glyph glyph-name="uni2167" unicode="&#x2167;" 
d="M1989 1462v-1462h-217v1462h217zM1640 1462v-1462h-217v1462h217zM1292 1462v-1462h-217v1462h217zM260 1462l248 -1118h4l252 1118h229l-362 -1462h-240l-362 1462h231z" />
    <glyph glyph-name="uni2168" unicode="&#x2168;" 
d="M887 1462l356 -528l356 528h273l-496 -706l531 -756h-273l-391 580l-391 -580h-272l526 756l-492 706h273zM414 1462v-1462h-240v1462h240z" />
    <glyph glyph-name="uni2169" unicode="&#x2169;" 
d="M668 1462l356 -528l356 528h273l-496 -706l531 -756h-273l-391 580l-391 -580h-273l527 756l-492 706h273z" />
    <glyph glyph-name="uni216A" unicode="&#x216a;" 
d="M1874 1462v-1462h-240v1462h240zM449 1462l356 -528l356 528h273l-496 -706l530 -756h-272l-391 580l-391 -580h-273l527 756l-492 706h273z" />
    <glyph glyph-name="uni216B" unicode="&#x216b;" 
d="M1968 1462v-1462h-239v1462h239zM1542 1462v-1462h-239v1462h239zM332 1462l289 -512l288 512h275l-426 -723l436 -739h-272l-301 528l-302 -528h-272l438 739l-428 723h275z" />
    <glyph glyph-name="uni2170" unicode="&#x2170;" 
d="M1133 1059v-1059h-218v1059h218zM1026 1483q66 0 108 -40q42 -41 42 -105t-43 -107q-47 -41 -107 -41t-106 42t-46 106t46 104q40 41 106 41z" />
    <glyph glyph-name="uni2171" unicode="&#x2171;" 
d="M1415 1059v-1059h-217v1059h217zM852 1059v-1059h-217v1059h217zM1308 1483q66 0 108 -40q42 -41 42 -105t-43 -107q-47 -41 -107 -41t-106 41q-45 43 -45 107t45 104q40 41 106 41zM594 1338q0 64 42 105q42 40 108 40t109 -40q42 -39 42 -103t-45 -107
q-44 -43 -106 -43t-107 41q-43 43 -43 107z" />
    <glyph glyph-name="uni2172" unicode="&#x2172;" 
d="M1661 1059v-1059h-217v1059h217zM1133 1059v-1059h-218v1059h218zM606 1059v-1059h-217v1059h217zM1403 1338q0 64 42 105q43 40 109 40t108 -41q42 -40 42 -104t-43 -107q-47 -41 -109 -41t-106 41q-43 43 -43 107zM1026 1483q66 0 108 -40q42 -41 42 -105t-43 -107
q-47 -41 -107 -41t-106 42t-46 106t46 104q40 41 106 41zM348 1338q0 64 42 105q42 40 108 40t109 -40q42 -39 42 -103t-45 -107t-106 -43t-107 41q-43 43 -43 107z" />
    <glyph glyph-name="uni2173" unicode="&#x2173;" 
d="M989 1059l266 -785l267 785h235l-393 -1059h-217l-393 1059h235zM530 1059v-1059h-215v1059h215zM573 1338q0 -62 -41 -107q-47 -41 -108 -41t-107 41q-45 43 -45 107t45 104q41 41 107 41t108 -41q41 -42 41 -104z" />
    <glyph glyph-name="uni2174" unicode="&#x2174;" 
d="M758 1059l266 -789l266 789h236l-393 -1059h-218l-393 1059h236z" />
    <glyph glyph-name="uni2175" unicode="&#x2175;" 
d="M1735 1059v-1059h-215v1059h215zM528 1059l267 -785l264 785h237l-393 -1059h-219l-391 1059h235zM1778 1338q0 -64 -43 -107q-45 -41 -107 -41t-108 41q-43 43 -43 107t42 105q41 40 109 40t109 -41q41 -40 41 -104z" />
    <glyph glyph-name="uni2176" unicode="&#x2176;" 
d="M1931 1059v-1059h-217v1059h217zM1473 1059v-1059h-218v1059h218zM319 1059l267 -785l264 785h237l-393 -1059h-219l-393 1059h237zM1673 1338q0 64 42 105q43 40 109 40t108 -40q42 -39 42 -103t-45 -107t-106 -43t-107 41q-43 43 -43 107zM1366 1483q66 0 108 -40
q42 -41 42 -105t-43 -107q-47 -41 -109 -41t-106 42t-44 106t46 104q40 41 106 41z" />
    <glyph glyph-name="uni2177" unicode="&#x2177;" 
d="M1972 1059v-1059h-207v1059h207zM1612 1059v-1059h-209v1059h209zM1247 1059v-1059h-207v1059h207zM285 1059l217 -776l215 776h229l-344 -1059h-205l-342 1059h230zM2013 1338q0 -62 -41 -107q-45 -41 -104 -41q-60 0 -102 42t-42 106t43 104q39 41 101 41t104 -41
q41 -42 41 -104zM1653 1338q0 -62 -41 -107q-46 -41 -106 -41t-102 42t-42 106t43 104q39 41 103 41t104 -41q41 -42 41 -104zM999 1338q0 66 40 105q41 40 103 40t104 -41q42 -40 42 -104t-43 -107q-45 -41 -103 -41t-104 41q-39 41 -39 107z" />
    <glyph glyph-name="uni2178" unicode="&#x2178;" 
d="M1016 1059l233 -336l232 336h254l-369 -496l414 -563h-254l-277 403l-278 -403h-256l413 563l-366 496h254zM535 1059v-1059h-218v1059h218zM276 1338q0 64 42 105q42 40 109 40t109 -40q42 -41 42 -105t-43 -107q-47 -41 -109 -41t-107 41q-43 43 -43 107z" />
    <glyph glyph-name="uni2179" unicode="&#x2179;" 
d="M793 1059l233 -336l231 336h254l-366 -496l414 -563h-256l-277 403l-278 -403h-256l413 563l-366 496h254z" />
    <glyph glyph-name="uni2189" unicode="&#x2189;" 
d="M1745 444q0 125 -151 124t-167 -160h-157q12 143 102 219q84 78 224 78t225 -67q84 -66 84 -190t-127 -184q145 -58 145 -192t-91 -214q-90 -80 -230 -79q-140 0 -222 53q-115 80 -127 260h162q10 -178 174 -178q80 0 127 42t47 106t-45 102q-45 33 -127 33h-75v122h75
q154 0 154 125zM512 909q176 0 176 326t-176 326t-176 -326t176 -326zM1819 1679l-1409 -1884h-181l1411 1884h179zM848 1237q0 -203 -82 -332q-92 -133 -255 -133t-253 133q-80 125 -80 334t84 330q86 129 249 129t255 -131q82 -127 82 -330z" />
    <glyph glyph-name="arrowleft" unicode="&#x2190;" 
d="M2003 821v-168h-1626l248 -278l-88 -94l-492 456l492 457l88 -94l-248 -279h1626z" />
    <glyph glyph-name="arrowup" unicode="&#x2191;" 
d="M1108 -242h-168v1626l-278 -247l-95 88l457 491l457 -491l-95 -88l-278 247v-1626z" />
    <glyph glyph-name="arrowright" unicode="&#x2192;" 
d="M45 653v168h1626l-248 279l88 94l492 -457l-492 -456l-88 94l248 278h-1626z" />
    <glyph glyph-name="arrowdown" unicode="&#x2193;" 
d="M1108 1716v-1626l278 248l95 -88l-457 -492l-457 492l95 88l278 -248v1626h168z" />
    <glyph glyph-name="uni2196" unicode="&#x2196;" 
d="M911 1497l-6 -131l-370 -20l1273 -1272l-120 -121l-1272 1274l-21 -371l-131 -6l-24 672z" />
    <glyph glyph-name="uni2197" unicode="&#x2197;" 
d="M1784 850l-131 6l-21 371l-1272 -1274l-120 121l1273 1272l-370 20l-6 131l671 25z" />
    <glyph glyph-name="uni2198" unicode="&#x2198;" 
d="M1632 248l21 370l131 7l24 -672l-671 24l6 132l370 20l-1273 1272l120 121z" />
    <glyph glyph-name="uni2199" unicode="&#x2199;" 
d="M1808 1401l-1273 -1272l370 -20l6 -132l-671 -24l24 672l131 -7l21 -370l1272 1274z" />
    <glyph glyph-name="uni21B8" unicode="&#x21b8;" 
d="M909 1403l-6 -131l-371 -21l1274 -1271l-120 -121l-1272 1274l-21 -371l-131 -6l-24 671zM1937 1696v-180h-1826v180h1826z" />
    <glyph glyph-name="uni21B9" unicode="&#x21b9;" 
d="M1980 709v-820h-180v398l-479 -445l-88 95l248 278h-1413v168h1413l-248 279l88 94l479 -445v398h180zM1980 1257v-167h-1413l248 -279l-88 -94l-479 444v-397h-180v819h180v-397l479 444l88 -94l-248 -279h1413z" />
    <glyph glyph-name="uni21E6" unicode="&#x21e6;" 
d="M760 494h1005v487h-1005v188l-422 -432l422 -432v189zM928 1161h1018v-848h-1018v-426l-826 850l826 850v-426z" />
    <glyph glyph-name="uni21E7" unicode="&#x21e7;" 
d="M780 1001v-1005h488v1005h188l-432 422l-432 -422h188zM1448 834v-1018h-848v1018h-426l850 825l850 -825h-426z" />
    <glyph glyph-name="uni21E8" unicode="&#x21e8;" 
d="M1288 981h-1005v-487h1005v-189l422 432l-422 432v-188zM1120 313h-1018v848h1018v426l826 -850l-826 -850v426z" />
    <glyph glyph-name="uni21E9" unicode="&#x21e9;" 
d="M780 473h-188l432 -422l432 422h-188v1006h-488v-1006zM1448 1659v-1018h426l-850 -825l-850 825h426v1018h848z" />
    <glyph glyph-name="cid00374" unicode="&#x2202;" horiz-adv-x="1280" 
d="M641 770q-152 0 -246 -125q-90 -115 -90 -272q0 -101 50 -161t128 -60q211 0 365 317l20 47q-16 76 -39 119q-68 135 -188 135zM1198 1022q0 -395 -166 -696q-197 -354 -538 -355q-188 0 -301 109q-111 111 -111 291q0 246 154 405q150 164 401 164q145 0 242 -88
q41 -41 71 -86q27 137 27 262t-72 205t-182 80q-158 0 -274 -135l-121 143q170 170 424 170q206 0 326 -133t120 -336z" />
    <glyph glyph-name="uni2206" unicode="&#x2206;" horiz-adv-x="1417" 
d="M332 197h753l-376 979zM831 1462l564 -1462h-1375l566 1462h245z" />
    <glyph glyph-name="cid00580" unicode="&#x2208;" horiz-adv-x="1607" 
d="M1442 342v-178h-654q-258 0 -415 108q-209 144 -209 462t209 460q154 109 415 109h654v-181h-658q-388 0 -434 -299h1092v-180h-1092q46 -299 434 -301h658z" />
    <glyph glyph-name="cid00376" unicode="&#x220f;" horiz-adv-x="1480" 
d="M1337 1462v-1462h-223v1272h-747v-1272h-224v1462h1194z" />
    <glyph glyph-name="cid00377" unicode="&#x2211;" horiz-adv-x="1251" 
d="M1163 1462v-190h-821l498 -512l-508 -570h866v-190h-1147v193l504 567l-487 504v198h1095z" />
    <glyph glyph-name="cid00378" unicode="&#x2212;" horiz-adv-x="1687" 
d="M1585 848v-221h-1483v221h1483z" />
    <glyph glyph-name="uni2215" unicode="&#x2215;" horiz-adv-x="1671" 
d="M1630 1679l-1407 -1884h-182l1411 1884h178z" />
    <glyph glyph-name="uni2219" unicode="&#x2219;" horiz-adv-x="856" 
d="M427 516q-91 0 -157 68q-66 63 -66 157t66 154q58 66 154 66t162 -66q66 -61 66 -153t-68 -160q-66 -66 -157 -66z" />
    <glyph glyph-name="cid00381" unicode="&#x221a;" 
d="M2034 1761v-125h-1049l-479 -1734l-279 579l-145 -110l-68 104l305 236l177 -375l395 1425h1143z" />
    <glyph glyph-name="cid00581" unicode="&#x221d;" horiz-adv-x="1964" 
d="M498 961q-101 0 -158 -66q-59 -59 -59 -163t59 -167q121 -131 340 8q84 55 199 156q-257 232 -381 232zM501 1141q186 0 511 -291q143 131 266 203q139 88 250 88q223 0 334 -174l-144 -109q-57 102 -190 102t-381 -229q104 -96 209 -163t172 -66q115 0 190 106l144 -110
q-111 -176 -334 -176q-186 0 -516 288q-329 -288 -512 -288q-182 0 -290 116t-108 293q0 178 111 295q102 115 288 115z" />
    <glyph glyph-name="cid00382" unicode="&#x221e;" horiz-adv-x="2025" 
d="M1745 732q0 99 -59 164q-58 65 -146 65t-199 -74q-88 -53 -196 -156q252 -231 379 -229q100 0 162 65q59 66 59 165zM509 961q-112 0 -169 -66q-59 -59 -59 -163t59 -167q127 -138 362 21q84 59 177 143q-258 232 -370 232zM102 731q0 178 108 294t297 116
q188 0 505 -291q309 289 502 290q192 1 301 -114q109 -119 109 -295t-109 -295q-111 -115 -291 -114q-102 0 -228 76t-284 212q-324 -288 -507 -288t-293 116t-110 293z" />
    <glyph glyph-name="cid00582" unicode="&#x221f;" horiz-adv-x="1648" 
d="M385 1393v-1139h1098v-180h-1278v1319h180z" />
    <glyph glyph-name="cid00583" unicode="&#x2220;" horiz-adv-x="1611" 
d="M1446 254v-180h-1282l999 1319h223l-868 -1139h928z" />
    <glyph glyph-name="uni2223" unicode="&#x2223;" horiz-adv-x="681" 
d="M432 1761v-2048h-180v2048h180z" />
    <glyph glyph-name="uni2225" unicode="&#x2225;" horiz-adv-x="1333" 
d="M973 1462v-1462h-129v1462h129zM489 1462v-1462h-127v1462h127z" />
    <glyph glyph-name="cid00586" unicode="&#x2227;" horiz-adv-x="1538" 
d="M854 1393l561 -1319h-196l-449 1059l-448 -1059h-199l561 1319h170z" />
    <glyph glyph-name="cid00587" unicode="&#x2228;" horiz-adv-x="1538" 
d="M322 1393l448 -1059l449 1059h196l-561 -1319h-170l-561 1319h199z" />
    <glyph glyph-name="cid00588" unicode="&#x2229;" horiz-adv-x="1464" 
d="M1300 74h-180v696q0 444 -388 444t-388 -444v-696h-180v692q0 264 108 418q141 209 458 209t462 -209q109 -158 108 -418v-692z" />
    <glyph glyph-name="cid00589" unicode="&#x222a;" horiz-adv-x="1464" 
d="M344 1393v-699q0 -442 388 -442t388 442v699h180v-693q0 -260 -108 -417q-142 -209 -460 -209t-460 209q-109 154 -108 417v693h180z" />
    <glyph glyph-name="cid00383" unicode="&#x222b;" horiz-adv-x="1089" 
d="M642 1509q-79 1 -79 -155t73 -602t73 -582q0 -138 -58 -246q-74 -127 -217 -127q-233 0 -270 297h186q16 -129 96 -129q80 -1 80 147t-71 601q-68 399 -68 522q-9 179 49 295q68 147 219 147q232 0 269 -297h-185q-18 129 -97 129z" />
    <glyph glyph-name="uni222E" unicode="&#x222e;" horiz-adv-x="1110" 
d="M305 739q0 -102 74 -176q49 -49 119 -67l-33 217q-25 139 -37 241q-29 -16 -49 -39q-74 -74 -74 -176zM805 739q1 101 -63 165t-130 79q19 -135 39 -246l33 -213l47 39q74 74 74 176zM666 1677q231 0 268 -297h-184q-18 129 -95 129q-82 0 -82 -149q0 -76 19 -234
q137 -12 239 -112q113 -117 113 -274t-113 -275q-61 -55 -129 -86q16 -137 17 -195q0 -152 -57 -260q-74 -127 -218 -127q-233 0 -268 297h184q16 -129 96 -129t81 152q0 80 -19 235q-138 12 -246 120t-108 268t115 274q57 61 131 88q-26 173 -4 284q8 80 40 144
q68 147 220 147z" />
    <glyph glyph-name="cid00591" unicode="&#x2234;" horiz-adv-x="1845" 
d="M1380 150q0 64 42 103q42 40 108 40t109 -40q42 -41 42 -105t-43 -107q-47 -41 -109 -41t-106 43q-43 43 -43 107zM465 148q0 -64 -43 -107q-44 -41 -108 -41t-107 43t-43 107t42 103q42 40 110 40t108 -41q41 -40 41 -104zM1073 1318q0 -62 -41 -108q-47 -41 -108 -41
t-107 41q-45 43 -45 108t45 103q41 41 107 41t108 -41q41 -41 41 -103z" />
    <glyph glyph-name="uni2235" unicode="&#x2235;" horiz-adv-x="1845" 
d="M1073 148q0 -62 -41 -107q-47 -41 -109 -41q-63 0 -107 43t-44 107t45 102q41 41 107 41t108 -41q41 -42 41 -104zM1530 1462q66 0 109 -40q42 -40 42 -104t-43 -108q-47 -41 -108 -41t-107 41q-43 43 -43 108t43 103q41 41 107 41zM465 1317q0 -63 -43 -107
q-46 -41 -108 -41t-107 41q-43 43 -43 108t43 103q41 41 109 41t108 -41q41 -41 41 -104z" />
    <glyph glyph-name="uni2236" unicode="&#x2236;" horiz-adv-x="1024" 
d="M512 293q66 0 109 -40q43 -41 43 -105t-43 -107q-47 -41 -109 -41t-106 43t-44 107t44 102q40 41 106 41zM512 1462q66 0 109 -40t43 -104t-43 -108q-47 -41 -109 -41t-106 41q-44 43 -44 108t44 103q40 41 106 41z" />
    <glyph glyph-name="uni2237" unicode="&#x2237;" horiz-adv-x="1654" 
d="M1489 148q0 -64 -43 -107q-44 -41 -108 -41t-107 43t-43 107t42 103q42 40 110 40t108 -41q41 -40 41 -104zM465 148q0 -64 -43 -107q-44 -41 -108 -41t-107 43t-43 107t42 103q42 40 110 40t108 -41q41 -40 41 -104zM1489 1317q0 -63 -43 -107q-46 -41 -108 -41t-107 41
q-43 43 -43 108t43 103q41 41 109 41t108 -41q41 -41 41 -104zM465 1317q0 -63 -43 -107q-46 -41 -108 -41t-107 41q-43 43 -43 108t43 103q41 41 109 41t108 -41q41 -41 41 -104z" />
    <glyph glyph-name="cid42246" unicode="&#x223c;" horiz-adv-x="1603" 
d="M536 733q-146 0 -241 -160l-131 107q152 233 356 233q123 0 298 -87t259 -87q123 0 234 160l129 -106q-156 -230 -361 -232q-119 0 -293 86t-250 86z" />
    <glyph glyph-name="uni223D" unicode="&#x223d;" horiz-adv-x="1603" 
d="M295 901q101 -162 242 -162q75 0 247 87q172 88 289 88t209 -66q82 -55 158 -168l-129 -107q-111 160 -234 160q-86 0 -260 -88q-178 -84 -297 -84q-205 0 -356 232z" />
    <glyph glyph-name="cid00384" unicode="&#x2248;" horiz-adv-x="1603" 
d="M1077 518q113 0 234 162l129 -107q-88 -113 -156 -165q-94 -66 -210 -66t-289 86t-263 86q-111 0 -227 -160l-131 107q90 115 153 162q90 69 208 69t293 -87t259 -87zM1077 954q113 0 234 162l129 -108q-90 -113 -156 -164q-92 -68 -209 -68t-290 86t-263 86
q-111 0 -227 -160l-131 107q90 115 153 162q90 69 208 69t293 -86t259 -86z" />
    <glyph glyph-name="uni224C" unicode="&#x224c;" horiz-adv-x="1607" 
d="M1442 377v-180h-1278v180h1278zM1442 770v-180h-1278v180h1278zM295 1255q99 -159 242 -159q75 0 248 86t289 86q208 0 366 -232l-129 -106q-111 160 -234 160q-86 0 -260 -88t-297 -87q-205 0 -356 234z" />
    <glyph glyph-name="uni2252" unicode="&#x2252;" horiz-adv-x="1607" 
d="M1104 150q0 64 42 103q42 40 108 40t109 -40q42 -39 42 -103t-45 -107q-46 -43 -108 -43t-105 43t-43 107zM1442 606v-180h-1278v180h1278zM1442 1044v-180h-1278v180h1278zM354 1462q66 0 108 -40t42 -104t-43 -108q-47 -41 -107 -41t-106 42q-45 42 -45 107t45 103
q40 41 106 41z" />
    <glyph glyph-name="cid00385" unicode="&#x2260;" horiz-adv-x="1607" 
d="M1442 1044v-180h-490l-104 -258h594v-180h-666l-141 -352h-193l142 352h-420v180h491l105 258h-596v180h667l142 349h192l-141 -349h418z" />
    <glyph glyph-name="cid00598" unicode="&#x2261;" horiz-adv-x="1607" 
d="M1442 383v-180h-1278v180h1278zM1442 823v-180h-1278v180h1278zM1442 1264v-181h-1278v181h1278z" />
    <glyph glyph-name="cid29223" unicode="&#x2264;" horiz-adv-x="1607" 
d="M1442 283v-179h-1278v179h1278zM1442 1155l-967 -287l967 -286v-193l-1278 383v191l1278 383v-191z" />
    <glyph glyph-name="cid29224" unicode="&#x2265;" horiz-adv-x="1607" 
d="M1442 283v-179h-1278v179h1278zM1442 963v-191l-1278 -383v193l966 286l-966 287v191z" />
    <glyph glyph-name="uni2266" unicode="&#x2266;" horiz-adv-x="1607" 
d="M1442 180v-180h-1278v180h1278zM1442 506v-180h-1278v180h1278zM1442 1268l-930 -232l930 -233v-185l-1278 328v178l1278 330v-186z" />
    <glyph glyph-name="uni2267" unicode="&#x2267;" horiz-adv-x="1607" 
d="M1442 180v-180h-1278v180h1278zM1442 506v-180h-1278v180h1278zM1442 1124v-178l-1278 -328v185l932 233l-932 232v186z" />
    <glyph glyph-name="uni226E" unicode="&#x226e;" horiz-adv-x="1607" 
d="M412 737l262 -112l131 282zM1247 1432l-78 -168l273 118v-198l-387 -168l-215 -463l602 -262v-199l-680 295l-201 -430l-164 76l199 426l-432 188v180l756 328l163 352z" />
    <glyph glyph-name="uni226F" unicode="&#x226f;" horiz-adv-x="1607" 
d="M1196 737l-274 119l-138 -297zM1190 1432l-193 -412l445 -193v-180l-772 -336l-166 -354l-162 76l80 172l-258 -113v199l373 162l221 475l-594 256v198l670 -290l194 415z" />
    <glyph glyph-name="circleplus" unicode="&#x2295;" horiz-adv-x="1771" 
d="M956 668v-510q199 25 342 168q137 143 162 342h-504zM817 668h-508q19 -201 162 -343t346 -167v510zM956 809h502q-25 197 -165 337t-337 165v-502zM817 809v502q-205 -25 -346 -164t-162 -338h508zM1606 736q0 -302 -209 -513t-512 -211t-512 211t-209 513t209 511
t512 209t512 -209t209 -511z" />
    <glyph glyph-name="uni2299" unicode="&#x2299;" horiz-adv-x="1771" 
d="M1042 736q0 -60 -45 -111q-51 -47 -113 -47t-110 47q-45 47 -45 111t45 111q44 46 110 46t113 -47q45 -50 45 -110zM305 735q0 -243 170 -411t410 -168q239 0 409 172t170 410t-169 406q-169 169 -411 169t-411 -167q-168 -167 -168 -411zM1606 736q0 -302 -209 -513
t-512 -211t-512 211t-209 513t209 511t512 209t512 -209t209 -511z" />
    <glyph glyph-name="uni22A5" unicode="&#x22a5;" horiz-adv-x="1607" 
d="M893 1393v-1139h549v-180h-1278v180h551v1139h178z" />
    <glyph glyph-name="uni22BF" unicode="&#x22bf;" horiz-adv-x="1570" 
d="M1227 254v702l-686 -702h686zM1407 74h-1284l1284 1312v-1312z" />
    <glyph glyph-name="cid00388" unicode="&#x22c5;" horiz-adv-x="712" 
d="M205 739q0 63 44 107q43 44 107 45q64 0 108 -44q44 -43 44 -107t-46 -108t-106 -44t-106 44q-45 44 -45 107z" />
    <glyph glyph-name="uni22EF" unicode="&#x22ef;" 
d="M1708 584q-64 0 -104 45q-41 41 -41 107t42 107q43 42 105 42t105 -43q41 -46 41 -108t-41 -107q-43 -43 -107 -43zM1171 734q0 -62 -41 -107q-42 -43 -106 -43t-104 45q-41 41 -41 107t42 107q42 42 104 42t105 -43q41 -46 41 -108zM487 734q0 -62 -41 -107
q-42 -43 -106 -43t-104 45q-41 41 -41 107t42 107q42 42 104 42t105 -43q41 -46 41 -108z" />
    <glyph glyph-name="uni2312" unicode="&#x2312;" 
d="M1023 338q-435 0 -822 -338l-95 109q428 373 917 373t919 -373l-95 -109q-389 338 -824 338z" />
    <glyph glyph-name="uni23DA" unicode="&#x23da;" 
d="M1526 59v-180h-1002v180h1002zM1677 444v-180h-1306v180h1306zM1114 1761v-934h725v-180h-1630v180h725v934h180z" />
    <glyph glyph-name="uni23DB" unicode="&#x23db;" 
d="M518 475h1012v172h-1012v-172zM518 827h1012v172h-1012v-172zM1710 1174v-347h338v-180h-338v-346h-1372v346h-338v180h338v347h1372z" />
    <glyph glyph-name="uni2574" unicode="&#x2574;" 
d="M1024 827v-180h-1024v180h1024z" />
    <glyph glyph-name="cid00389" unicode="&#x25ca;" 
d="M702 735l322 -598l322 598l-322 600zM1532 735l-508 -930l-508 930l508 932z" />
    <glyph glyph-name="male" unicode="&#x2642;" 
d="M741 217q100 0 172 72t72 172t-72 168q-70 72 -172 72t-168 -72q-71 -66 -71 -168t71 -172q68 -72 168 -72zM743 37q-174 0 -298 124q-123 124 -123 299t124 298t297 123q127 0 230 -68l440 438l-373 33l-2 129l688 27l-24 -690l-129 2l-35 374l-438 -442
q66 -100 65 -225q0 -170 -124 -296t-298 -126z" />
    <glyph glyph-name="uni273D" unicode="&#x273d;" 
d="M1153 1346l-33 -447l393 270l127 -225l-428 -207l428 -207l-127 -225l-393 270l33 -446h-258l33 444l-391 -266l-127 223l430 207l-430 207l127 223l391 -266l-33 445h258z" />
    <glyph glyph-name="uni29F5" unicode="&#x29f5;" horiz-adv-x="1024" 
d="M248 1679l717 -1884h-191l-715 1884h189z" />
    <glyph glyph-name="cid08425" unicode="&#x2e82;" 
d="M1901 1083v-165q-145 -262 -351 -469l-143 129q137 127 274 321h-1570v184h1790z" />
    <glyph glyph-name="cid08426" unicode="&#x2e86;" 
d="M1692 4q0 -201 -201 -201h-262l-53 191q180 -8 251 -8q66 0 66 88v1345h-829v-606q-6 -631 -295 -1020l-156 139q248 344 254 867v811h1225v-1606z" />
    <glyph glyph-name="cid08427" unicode="&#x2e8a;" 
d="M1024 1681v-749h565v-189h-565v-954h-197v1892h197z" />
    <glyph glyph-name="cid37832" unicode="&#x2e8d;" 
d="M707 1122l-146 -145q-113 168 -307 360l141 138q181 -175 312 -353zM1745 1501q-106 -254 -281 -497l-178 92q182 254 285 489zM1139 1186l-195 -51q-55 223 -141 428l184 61q84 -192 152 -438z" />
    <glyph glyph-name="cid08428" unicode="&#x2e91;" 
d="M627 1004h786v-947q0 -61 51 -67h189q100 0 112 73q4 127 4 269l185 -58q-6 -231 -31 -329q-39 -129 -264 -129h-227q-211 0 -211 217v792h-412v-211q-25 -553 -526 -827l-158 141q492 233 502 705v371zM868 1528q-240 -532 -692 -729l-108 166q422 172 630 651z
M1966 944l-141 -141q-238 334 -666 719l133 125q398 -349 674 -703z" />
    <glyph glyph-name="cid08429" unicode="&#x2ea9;" 
d="M365 938v434h-254v187h702v-187h-254v-434h219v-188h-219v-406q117 41 242 92v-186q-311 -129 -674 -215l-45 186q123 20 283 64v465h-232v188h232z" />
    <glyph glyph-name="cid08430" unicode="&#x2ead;" 
d="M590 1221v188h313q-31 104 -88 236l195 53q49 -139 84 -289h301v-168q-84 -193 -267 -393q209 -106 371 -246l-108 -168q-147 139 -291 234v-883h-195v852q-147 -125 -344 -254l-55 195q502 332 680 643h-596z" />
    <glyph glyph-name="cid08431" unicode="&#x2eb4;" 
d="M1886 1028h-194v336h-342v-1298q0 -61 65 -62h227q72 0 109 47q29 45 41 336l176 -55q-20 -358 -78 -434t-217 -76h-301q-211 0 -211 215v1327h-278v-334q-12 -856 -650 -1249l-149 133q594 346 604 1116v334h-332v-336h-194v520h1724v-520z" />
    <glyph glyph-name="cid08432" unicode="&#x2eb5;" 
d="M1786 -72h-193v971h-252v-911h-188v911h-250v-911h-186v911h-254v-971h-193v1157h1516v-1157z" />
    <glyph glyph-name="cid08433" unicode="&#x2eb8;" 
d="M1939 915v-186h-815v-309h654v-182h-654v-457h-196v457h-658v182h658v309h-817v186h1828zM1411 1673v-239h418v-185h-418v-256h-186v680h186zM825 1673v-680h-186v256h-420v185h420v239h186z" />
    <glyph glyph-name="cid08434" unicode="&#x2ebd;" 
d="M1747 1405v-1460h-186v98h-457v182h457v428h-457v185h457v385h-465v182h651zM492 838h440v-185h-440v-428h440v-182h-440v-98h-187v1394q311 61 567 172l113 -155q-236 -92 -493 -152v-366z" />
    <glyph glyph-name="cid01246" unicode="&#x2f00;" 
d="M1950 848v-193h-1854v193h1854z" />
    <glyph glyph-name="uni3001" unicode="&#x3001;" 
d="M1163 467q-159 234 -413 434l116 107q138 -98 240 -204t192 -226z" />
    <glyph glyph-name="uni3002" unicode="&#x3002;" 
d="M883 740q0 -60 43 -100t98 -40t100 41q41 41 41 98t-41 97t-100 39q-59 0 -100 -41q-41 -34 -41 -94zM1021 1010q118 0 202 -79t84 -193t-83 -194t-201 -79q-118 0 -198 80q-84 75 -84 193t84 194q78 78 196 78z" />
    <glyph glyph-name="uni3127" unicode="&#x3127;" 
d="M1804 827v-180h-1560v180h1560z" />
    <glyph glyph-name="uni338E" unicode="&#x338e;" 
d="M1567 909q-211 0 -211 -350t213 -350q100 0 155 96q54 100 54 253t-54 253q-55 98 -157 98zM1780 1059h200v-1002q0 -492 -405 -491q-344 0 -389 342h198q12 -92 58 -130t143 -38q98 0 148 72q47 72 47 229v141q-39 -66 -99 -106q-76 -47 -151 -47q-178 0 -281 139
q-102 139 -102 388t100 388q97 143 265 143t268 -145v117zM1040 754v-754h-194v739q0 164 -92 164q-45 0 -73 -53t-28 -135v-715h-196v737q0 166 -84 166q-45 0 -77 -58t-32 -147v-698h-196v1059h196v-94q68 123 168 122q140 1 189 -151q77 152 189 152t171 -90
q59 -89 59 -244z" />
    <glyph glyph-name="uni338F" unicode="&#x338f;" 
d="M1487 909q-211 0 -211 -350t213 -350q100 0 156 96q53 100 53 254t-56 252t-155 98zM1700 1059h201v-1002q0 -492 -406 -491q-344 0 -389 342h199q12 -92 58 -130t143 -38t147 72q47 72 47 229v141q-39 -66 -98 -106q-76 -47 -152 -47q-178 0 -281 139q-102 139 -102 388
t100 388q97 143 265 143t268 -145v117zM348 1491v-856l379 424h266l-409 -428l432 -631h-264l-310 483l-94 -102v-381h-201v1491h201z" />
    <glyph glyph-name="uni339C" unicode="&#x339c;" 
d="M2013 754v-754h-192v737q0 166 -90 166q-43 0 -71 -54t-28 -134v-715h-194v735q0 168 -82 168q-43 0 -74 -60t-31 -145v-698h-194v1059h194v-98q63 127 180 127t166 -152q70 152 187 152t170 -91q59 -88 59 -243zM991 754v-754h-194v737q0 166 -88 166q-43 0 -72 -53
t-29 -135v-715h-192v735q0 168 -82 168q-43 0 -75 -59t-32 -146v-698h-192v1059h192v-98q67 127 183 127t165 -152q70 152 186 152t173 -91q57 -90 57 -243z" />
    <glyph glyph-name="uni339D" unicode="&#x339d;" 
d="M1982 754v-754h-194v739q0 164 -92 164q-45 0 -73 -53t-28 -135v-715h-196v737q0 166 -84 166q-45 0 -77 -58t-32 -147v-698h-196v1059h196v-94q68 123 168 122q140 1 189 -151q77 152 189 152t171 -90q59 -89 59 -244zM502 150q174 0 205 247h202q-43 -426 -415 -426
q-219 0 -330 160q-98 147 -98 394t102 393q115 170 340 169q350 0 395 -393h-196q-18 115 -66 166q-49 49 -149 49t-158 -102q-61 -98 -62 -279q0 -378 230 -378z" />
    <glyph glyph-name="uni339E" unicode="&#x339e;" 
d="M1982 754v-754h-194v739q0 164 -92 164q-45 0 -73 -53t-28 -135v-715h-196v737q0 166 -84 166q-45 0 -77 -58t-32 -147v-698h-196v1059h196v-94q68 123 168 122q140 1 189 -151q77 152 189 152t171 -90q59 -89 59 -244zM274 1491v-856l379 424h267l-410 -428l432 -631
h-264l-307 483l-97 -102v-381h-200v1491h200z" />
    <glyph glyph-name="uni339F" unicode="&#x339f;" 
d="M2013 754v-754h-192v737q0 166 -90 166q-43 0 -71 -54t-28 -134v-715h-194v735q0 168 -82 168q-43 0 -74 -60t-31 -145v-698h-194v1059h194v-98q63 127 180 127t166 -152q70 152 187 152t170 -91q59 -88 59 -243zM991 754v-754h-194v737q0 166 -88 166q-43 0 -72 -53
t-29 -135v-715h-192v735q0 168 -82 168q-43 0 -75 -59t-32 -146v-698h-192v1059h192v-98q67 127 183 127t165 -152q70 152 186 152t173 -91q57 -90 57 -243zM1800 1634q-98 0 -98 -118h-113q-1 90 61 152t150 62t143 -48q54 -48 54 -113q0 -115 -137 -203q-48 -23 -129 -104
h268v-99h-412q4 102 78 176q12 14 137 103q39 32 61 58q21 26 21 58t-20 58q-20 18 -64 18z" />
    <glyph glyph-name="uni33A0" unicode="&#x33a0;" 
d="M1982 754v-754h-194v739q0 164 -92 164q-45 0 -73 -53t-28 -135v-715h-196v737q0 166 -84 166q-45 0 -77 -58t-32 -147v-698h-196v1059h196v-94q68 123 168 122q140 1 189 -151q77 152 189 152t171 -90q59 -89 59 -244zM502 150q174 0 205 247h202q-43 -426 -415 -426
q-219 0 -330 160q-98 147 -98 394t102 393q115 170 340 169q350 0 395 -393h-196q-18 115 -66 166q-49 49 -149 49t-158 -102q-61 -98 -62 -279q0 -378 230 -378zM1800 1634q-98 0 -98 -118h-113q-1 90 61 152t150 62t143 -48q54 -48 54 -113q0 -115 -137 -203
q-48 -23 -129 -104h268v-99h-412q4 102 78 176q12 14 137 103q39 32 61 58q21 26 21 58t-20 58q-20 18 -64 18z" />
    <glyph glyph-name="uni33A1" unicode="&#x33a1;" 
d="M1731 0h-218v657q0 129 -53 189t-182 59q-90 0 -152 -67q-61 -68 -61 -187v-651h-217v655q0 250 -217 250q-103 0 -167 -78t-65 -190v-637h-217v1059h217v-117q127 145 289 145q236 0 334 -178q76 103 150 141t182 37q168 1 272 -109t105 -284v-694zM1800 1634
q-49 0 -71 -30q-27 -29 -27 -91h-113q-1 91 61 153t150 62t142 -47q55 -47 55 -113t-43 -122q-33 -39 -94 -82q-48 -23 -129 -104h268v-99h-412q4 102 78 176q12 14 137 103q39 32 61 58t21 56q0 80 -84 80z" />
    <glyph glyph-name="uni33A2" unicode="&#x33a2;" 
d="M1982 754v-754h-194v739q0 164 -92 164q-45 0 -73 -53t-28 -135v-715h-196v737q0 166 -84 166q-45 0 -77 -58t-32 -147v-698h-196v1059h196v-94q68 123 168 122q140 1 189 -151q77 152 189 152t171 -90q59 -89 59 -244zM274 1491v-856l379 424h267l-410 -428l432 -631
h-264l-307 483l-97 -102v-381h-200v1491h200zM1800 1634q-98 0 -98 -118h-113q-1 90 61 152t150 62t143 -48q54 -48 54 -113q0 -115 -137 -203q-48 -23 -129 -104h268v-99h-412q4 102 78 176q12 14 137 103q39 32 61 58q21 26 21 58t-20 58q-20 18 -64 18z" />
    <glyph glyph-name="uni33A3" unicode="&#x33a3;" 
d="M2013 754v-754h-192v737q0 166 -90 166q-43 0 -71 -54t-28 -134v-715h-194v735q0 168 -82 168q-43 0 -74 -60t-31 -145v-698h-194v1059h194v-98q63 127 180 127t166 -152q70 152 187 152t170 -91q59 -88 59 -243zM991 754v-754h-194v737q0 166 -88 166q-43 0 -72 -53
t-29 -135v-715h-192v735q0 168 -82 168q-43 0 -75 -59t-32 -146v-698h-192v1059h192v-98q67 127 183 127t165 -152q70 152 186 152t173 -91q57 -90 57 -243zM1798 1493q90 1 90 71t-88 70t-98 -92h-109q14 186 209 187q91 0 145 -42t54 -115t-76 -118q86 -25 86 -123
q0 -76 -59 -129q-62 -51 -148 -51q-213 0 -223 199h113q4 -104 106 -104t101 83q0 78 -101 78h-53v86h51z" />
    <glyph glyph-name="uni33A4" unicode="&#x33a4;" 
d="M1982 754v-754h-194v739q0 164 -92 164q-45 0 -73 -53t-28 -135v-715h-196v737q0 166 -84 166q-45 0 -77 -58t-32 -147v-698h-196v1059h196v-94q68 123 168 122q140 1 189 -151q77 152 189 152t171 -90q59 -89 59 -244zM502 150q174 0 205 247h202q-43 -426 -415 -426
q-219 0 -330 160q-98 147 -98 394t102 393q115 170 340 169q350 0 395 -393h-196q-18 115 -66 166q-49 49 -149 49t-158 -102q-61 -98 -62 -279q0 -378 230 -378zM1798 1493q90 1 90 71t-88 70t-98 -92h-109q14 186 209 187q91 0 145 -42t54 -115t-76 -118q86 -25 86 -123
q0 -76 -59 -129q-62 -51 -148 -51q-213 0 -223 199h113q4 -104 106 -104t101 83q0 78 -101 78h-53v86h51z" />
    <glyph glyph-name="uni33A5" unicode="&#x33a5;" 
d="M1731 0h-218v657q0 129 -53 189t-182 59q-90 0 -152 -67q-61 -68 -61 -187v-651h-217v655q0 250 -217 250q-103 0 -167 -78t-65 -190v-637h-217v1059h217v-117q127 145 289 145q236 0 334 -178q76 103 150 141t182 37q168 1 272 -109t105 -284v-694zM1798 1493
q90 1 90 71t-88 70t-98 -92h-109q14 186 209 187q91 0 145 -42t54 -115t-76 -118q86 -25 86 -123q0 -76 -59 -129q-62 -51 -148 -51q-213 0 -223 199h113q4 -104 106 -104t101 83q0 78 -101 78h-53v86h51z" />
    <glyph glyph-name="uni33A6" unicode="&#x33a6;" 
d="M1982 754v-754h-194v739q0 164 -92 164q-45 0 -73 -53t-28 -135v-715h-196v737q0 166 -84 166q-45 0 -77 -58t-32 -147v-698h-196v1059h196v-94q68 123 168 122q140 1 189 -151q77 152 189 152t171 -90q59 -89 59 -244zM274 1491v-856l379 424h267l-410 -428l432 -631
h-264l-307 483l-97 -102v-381h-200v1491h200zM1798 1493q90 1 90 71t-88 70t-98 -92h-109q14 186 209 187q91 0 145 -42t54 -115t-76 -118q86 -25 86 -123q0 -76 -59 -129q-62 -51 -148 -51q-213 0 -223 199h113q4 -104 106 -104t101 83q0 78 -101 78h-53v86h51z" />
    <glyph glyph-name="uni33C2" unicode="&#x33c2;" 
d="M2034 90q0 -34 -28 -62t-64 -28t-61 26q-26 26 -26 64t26 62q25 25 63 25t64 -26t26 -61zM809 0q-35 0 -59 27t-25 63q0 36 25 62q24 25 62 25t64 -25t26 -61t-25 -64q-33 -27 -68 -27zM338 137q66 0 121 78q51 80 51 195v77l-107 -2q-199 -2 -198 -213q0 -61 33 -98
q34 -37 100 -37zM1833 756v-756h-186v741q0 162 -84 162q-41 0 -66 -51q-29 -49 -29 -135v-717h-186v735q0 168 -76 168q-88 0 -90 -203v-700h-186v1059h186v-94q62 123 146 123t120 -37q36 -36 58 -115q70 152 180 151q213 0 213 -331zM520 143q-82 -174 -270 -174
q-94 0 -166 79q-70 79 -70 222q0 193 115 287q96 84 266 86l115 2v60q0 109 -31 157t-108 49q-129 0 -148 -168l-184 19q45 327 340 325q323 1 323 -409v-678h-182v143z" />
    <glyph glyph-name="uni33C4" unicode="&#x33c4;" 
d="M1513 150q172 0 203 247h205q-47 -426 -414 -426q-221 -1 -325 153t-104 401t102 393q115 170 340 169q346 0 395 -393h-197q-18 119 -66 167t-134 48q-113 0 -172 -102q-61 -98 -62 -279q0 -378 229 -378zM336 528q0 -378 229 -378q172 0 203 247h203
q-43 -426 -414 -426q-219 1 -325 153t-105 399q0 247 104 395q115 170 340 169q349 0 394 -393h-197q-18 119 -66 167t-135 48q-111 0 -170 -102q-61 -98 -61 -279z" />
    <glyph glyph-name="uni33CE" unicode="&#x33ce;" 
d="M2011 1462v-1462h-207v782h-2l-192 -782h-178l-195 782h-2v-782h-205v1462h221l269 -1067h2l266 1067h223zM248 1462v-588l407 588h258l-426 -583l476 -879h-269l-344 688l-102 -143v-545h-211v1462h211z" />
    <glyph glyph-name="uni33D1" unicode="&#x33d1;" 
d="M1776 686v-686h-201v655q0 133 -47 191q-49 57 -150 57q-70 0 -137 -67q-68 -63 -88 -156v-680h-201v1059h201v-135q115 164 283 163q340 0 340 -401zM649 1491v-1491h-198v1491h198z" />
    <glyph glyph-name="uni33D2" unicode="&#x33d2;" 
d="M545 528q0 -184 53 -277t135 -93t133 96q52 96 52 277t-52 275t-134 95q-83 0 -132 -92q-55 -97 -55 -281zM1610 909q-203 0 -203 -350t201 -350q98 0 150 95t52 252t-51 255t-149 98zM1812 1059h201v-1002q0 -492 -403 -491q-158 0 -254 85t-117 257h197q16 -88 55 -129
q45 -39 137 -39t141 72q43 70 43 229v141q-86 -154 -252 -154t-264 140q-96 139 -96 389t93 390t256 140t263 -145v117zM1124 532q0 -266 -102 -413t-288 -147t-292 145q-104 147 -104 412t103 411t291 147q188 0 288 -145q104 -144 104 -410zM252 1491v-1491h-199v1491h199
z" />
    <glyph glyph-name="uni33D5" unicode="&#x33d5;" 
d="M1507 1059v-1059h-198v1059h198zM823 903q-106 0 -104 -182v-721h-197v735q0 168 -86 168q-51 0 -82 -55q-35 -55 -35 -143v-705h-196v1059h196v-94q74 123 179 122q139 1 188 -153q78 154 192 154t179 -91q63 -92 63 -241v-756h-196v741q0 162 -101 162zM1554 1338
q0 -62 -41 -107q-45 -41 -106 -41t-98 41q-43 43 -43 107t43 104q35 41 99 41t105 -41q41 -42 41 -104zM1921 1491v-1491h-199v1491h199z" />
    <glyph glyph-name="uni33D8" unicode="&#x33d8;" 
d="M1928 0q-36 0 -62 26t-25 64q0 38 26 62q27 25 63 25t62 -25t26 -60t-27 -65q-27 -27 -63 -27zM783 0q-35 0 -61 26t-26 64t26 62q26 25 64 25t63 -26t25 -61q0 -34 -28 -62t-63 -28zM371 911q-146 0 -146 -364v-43q0 -154 27 -236q35 -121 115 -121q88 -1 126 91t37 286
q0 387 -159 387zM1810 756v-756h-186v741q0 162 -84 162q-42 0 -68 -51t-26 -135v-717h-186v735q0 168 -76 168q-90 0 -90 -203v-700h-187v1059h187v-94q61 123 145 123t127 -44q25 -29 51 -108q68 152 180 151q213 0 213 -331zM433 1088q136 0 214 -161t78 -404t-74 -390
q-80 -162 -231 -162q-64 0 -114 38t-79 100v-515h-192v1465h184v-123q78 152 214 152z" />
    <glyph glyph-name="cid01250" unicode="&#x4e08;" 
d="M1147 1348v329h194v-329h590v-191h-596q-37 -502 -262 -817q346 -240 905 -383l-96 -174q-578 154 -934 412q-268 -254 -762 -404l-106 166q477 150 715 362q-317 287 -422 676l170 60q98 -340 377 -592q184 279 221 694h-1014v191h1020z" />
    <glyph glyph-name="cid00393" unicode="&#xfb01;" horiz-adv-x="1265" 
d="M571 1278q-102 0 -102 -111v-108h649v-1059h-217v881h-432v-881h-215v881h-244v178h244v115q0 137 74 210q72 78 213 78h221v-184h-191z" />
    <glyph glyph-name="cid00394" unicode="&#xfb02;" horiz-adv-x="1265" 
d="M571 1278q-102 0 -102 -111v-108h279v-178h-279v-881h-215v881h-244v178h244v115q0 137 74 210q72 78 213 78h577v-1462h-217v1278h-330z" />
    <glyph glyph-name="uniFE10" unicode="&#xfe10;" 
d="M1720 1229q0 -156 -90 -275q-94 -115 -246 -157v127q82 32 136 98t55 141q-25 -8 -51 -8q-62 0 -106 44t-44 111q0 68 45 110t122 42t128 -64q51 -66 51 -169z" />
    <glyph glyph-name="uniFE11" unicode="&#xfe11;" 
d="M1163 467q-159 234 -413 434l116 107q138 -98 240 -204t192 -226z" />
    <glyph glyph-name="uniFE12" unicode="&#xfe12;" 
d="M883 740q0 -60 43 -100t98 -40t100 41q41 41 41 98t-41 97t-100 39q-59 0 -100 -41q-41 -34 -41 -94zM1021 1010q118 0 202 -79t84 -193t-83 -194t-201 -79q-118 0 -198 80q-84 75 -84 193t84 194q78 78 196 78z" />
    <glyph glyph-name="uniFE13" unicode="&#xfe13;" 
d="M1690 560q0 -62 -47 -107t-109 -45t-106 44t-44 108t43 109q43 44 108 44t110 -45q45 -46 45 -108zM1690 1310q0 -62 -45 -108q-49 -45 -111 -45t-106 44t-44 109q0 64 43 108t108 44t110 -45t45 -107z" />
    <glyph glyph-name="uniFE14" unicode="&#xfe14;" 
d="M1720 471q0 -154 -90 -272q-92 -117 -246 -160v127q82 32 136 98t55 142q-18 -6 -64 -6t-92 40q-45 45 -45 113t44 110t122 42t129 -67t51 -167zM1690 1310q0 -62 -45 -108q-49 -45 -111 -45t-106 44t-44 109q0 64 43 108t108 44t110 -45t45 -107z" />
    <glyph glyph-name="uniFE15" unicode="&#xfe15;" 
d="M1536 293q66 0 109 -40q43 -41 43 -105t-43 -107q-47 -41 -109 -41t-106 43t-44 107t44 102q40 41 106 41zM1665 1462l-47 -1048h-162l-47 1048h256z" />
    <glyph glyph-name="uniFE16" unicode="&#xfe16;" 
d="M1372 150q0 64 42 103q42 40 108 40t109 -40q42 -39 42 -103t-45 -107t-107 -43t-106 43q-43 43 -43 107zM1288 1008h-215q0 223 129 353t342 130t334 -109q123 -106 123 -292q0 -150 -78 -250q-27 -33 -172 -160q-57 -47 -86 -107q-33 -59 -33 -135v-35h-219v35
q0 113 43 199q40 86 144 178t120 111q58 74 58 164t-60 153q-61 61 -174 62q-256 0 -256 -297z" />
    <glyph glyph-name="uniFE17" unicode="&#xfe17;" 
d="M1023 178q212 0 435 -57q229 -51 391 -141v397h-1652v-397q162 90 391 141q223 57 435 57zM1980 508v-733h-32q-166 131 -426 202t-500 71q-238 0 -500 -72q-262 -70 -422 -201h-32v733h1912z" />
    <glyph glyph-name="uniFE18" unicode="&#xfe18;" 
d="M197 1098h1652v397q-163 -86 -395 -142q-232 -57 -432 -57t-431 56q-232 56 -394 143v-397zM1024 1427q238 0 494 70t430 203h32v-733h-1912v733h32q166 -131 426 -202t498 -71z" />
    <glyph glyph-name="uniFE19" unicode="&#xfe19;" 
d="M1176 52q0 -64 -43 -107q-47 -41 -109 -41t-106 41q-44 43 -44 107t46 104q40 41 104 41t109 -43q43 -38 43 -102zM1024 881q64 0 108 -41q44 -40 44 -104t-43 -107q-47 -41 -109 -41t-106 41q-44 43 -44 107t46 104q40 41 104 41zM1024 1565q62 0 107 -41
q45 -40 45 -104t-43 -107q-47 -41 -109 -41t-106 41q-44 43 -44 107t46 104q42 41 104 41z" />
    <glyph glyph-name="uniFE30" unicode="&#xfe30;" 
d="M1024 369q64 0 108 -41q44 -40 44 -104t-43 -107q-47 -41 -109 -41t-106 41q-44 43 -44 107t46 104q40 41 104 41zM1024 1393q62 0 107 -41q45 -40 45 -104t-43 -107q-47 -41 -109 -41t-106 41q-44 43 -44 107t46 104q42 41 104 41z" />
    <glyph glyph-name="uniFE31" unicode="&#xfe31;" 
d="M1114 1761v-2048h-180v2048h180z" />
    <glyph glyph-name="uniFE32" unicode="&#xfe32;" 
d="M1114 995v-512h-180v512h180z" />
    <glyph glyph-name="uniFE33" unicode="&#xfe33;" 
d="M602 1761v-2048h-180v2048h180z" />
    <glyph glyph-name="uniFE34" unicode="&#xfe34;" 
d="M627 1739q0 -12 -21 -29q-160 -113 -160 -170q0 -8 90 -114t91 -160q0 -35 -90 -136q-90 -96 -91 -112q43 -57 112 -143q69 -87 69 -138t-90 -145t-91 -125q0 -18 91 -123q90 -110 90 -148t-90 -139q-90 -92 -91 -114q0 -43 148 -168q33 -29 33 -37q0 -25 -25 -25
q-6 0 -39 27q-164 131 -164 201q0 47 93 143q90 100 90 112t-91 116q-91 102 -91 154t90 158q92 106 92 109q0 25 -91 139t-92 142q0 51 93 145q90 95 90 109t-91 122t-92 144q0 111 174 215q18 12 29 12q25 1 25 -22z" />
    <glyph glyph-name="uniFE35" unicode="&#xfe35;" 
d="M1024 377q518 0 956 -316v-182q-211 129 -424 197q-262 90 -534 90t-530 -90q-215 -68 -424 -197v182q438 316 956 316z" />
    <glyph glyph-name="uniFE36" unicode="&#xfe36;" 
d="M1022 1313q472 0 958 286v-182q-458 -315 -964 -315t-948 315v182q482 -286 954 -286z" />
    <glyph glyph-name="uniFE37" unicode="&#xfe37;" 
d="M1292 209h383q137 0 221 -72t84 -207v-155h-165v119q0 117 -132 116h-401q-195 0 -256 176q-74 -176 -256 -176h-403q-133 0 -134 -116v-119h-165v155q0 137 84 208t223 71h385q86 0 131 40t51 150h166q6 -106 53 -151q45 -39 131 -39z" />
    <glyph glyph-name="uniFE38" unicode="&#xfe38;" 
d="M233 1700v-119q0 -117 134 -117h403q182 0 256 -176q61 176 256 176h401q131 0 132 117v119h165v-156q0 -135 -84 -207t-221 -71h-383q-88 0 -133 -40t-51 -151h-166q-6 111 -50 151t-132 40h-385q-139 0 -223 70t-84 208v156h165z" />
    <glyph glyph-name="uniFE39" unicode="&#xfe39;" 
d="M1667 410l313 -535l-163 -100l-258 436h-1070l-258 -436l-163 100l313 535h1286z" />
    <glyph glyph-name="uniFE3A" unicode="&#xfe3a;" 
d="M489 1260h1070l258 436l163 -101l-313 -534h-1286l-313 534l163 101z" />
    <glyph glyph-name="uniFE3B" unicode="&#xfe3b;" 
d="M1980 434v-618q-403 328 -957 328t-955 -328v618h1912z" />
    <glyph glyph-name="uniFE3C" unicode="&#xfe3c;" 
d="M1023 1331q550 0 957 328v-619h-1912v619q405 -328 955 -328z" />
    <glyph glyph-name="uniFE3D" unicode="&#xfe3d;" 
d="M1980 2l-73 -164l-883 391l-883 -391l-73 164l956 424zM1980 352l-73 -172l-883 400l-883 -392l-73 164l956 424z" />
    <glyph glyph-name="uniFE3E" unicode="&#xfe3e;" 
d="M1024 899l883 397l73 -172l-956 -422l-956 422l73 166zM1024 1249l883 391l73 -163l-956 -424l-956 424l73 163z" />
    <glyph glyph-name="uniFE3F" unicode="&#xfe3f;" 
d="M1980 43l-73 -164l-883 391l-883 -391l-73 164l956 424z" />
    <glyph glyph-name="uniFE40" unicode="&#xfe40;" 
d="M1024 1208l883 391l73 -163l-956 -424l-956 424l73 163z" />
    <glyph glyph-name="uniFE41" unicode="&#xfe41;" 
d="M1980 449v-674h-178v475h-1077v199h1255z" />
    <glyph glyph-name="uniFE42" unicode="&#xfe42;" 
d="M246 1700v-475h1077v-199h-1255v674h178z" />
    <glyph glyph-name="uniFE43" unicode="&#xfe43;" 
d="M856 233h844v-323h149v471h-993v-148zM1980 512v-737h-411v327h-844v410h1255z" />
    <glyph glyph-name="uniFE44" unicode="&#xfe44;" 
d="M199 1094h993v147h-844v324h-149v-471zM479 1700v-328h844v-409h-1255v737h411z" />
    <glyph glyph-name="uniFE47" unicode="&#xfe47;" 
d="M1980 305v-530h-178v331h-1556v-331h-178v530h1912z" />
    <glyph glyph-name="uniFE48" unicode="&#xfe48;" 
d="M246 1700v-332h1556v332h178v-531h-1912v531h178z" />
    <glyph glyph-name="uniFE49" unicode="&#xfe49;" 
d="M1896 1681v-127h-315v127h315zM1182 1681v-127h-318v127h318zM465 1681v-127h-315v127h315z" />
    <glyph glyph-name="uniFE4A" unicode="&#xfe4a;" 
d="M1894 1681v-127h-538v127h538zM690 1681v-127h-538v127h538zM1102 1616q0 -29 -23 -55q-25 -25 -57 -25t-54 24q-24 24 -24 56q0 80 79 80t79 -80z" />
    <glyph glyph-name="uniFE4B" unicode="&#xfe4b;" 
d="M225 1585q20 0 115 88q90 88 136 88t150 -88t126 -88t118 88t150 88t166 -88q111 -88 121 -88t108 88q90 88 142 88q51 0 155 -88t113 -88q51 0 170 162q13 14 33 14t20 -20l-16 -29q-109 -174 -213 -174q-43 0 -145 90t-122 90t-110 -90q-96 -90 -138 -90t-152 90
q-108 90 -129 90t-118 -90q-103 -90 -155 -90t-153 90t-121 90t-113 -90q-92 -90 -140 -90q-72 0 -198 164q-25 31 -25 39q0 20 23 20q9 1 34 -26q131 -150 168 -150z" />
    <glyph glyph-name="uniFE4C" unicode="&#xfe4c;" 
d="M225 1325q20 0 119 88q90 90 134 90t148 -89t127 -89q24 0 124 88q90 90 143 90t165 -89t122 -89t110 88q90 90 140 90q49 0 153 -89t115 -89q53 0 170 160q12 18 28 18q25 0 25 -22l-16 -29q-109 -174 -213 -174q-43 0 -145 90t-122 90t-110 -90q-96 -90 -138 -90
t-152 90q-108 90 -129 90t-118 -90q-103 -90 -155 -90t-153 90t-121 90t-113 -90q-92 -90 -140 -90q-74 0 -198 162q-25 35 -25 41q0 23 23 22q11 1 34 -28q131 -150 168 -150zM225 1585q20 0 115 88q90 88 136 88t150 -88t126 -88t118 88t150 88t166 -88q111 -88 121 -88
t108 88q90 88 142 88q51 0 155 -88t113 -88q51 0 170 162q13 14 33 14t20 -20l-16 -29q-109 -174 -213 -174q-43 0 -145 90t-122 90t-110 -90q-96 -90 -138 -90t-152 90q-108 90 -129 90t-118 -90q-103 -90 -155 -90t-153 90t-121 90t-113 -90q-92 -90 -140 -90
q-72 0 -198 164q-25 31 -25 39q0 20 23 20q9 1 34 -26q131 -150 168 -150z" />
    <glyph glyph-name="uniFE4D" unicode="&#xfe4d;" 
d="M1896 -80v-129h-315v129h315zM1182 -80v-129h-318v129h318zM465 -80v-129h-315v129h315z" />
    <glyph glyph-name="uniFE4E" unicode="&#xfe4e;" 
d="M1894 -80v-129h-538v129h538zM690 -80v-129h-538v129h538zM1102 -141q0 -80 -79 -80t-79 80q0 35 24 57t55 23q31 0 55 -24t24 -56z" />
    <glyph glyph-name="uniFE4F" unicode="&#xfe4f;" 
d="M477 -59q47 0 149 -89q102 -90 127 -90t119 90t150 89q56 0 166 -89q111 -89 115 -90q14 0 109 90t146 89q52 0 154 -89t113 -90q53 0 170 158q12 20 28 21q25 0 25 -27l-16 -27q-109 -174 -213 -174q-43 0 -145 90q-102 91 -122 91t-110 -91q-96 -90 -138 -90t-152 90
q-108 91 -129 91t-118 -91q-103 -90 -155 -90t-153 90q-101 91 -121 91t-111 -91q-94 -90 -142 -90q-72 0 -198 164q-25 31 -25 37q0 27 23 27q3 0 34 -33q123 -145 168 -146q21 0 113 90t139 89z" />
    <glyph glyph-name="uniFE50" unicode="&#xfe50;" 
d="M1174 666q0 -102 -73 -197q-73 -94 -198 -129v102q70 25 112 79t42 114q-14 -6 -53 -6t-74 35q-33 35 -33 89t37 85q36 36 98 36t102 -53t40 -155z" />
    <glyph glyph-name="uniFE51" unicode="&#xfe51;" 
d="M1137 502q-145 200 -332 346l94 86q205 -142 344 -344z" />
    <glyph glyph-name="uniFE52" unicode="&#xfe52;" 
d="M1147 738q0 -50 -37 -87q-39 -35 -88 -35t-85 36t-36 86t36 87t86 37t87 -37t37 -87z" />
    <glyph glyph-name="uniFE54" unicode="&#xfe54;" 
d="M895 443q0 56 35 89q34 33 98 33t105 -53q39 -55 38 -133q0 -125 -71 -221q-72 -90 -197 -125v100q66 27 109 80t43 113q-25 -8 -57 -8t-68 34q-35 35 -35 91zM1023 1172q50 0 87 -35t37 -86t-37 -88t-87 -37t-86 37t-36 88t37 84q35 37 85 37z" />
    <glyph glyph-name="uniFE55" unicode="&#xfe55;" 
d="M1147 449q0 -51 -37 -89q-39 -34 -88 -34t-85 36t-36 86q0 52 35 88t87 36t88 -36t36 -87zM1023 1172q50 0 87 -35t37 -86t-37 -88t-87 -37t-86 37t-36 88t37 84q35 37 85 37z" />
    <glyph glyph-name="uniFE56" unicode="&#xfe56;" 
d="M1145 266q0 -53 -34 -86t-86 -33t-87 32t-35 87t35 85t87 30t86 -31t34 -84zM1227 1014q0 182 -185 182q-109 0 -157 -70q-45 -53 -45 -168h-174q0 180 104 284t274 106q170 0 266 -86q97 -86 97 -222t-61 -215q-26 -31 -130 -121t-104 -200v-37h-176v37q0 92 45 168
q35 70 106 131q88 84 99 96q41 57 41 115z" />
    <glyph glyph-name="uniFE57" unicode="&#xfe57;" 
d="M1145 266q0 -53 -34 -86t-86 -33t-87 32t-35 87t35 85t87 30t86 -31t34 -84zM1126 1319l-36 -852h-132l-36 852h204z" />
    <glyph glyph-name="uniFE59" unicode="&#xfe59;" 
d="M1194 738q0 -384 229 -767h-147q-252 356 -252 767t252 763h147q-229 -379 -229 -763z" />
    <glyph glyph-name="uniFE5A" unicode="&#xfe5a;" 
d="M1024 737q0 -410 -252 -766h-147q229 387 229 766t-229 764h147q252 -354 252 -764z" />
    <glyph glyph-name="uniFE5B" unicode="&#xfe5b;" 
d="M1522 1503v-135h-95q-92 0 -92 -106v-320q0 -152 -139 -205q139 -59 139 -205v-321q0 -104 92 -105h95v-135h-125q-111 0 -167 67t-56 179v305q0 72 -33 108t-117 42v131q84 6 121 43q29 35 29 104v305q0 115 56 182t167 66h125z" />
    <glyph glyph-name="uniFE5C" unicode="&#xfe5c;" 
d="M651 1503q109 -1 166 -69t57 -179v-305q0 -70 31 -106t119 -41v-131q-90 -6 -120 -42t-30 -108v-305q0 -109 -57 -177t-166 -69h-125v135h95q92 0 92 105v321q0 147 139 205q-139 51 -139 205v320q0 106 -92 106h-95v135h125z" />
    <glyph glyph-name="uniFE5D" unicode="&#xfe5d;" 
d="M1532 1370l-348 -205v-856l348 -205l-80 -133l-428 250v1032l428 250z" />
    <glyph glyph-name="uniFE5E" unicode="&#xfe5e;" 
d="M1024 1253v-1032l-428 -250l-80 133l348 205v856l-348 205l80 133z" />
    <glyph glyph-name="uniFE5F" unicode="&#xfe5f;" 
d="M1102 535l63 395h-219l-61 -395h217zM825 1059l41 260h142l-41 -260h219l41 260h141l-41 -260h148l-21 -129h-147l-62 -395h168l-22 -127h-166l-41 -261h-144l41 261h-217l-41 -261h-143l41 261h-148l21 127h147l64 395h-170l22 129h168z" />
    <glyph glyph-name="uniFE60" unicode="&#xfe60;" 
d="M872 283q158 0 258 112l-301 322l-43 -25q-150 -94 -149 -223q-1 -88 67 -137t168 -49zM772 1083q0 -43 53 -114q18 -31 56 -68q150 84 149 178q0 123 -129 124t-129 -120zM594 1079q0 125 92 193q86 68 217 68t211 -60q96 -68 96 -198t-149 -236l-86 -47l244 -258
q45 119 57 290h178q-8 -252 -106 -428l241 -258h-225l-115 123q-150 -145 -351 -145t-319 86t-118 255t147 279l92 56q25 12 37 20q-71 77 -107 135t-36 125z" />
    <glyph glyph-name="uniFE61" unicode="&#xfe61;" 
d="M1128 1206l-24 -344l311 205l96 -182l-327 -156l327 -166l-102 -174l-305 203l24 -346h-204l24 346l-307 -211l-102 182l331 166l-329 164l96 174l311 -205l-24 344h204z" />
    <glyph glyph-name="uniFE62" unicode="&#xfe62;" 
d="M1098 1262v-455h438v-148h-438v-454h-148v454h-438v148h438v455h148z" />
    <glyph glyph-name="uniFE63" unicode="&#xfe63;" 
d="M1536 807v-148h-1024v148h1024z" />
    <glyph glyph-name="uniFE64" unicode="&#xfe64;" 
d="M1536 1094l-825 -357l825 -356v-160l-1024 443v147l1024 442v-159z" />
    <glyph glyph-name="uniFE65" unicode="&#xfe65;" 
d="M1536 811v-147l-1024 -443v160l825 356l-825 357v159z" />
    <glyph glyph-name="uniFE66" unicode="&#xfe66;" 
d="M1536 633v-146h-1024v146h1024zM1536 981v-143h-1024v143h1024z" />
    <glyph glyph-name="uniFE68" unicode="&#xfe68;" 
d="M815 1491l569 -1507h-153l-567 1507h151z" />
    <glyph glyph-name="uniFE69" unicode="&#xfe69;" 
d="M1272 453q0 111 -170 176q-6 2 -13 4t-16 6v-365q80 12 131 48q68 47 68 131zM969 848v340q-74 -6 -111 -35q-68 -43 -67 -139q0 -96 172 -164q4 -2 6 -2zM969 1470h104v-135q147 -8 239 -84t118 -254h-175q-23 166 -182 189v-377q186 -72 205 -80q172 -92 172 -267
t-129 -265q-100 -63 -248 -72v-145h-104v145q-342 25 -371 393h176q12 -133 62 -182t133 -62v402l-185 65q-170 89 -170 261t123 258q96 70 232 75v135z" />
    <glyph glyph-name="uniFE6A" unicode="&#xfe6a;" 
d="M1446 260q113 0 113 207t-113 207t-113 -207t113 -207zM1169 466q0 140 66 224q72 96 210 96t207 -92q68 -92 68 -229t-65 -225q-76 -94 -210 -94t-205 90t-71 230zM489 995q0 -207 113 -207t113 207t-113 207t-113 -207zM879 996q0 -140 -72 -230t-206 -90t-204 90
t-69 229q0 139 67 226q70 96 207 96t209 -96q68 -85 68 -225zM1419 1339l-657 -1216h-133l657 1216h133z" />
    <glyph glyph-name="uniFE6B" unicode="&#xfe6b;" 
d="M1069 936q-94 0 -167 -93t-73 -219t107 -124q51 0 100 37q51 43 70 104l33 121q20 82 20 86q0 37 -26 63q-27 25 -64 25zM1593 854q0 -188 -110 -336q-113 -143 -248 -143q-100 0 -119 104q-74 -104 -188 -104t-180 74q-68 74 -68 182q0 174 106 307q102 133 254 133
q109 0 152 -115l22 82h140l-115 -405q-23 -76 -22 -107q0 -35 38 -34q72 0 146 98t74 253t-115 267t-331 111q-216 1 -350 -141t-134 -372t138 -352q138 -123 374 -123q161 1 273 53t173 140h146q-84 -152 -246 -228t-346 -75q-307 0 -483 163t-175 430q0 267 170 437
q180 186 478 186q263 1 413 -157q133 -140 133 -328z" />
    <glyph glyph-name="uniFF01" unicode="&#xff01;" 
d="M1026 293q66 0 108 -40q42 -41 42 -105t-43 -107q-47 -41 -109 -41t-105 43q-45 43 -45 107t46 102q40 41 106 41zM1153 1462l-47 -1048h-162l-47 1048h256z" />
    <glyph glyph-name="uniFF02" unicode="&#xff02;" 
d="M1346 1462l-31 -520h-172l-27 520h230zM934 1462l-29 -520h-172l-31 520h232z" />
    <glyph glyph-name="uniFF03" unicode="&#xff03;" 
d="M1120 483l80 496h-272l-80 -496h272zM1004 1462l-52 -325h273l53 325h176l-51 -325h184l-26 -158h-183l-80 -496h211l-26 -157h-209l-51 -326h-179l52 326h-273l-51 -326h-178l51 326h-184l26 157h183l80 496h-211l26 158h209l53 325h177z" />
    <glyph glyph-name="uniFF04" unicode="&#xff04;" 
d="M1335 385q0 143 -215 217l-37 12v-452q96 12 164 55q88 63 88 168zM733 1087q0 -125 215 -204l8 -4v426q-84 -6 -139 -45q-84 -53 -84 -173zM1083 1657v-168q180 -12 293 -103q125 -96 156 -321h-217q-18 133 -96 188q-51 41 -136 50v-472l260 -98q213 -121 213 -338
t-161 -329q-123 -80 -312 -93v-180h-127v180q-207 12 -319 121q-127 121 -145 373h221q12 -170 84 -238q55 -55 159 -67v500l-231 86q-215 116 -215 328t154 319q115 86 292 94v168h127z" />
    <glyph glyph-name="uniFF05" unicode="&#xff05;" 
d="M1409 401q-1 -260 141 -260t142 260t-140 258q-143 2 -143 -258zM1894 402q0 -172 -82 -283q-94 -119 -261 -119t-256 114t-89 288t84 278q90 121 261 121t261 -121q82 -106 82 -278zM500 1321q-144 0 -144 -259t144 -259q76 0 108 77q32 76 31 184q0 108 -29 175
q-33 82 -110 82zM842 1063q0 -172 -82 -283q-94 -118 -261 -118t-256 114t-89 288q0 175 84 277q90 121 261 121t261 -121q82 -106 82 -278zM1518 1491l-822 -1520h-166l822 1520h166z" />
    <glyph glyph-name="uniFF06" unicode="&#xff06;" 
d="M541 403q0 -107 84 -171t211 -64q197 0 323 143l-377 404q-241 -130 -241 -312zM870 1321q-161 0 -161 -147q0 -80 135 -232l4 2q184 104 184 221q0 72 -43 111q-43 45 -119 45zM872 1491q166 0 274 -81q110 -81 109 -230q0 -174 -186 -306q-37 -18 -106 -59l305 -323
q57 158 71 364h222q-12 -319 -134 -534l304 -322h-281l-145 156q-180 -184 -461 -185q-231 0 -379 110t-148 320t187 347q10 10 162 92q-90 98 -125 159q-53 82 -54 168q0 154 117 240q102 84 268 84z" />
    <glyph glyph-name="uniFF07" unicode="&#xff07;" 
d="M1141 1462l-29 -520h-172l-31 520h232z" />
    <glyph glyph-name="uniFF08" unicode="&#xff08;" 
d="M1702 -219q-314 440 -316 954q0 283 95 539q76 219 221 420h182q-129 -209 -196 -424q-90 -258 -90 -530t90 -535q68 -213 196 -424h-182z" />
    <glyph glyph-name="uniFF09" unicode="&#xff09;" 
d="M164 -219q572 950 0 1913h182q314 -448 315 -953t-315 -960h-182z" />
    <glyph glyph-name="uniFF0A" unicode="&#xff0a;" 
d="M1153 1329l-41 -493l457 190l82 -240l-488 -122l338 -383l-194 -152l-283 430l-283 -430l-194 152l338 383l-488 122l82 240l457 -190l-41 493h258z" />
    <glyph glyph-name="uniFF0B" unicode="&#xff0b;" 
d="M1114 1393v-570h549v-180h-549v-569h-180v569h-549v180h549v570h180z" />
    <glyph glyph-name="uniFF0C" unicode="&#xff0c;" 
d="M1204 674q0 -158 -91 -274t-247 -158v127q84 29 140 96q51 74 51 143q-25 -8 -49 -8q-62 0 -106 44t-44 111t44 109t121 44q77 0 130 -66q51 -68 51 -168z" />
    <glyph glyph-name="uniFF0D" unicode="&#xff0d;" 
d="M1663 823v-180h-1278v180h1278z" />
    <glyph glyph-name="uniFF0E" unicode="&#xff0e;" 
d="M1178 740q0 -62 -45 -111q-45 -43 -110 -43t-108 44t-43 108t43 109q43 44 108 44t110 -45q45 -44 45 -106z" />
    <glyph glyph-name="uniFF0F" unicode="&#xff0f;" 
d="M1477 1679l-715 -1884h-191l717 1884h189z" />
    <glyph glyph-name="uniFF10" unicode="&#xff10;" 
d="M1024 1303q-307 0 -307 -572t307 -571q307 0 307 572t-307 571zM1552 731q0 -340 -129 -543q-143 -217 -399 -217t-399 217q-129 203 -129 545t135 550t393 208t393 -210t135 -550z" />
    <glyph glyph-name="uniFF11" unicode="&#xff11;" 
d="M1135 1462v-1462h-224v1194q-131 -125 -336 -184v221q94 25 207 86q115 70 185 145h168z" />
    <glyph glyph-name="uniFF12" unicode="&#xff12;" 
d="M1034 1491q226 0 359 -122t133 -311t-144 -349q-86 -88 -303 -236q-236 -156 -282 -276h731v-197h-1008q0 219 146 383q76 90 278 231t260 203q100 113 101 240q0 244 -267 246q-139 0 -209 -95q-72 -90 -77 -268h-224q4 246 142 393q138 158 364 158z" />
    <glyph glyph-name="uniFF13" unicode="&#xff13;" 
d="M1282 768q272 -84 270 -334q0 -203 -139 -332q-150 -131 -378 -131q-227 0 -373 122t-164 368h225q6 -150 96 -228q80 -73 214 -73t222 82q76 76 76 194t-80 178q-74 61 -219 62h-106v168h104q133 0 203 59t70 170q0 227 -266 227t-292 -270h-219q18 217 162 340
q132 120 352 120t353 -106q131 -109 131 -294q0 -242 -242 -322z" />
    <glyph glyph-name="uniFF14" unicode="&#xff14;" 
d="M1163 496v684h-6l-524 -684h530zM1376 1462v-966h221v-179h-221v-317h-213v317h-712v211l720 934h205z" />
    <glyph glyph-name="uniFF15" unicode="&#xff15;" 
d="M717 401q23 -241 298 -241q128 0 222 84q92 86 92 232t-80 233q-80 86 -225 86q-211 0 -291 -152h-209l80 819h881v-196h-701l-43 -422h7q68 70 155 100q78 33 180 33q207 0 337 -136q130 -135 130 -365t-168 -376q-156 -129 -362 -129t-356 113t-166 317h219z" />
    <glyph glyph-name="uniFF16" unicode="&#xff16;" 
d="M739 469q0 -143 81 -228t215 -85t216 92t82 231t-80 219q-80 86 -217 86t-217 -86t-80 -229zM1068 965q228 0 357 -136q127 -139 127 -356t-148 -359t-362 -143q-268 1 -406 193t-138 539t146 567t400 221q427 0 482 -397h-217q-45 213 -267 213q-154 0 -241 -150
q-88 -139 -88 -354q0 -14 2 -27h8q117 189 345 189z" />
    <glyph glyph-name="uniFF17" unicode="&#xff17;" 
d="M1516 1462v-180l-519 -1282h-235l528 1260h-755v202h981z" />
    <glyph glyph-name="uniFF18" unicode="&#xff18;" 
d="M700 410q0 -118 84 -188t239 -70t245 71q80 72 80 190t-80 187q-86 80 -247 80t-239 -78q-82 -74 -82 -192zM739 1085q0 -239 285 -239q154 0 227 74q57 63 57 160t-73 165q-74 68 -211 68q-137 -1 -211 -67t-74 -161zM1023 1491q235 0 365 -117t130 -280
q0 -232 -215 -316v-6q106 -25 180 -123q86 -104 86 -241q0 -193 -142 -316q-145 -121 -404 -121t-402 121q-141 123 -142 316q0 137 86 241q74 98 180 123v6q-213 82 -215 316q0 164 129 280t364 117z" />
    <glyph glyph-name="uniFF19" unicode="&#xff19;" 
d="M717 988q0 -142 82 -224q78 -86 215 -86t217 86t80 228t-82 228t-217 87q-135 0 -213 -90q-82 -87 -82 -229zM498 989q0 219 145 361t365 141q268 -1 406 -193t138 -536t-145 -567q-152 -223 -401 -224q-426 0 -482 398h217q43 -213 267 -213q147 0 238 147t91 356l-2 27
h-8q-121 -188 -348 -188t-354 136t-127 355z" />
    <glyph glyph-name="uniFF1A" unicode="&#xff1a;" 
d="M1178 372q0 -62 -45 -108q-49 -45 -111 -45t-106 44t-44 109q0 64 43 108t108 44t110 -45t45 -107zM1178 1122q0 -62 -47 -108q-47 -45 -109 -45t-106 44q-44 45 -44 109t43 108t108 44t110 -45t45 -107z" />
    <glyph glyph-name="uniFF1B" unicode="&#xff1b;" 
d="M1208 283q0 -154 -90 -273q-92 -117 -246 -160v127q82 31 138 99q53 70 53 141q-25 -8 -51 -8q-62 0 -106 44q-44 45 -44 113t46 109t122 41t127 -66q51 -67 51 -167zM1178 1122q0 -62 -47 -108q-47 -45 -109 -45t-106 44q-44 45 -44 109t43 108t108 44t110 -45t45 -107z
" />
    <glyph glyph-name="uniFF1C" unicode="&#xff1c;" 
d="M1663 1178l-1032 -447l1032 -446v-199l-1278 555v180l1278 555v-198z" />
    <glyph glyph-name="uniFF1D" unicode="&#xff1d;" 
d="M1663 600v-180h-1278v180h1278zM1663 1038v-180h-1278v180h1278z" />
    <glyph glyph-name="uniFF1E" unicode="&#xff1e;" 
d="M1663 821v-180l-1278 -555v199l1032 446l-1032 447v198z" />
    <glyph glyph-name="uniFF1F" unicode="&#xff1f;" 
d="M1026 293q66 0 108 -40q42 -41 42 -105t-43 -107q-47 -41 -109 -41t-105 43q-45 43 -45 107t46 102q40 41 106 41zM791 1008h-218q1 221 131 352t342 131t334 -109q121 -110 121 -276t-76 -266q-31 -37 -174 -160q-57 -52 -87 -108t-29 -134v-35h-220v35q0 117 43 203
t187 209q68 66 78 76q57 74 57 164t-61 152t-172 63q-256 0 -256 -297z" />
    <glyph glyph-name="uniFF20" unicode="&#xff20;" 
d="M780 598q0 -76 34 -118t97 -42t127 50t88 130l41 152q25 86 25 119t-33 67t-80 33q-121 0 -207 -119q-92 -121 -92 -272zM1737 866q0 -213 -138 -399q-137 -178 -311 -178q-129 0 -147 129q-93 -133 -235 -133t-227 91t-85 230q0 215 135 381q131 168 318 168
q133 0 188 -143l29 104h172l-142 -508q-29 -98 -28 -135q0 -43 47 -43q90 0 184 124t94 316q-1 192 -147 334t-414 142t-434 -179q-170 -171 -170 -463t170 -444t469 -151q201 0 348 65q129 63 211 176h182q-110 -195 -310 -287t-431 -92q-389 0 -604 203q-219 201 -219 537
t213 549q225 231 596 231q330 0 520 -197q166 -172 166 -428z" />
    <glyph glyph-name="uniFF21" unicode="&#xff21;" 
d="M1272 561l-242 662h-8l-244 -662h494zM1151 1462l563 -1462h-237l-138 377h-628l-138 -377h-237l561 1462h254z" />
    <glyph glyph-name="uniFF22" unicode="&#xff22;" 
d="M1071 184q318 0 320 230q0 129 -76 187t-240 58h-418v-475h414zM657 842h385q152 0 222 53q68 55 68 169t-70 164q-68 50 -215 50h-390v-436zM1614 410q0 -219 -152 -324q-129 -86 -362 -86h-666v1462h666q217 0 335 -100t117 -268q0 -246 -231 -330q293 -59 293 -354z
" />
    <glyph glyph-name="uniFF23" unicode="&#xff23;" 
d="M1055 168q334 0 418 338h217q-48 -256 -224 -396t-411 -139q-358 0 -539 230q-158 195 -158 525t164 534q182 231 533 231q258 0 421 -132t193 -353h-217q-35 150 -141 219q-100 70 -260 69q-236 0 -353 -154q-116 -154 -116 -416t114 -408q114 -148 359 -148z" />
    <glyph glyph-name="uniFF24" unicode="&#xff24;" 
d="M627 190h264q274 0 403 134t129 410t-125 407t-403 131h-268v-1082zM936 1462q354 0 534 -198q174 -186 174 -530t-180 -540q-180 -194 -532 -194h-529v1462h533z" />
    </font>
</defs>
</svg>
